<?xml version="1.0" encoding="UTF-8"?>
<svg version="1.1" xmlns="http://www.w3.org/2000/svg" width="512" height="512">
<path d="M0 0 C3.37807372 0.06517184 4.34036724 0.16152543 7.125 2.25 C13.72156357 11.59513172 9.625 13.7051661 9.625 31.375 C62.755 31.375 115.885 31.375 170.625 31.375 C170.625 22.795 170.625 14.215 170.625 5.375 C174.625 0.375 174.625 0.375 176.84375 -0.21875 C182.97390304 0.0331741 182.97390304 0.0331741 186.125 1.6875 C188.96628111 4.88394124 188.74333778 8.06245717 188.72265625 12.13671875 C188.71943359 13.25498047 188.71621094 14.37324219 188.71289062 15.52539062 C188.70451172 16.69263672 188.69613281 17.85988281 188.6875 19.0625 C188.68298828 20.24134766 188.67847656 21.42019531 188.67382812 22.63476562 C188.66203273 25.54822789 188.6455727 28.46158863 188.625 31.375 C189.33386353 31.36833817 190.04272705 31.36167633 190.77307129 31.35481262 C197.48109795 31.29449033 204.18904797 31.24891892 210.89728546 31.21956348 C214.34537914 31.20396372 217.79324712 31.18283107 221.24121094 31.14868164 C225.21286235 31.10959545 229.18442505 31.09524371 233.15625 31.08203125 C234.99733337 31.05880547 234.99733337 31.05880547 236.87561035 31.03511047 C246.09818573 31.03330988 253.28507251 32.33994851 260.625 38.375 C265.64068073 44.94960852 266.77821946 50.06115115 266.73852539 58.26464844 C266.73867142 59.05527176 266.73881744 59.84589508 266.7389679 60.66047668 C266.73827236 63.26847089 266.73049675 65.8763933 266.72265625 68.484375 C266.7207908 70.29469768 266.71936749 72.10502087 266.71836853 73.91534424 C266.71455339 78.67630409 266.70473165 83.43723337 266.69366455 88.19818115 C266.68342887 93.05789781 266.67886629 97.91761942 266.67382812 102.77734375 C266.6631085 112.30990926 266.6460441 121.84245208 266.625 131.375 C267.39743546 131.67486313 268.16987091 131.97472626 268.9657135 132.28367615 C271.82128141 133.4555504 274.2600576 134.89064538 276.87109375 136.53515625 C277.8672168 137.15986816 278.86333984 137.78458008 279.88964844 138.42822266 C280.93668945 139.09128418 281.98373047 139.7543457 283.0625 140.4375 C284.1340332 141.11345215 285.20556641 141.7894043 286.30957031 142.48583984 C288.44233255 143.83242379 290.57403074 145.18069469 292.70458984 146.53076172 C295.1867725 148.09825944 297.67740655 149.64992914 300.17578125 151.19140625 C301.40901405 151.96068124 302.64210298 152.73018696 303.875 153.5 C304.91140625 154.14195312 305.9478125 154.78390625 307.015625 155.4453125 C310.96341995 158.3647896 313.24377701 161.00259722 314.5625 165.75 C314.69923053 173.68037057 309.35783901 180.20939737 305.1875 186.625 C303.92024642 188.59484208 302.65332496 190.56489785 301.38671875 192.53515625 C300.43611572 194.00879639 300.43611572 194.00879639 299.46630859 195.51220703 C296.78573454 199.67985637 294.14107189 203.86974879 291.5 208.0625 C290.52607221 209.60548803 289.55211388 211.14845679 288.578125 212.69140625 C286.52398151 215.9479249 284.47246735 219.20608802 282.421875 222.46484375 C281.89094238 223.30764893 281.36000977 224.1504541 280.81298828 225.01879883 C279.81035538 226.61045116 278.80864517 228.20268531 277.80810547 229.7956543 C277.1180542 230.89067261 277.1180542 230.89067261 276.4140625 232.0078125 C275.98967077 232.69860649 275.56527905 233.38940048 275.12802696 234.10112762 C273.625 236.375 273.625 236.375 272.06507301 238.14229584 C265.90053744 245.56040488 266.81273494 254.1326335 266.91552734 263.23632812 C266.91390384 265.04569416 266.90958476 266.85505946 266.90278625 268.66441345 C266.89379338 272.54742746 266.90343589 276.42978152 266.92768478 280.31272888 C266.96563945 286.4573671 266.9599044 292.60149999 266.94815063 298.74621582 C266.93132821 310.68089695 266.95936879 322.61527167 266.99156952 334.54990387 C267.03008514 349.74098676 267.04614231 364.93201906 267.02636492 380.12313986 C267.01984665 386.22658371 267.03406896 392.3295188 267.06481528 398.43288422 C267.08021228 402.23442564 267.07922849 406.03584058 267.07407188 409.83740425 C267.07513009 411.59456256 267.08303491 413.35173275 267.0984478 415.10882378 C267.25671458 433.95625579 267.25671458 433.95625579 260.625 441.71484375 C259.965 442.24207031 259.305 442.76929688 258.625 443.3125 C257.965 443.85777344 257.305 444.40304687 256.625 444.96484375 C249.46723635 450.01162632 241.54639449 449.51996151 233.09985352 449.48852539 C231.54750252 449.48874443 231.54750252 449.48874443 229.96379089 449.4889679 C226.56047431 449.48827407 223.15721321 449.48050652 219.75390625 449.47265625 C217.38736501 449.47079019 215.02082338 449.46936717 212.65428162 449.46836853 C206.43843512 449.46455818 200.22261214 449.45474056 194.0067749 449.44366455 C187.65881671 449.43341855 181.31085471 449.42886408 174.96289062 449.42382812 C162.51691677 449.41311695 150.07096035 449.39605835 137.625 449.375 C137.33165771 450.13474121 137.03831543 450.89448242 136.73608398 451.67724609 C135.36851162 454.99776347 133.59470885 457.97150141 131.6875 461 C131.35943359 461.55300781 131.03136719 462.10601562 130.69335938 462.67578125 C123.39027269 474.26178331 113.13622165 481.49907006 101.5 488.125 C100.18585752 488.88824643 98.87263892 489.65308557 97.56030273 490.41943359 C95.5562249 491.58918592 93.55141738 492.75744471 91.54252625 493.91891479 C87.09748663 496.49248212 82.71298363 499.1484078 78.35546875 501.8671875 C77.2171305 502.57221605 76.07862521 503.27697499 74.93994141 503.98144531 C72.8223153 505.29570238 70.710931 506.62008804 68.60693359 507.95605469 C59.49740903 513.54791791 59.49740903 513.54791791 53.625 512.375 C51.40702507 509.04803761 51.42297305 508.45661978 51.76171875 504.66796875 C51.88365601 503.22019043 51.88365601 503.22019043 52.00805664 501.74316406 C52.1587561 500.16873535 52.1587561 500.16873535 52.3125 498.5625 C52.45643188 496.93199707 52.45643188 496.93199707 52.60327148 495.26855469 C52.92957481 491.635899 53.27551063 488.0054956 53.625 484.375 C53.75245698 483.03012757 53.8797322 481.6852379 54.00683594 480.34033203 C54.39300825 476.26782383 54.78784455 472.19620579 55.1875 468.125 C55.31406982 466.83489014 55.44063965 465.54478027 55.57104492 464.21557617 C55.75437378 462.39956909 55.75437378 462.39956909 55.94140625 460.546875 C56.04912354 459.4753418 56.15684082 458.40380859 56.26782227 457.29980469 C56.59551603 454.61643397 57.07958933 452.02077748 57.625 449.375 C56.69431119 449.37776538 56.69431119 449.37776538 55.74482059 449.38058662 C40.62016821 449.42483124 25.4955358 449.4578884 10.3708353 449.47862434 C3.05652601 449.48891963 -4.25773999 449.50294641 -11.57202148 449.52587891 C-17.95007564 449.54586645 -24.32809841 449.55872913 -30.70618302 449.56317699 C-34.08067051 449.56577532 -37.45506827 449.57184576 -40.8295269 449.58646011 C-44.60442259 449.60101438 -48.37913342 449.60297626 -52.15405273 449.60205078 C-53.26248535 449.60924133 -54.37091797 449.61643188 -55.51293945 449.62384033 C-65.78521367 449.59665592 -73.73356791 448.63522686 -81.375 441.375 C-86.19719843 435.41070194 -87.62368962 429.24084836 -87.62947559 421.66667366 C-87.63530779 420.34852987 -87.64113998 419.03038609 -87.64714891 417.67229855 C-87.64351621 416.22132071 -87.63969186 414.77034334 -87.63569641 413.31936646 C-87.63871836 411.76881249 -87.64260806 410.21826002 -87.64728898 408.66771019 C-87.65757214 404.41388366 -87.65538634 400.16014138 -87.65110838 395.90630794 C-87.64864174 391.31588631 -87.65765456 386.72548499 -87.66514587 382.1350708 C-87.67789662 373.14462899 -87.67968609 364.15421704 -87.67734561 355.16376771 C-87.67556271 347.85613223 -87.6773115 340.54850582 -87.68157005 333.24087143 C-87.68216524 332.20088254 -87.68276043 331.16089365 -87.68337366 330.08938994 C-87.68458541 327.97666026 -87.68579954 325.86393058 -87.68701603 323.7512009 C-87.69789303 303.93694138 -87.69572833 284.12269888 -87.68963119 264.30843841 C-87.68446192 246.18280188 -87.69571746 228.05721909 -87.71472941 209.93159319 C-87.73410254 191.31888879 -87.74236472 172.70620981 -87.73860615 154.09349525 C-87.73669331 143.64440574 -87.73918979 133.19536196 -87.75332069 122.74628067 C-87.76522877 113.85085565 -87.7666458 104.95550454 -87.75453053 96.06007852 C-87.74863783 91.52226976 -87.74755324 86.98459621 -87.75953293 82.44679642 C-87.77037796 78.29046824 -87.76730483 74.1343884 -87.75327124 69.97807191 C-87.75062051 68.47678518 -87.75300268 66.97547908 -87.76100711 65.47421135 C-87.81667252 54.25247 -87.16004029 45.45697424 -79.20703125 37.03515625 C-73.75017783 32.09024643 -67.67460597 31.24573258 -60.57495117 31.26147461 C-58.86374336 31.26158791 -58.86374336 31.26158791 -57.1179657 31.26170349 C-55.28646721 31.26944542 -55.28646721 31.26944542 -53.41796875 31.27734375 C-52.15986893 31.2787587 -50.9017691 31.28017365 -49.60554504 31.28163147 C-46.27321471 31.28627427 -42.94095368 31.29524772 -39.60864258 31.30633545 C-36.20329383 31.31659497 -32.7979379 31.32113879 -29.39257812 31.32617188 C-22.72003302 31.3371917 -16.04752051 31.353923 -9.375 31.375 C-9.39071045 30.67415283 -9.4064209 29.97330566 -9.42260742 29.2512207 C-9.48512412 26.06339649 -9.52404381 22.87570149 -9.5625 19.6875 C-9.58763672 18.58470703 -9.61277344 17.48191406 -9.63867188 16.34570312 C-9.64833984 15.27900391 -9.65800781 14.21230469 -9.66796875 13.11328125 C-9.6836792 12.13399658 -9.69938965 11.15471191 -9.71557617 10.14575195 C-8.99664722 4.29691703 -5.9972862 0.09962269 0 0 Z M-68.375 52.375 C-68.375 65.575 -68.375 78.775 -68.375 92.375 C36.235 92.375 140.845 92.375 248.625 92.375 C251.33570065 69.97143312 251.33570065 69.97143312 245.625 50.375 C243.02954123 49.7951106 243.02954123 49.7951106 240.05200195 49.92089844 C238.91104568 49.92120056 237.77008942 49.92150269 236.59455872 49.92181396 C234.74757637 49.95278168 234.74757637 49.95278168 232.86328125 49.984375 C231.60235153 49.99003479 230.34142181 49.99569458 229.0422821 50.00152588 C225.69304732 50.02013944 222.34490283 50.05606434 218.99597168 50.1003418 C215.57748837 50.14129143 212.15889236 50.15953612 208.74023438 50.1796875 C202.03485451 50.22383789 195.32999021 50.29081358 188.625 50.375 C188.61098145 51.25236816 188.61098145 51.25236816 188.59667969 52.14746094 C188.54286721 54.8074858 188.45924551 57.46577222 188.375 60.125 C188.36082031 61.04539062 188.34664063 61.96578125 188.33203125 62.9140625 C188.08479276 69.73784483 188.08479276 69.73784483 185.76171875 72.95703125 C182.94576865 74.82575134 181.00546627 75.30601089 177.625 75.375 C175.29768444 74.23720128 173.45659286 73.20659286 171.625 71.375 C171.295 64.445 170.965 57.515 170.625 50.375 C117.495 50.375 64.365 50.375 9.625 50.375 C9.295 56.645 8.965 62.915 8.625 69.375 C6.625 73.375 6.625 73.375 4.375 74.6875 C1.0383137 75.52167158 -1.07402035 75.30788555 -4.375 74.375 C-6.90237004 72.45768479 -7.3466847 71.45994591 -8.375 68.375 C-8.51992123 66.96835074 -8.62128931 65.5568867 -8.69140625 64.14453125 C-8.73330078 63.34208984 -8.77519531 62.53964844 -8.81835938 61.71289062 C-8.85767578 60.87951172 -8.89699219 60.04613281 -8.9375 59.1875 C-8.98068359 58.34251953 -9.02386719 57.49753906 -9.06835938 56.62695312 C-9.17431518 54.54315567 -9.2751502 52.45909897 -9.375 50.375 C-16.7723076 50.32870581 -24.16958407 50.29314574 -31.56700706 50.27137566 C-35.00175459 50.2609283 -38.43640317 50.24675195 -41.87109375 50.22412109 C-45.81769638 50.19827937 -49.76425863 50.18853507 -53.7109375 50.1796875 C-55.56566177 50.16420364 -55.56566177 50.16420364 -57.45785522 50.14840698 C-58.59888702 50.14825592 -59.73991882 50.14810486 -60.91552734 50.14794922 C-62.42776382 50.14128738 -62.42776382 50.14128738 -63.97055054 50.13449097 C-66.55928264 50.13713773 -66.55928264 50.13713773 -68.375 52.375 Z M-68.375 110.375 C-68.436875 162.618125 -68.49875 214.86125 -68.5625 268.6875 C-68.58981201 285.20981689 -68.61712402 301.73213379 -68.64526367 318.75512695 C-68.65529428 333.50972654 -68.65529428 333.50972654 -68.66133118 348.264328 C-68.6641367 354.85839521 -68.67517448 361.45238678 -68.69172668 368.0464325 C-68.71076993 375.64403458 -68.71952026 383.24156374 -68.71533485 390.8391899 C-68.71352093 394.72898915 -68.71647512 398.61862523 -68.73264539 402.50839484 C-68.74982314 406.66560398 -68.74401451 410.8224543 -68.73576355 414.97969055 C-68.74450154 416.20403399 -68.75323954 417.42837744 -68.76224232 418.6898222 C-68.7532834 420.35565948 -68.7532834 420.35565948 -68.74414349 422.05515003 C-68.74528265 423.01698163 -68.74642181 423.97881323 -68.74759549 424.96979123 C-68.30861586 427.80352829 -67.65904399 428.69222473 -65.375 430.375 C-62.98857444 430.89037255 -62.98857444 430.89037255 -60.26252747 430.91072083 C-58.67550774 430.97326805 -58.67550774 430.97326805 -57.056427 431.03707886 C-55.89545502 431.0671402 -54.73448303 431.09720154 -53.53833008 431.12817383 C-51.70353844 431.19147636 -51.70353844 431.19147636 -49.8316803 431.25605774 C-38.52162122 431.62051598 -27.2050357 431.82117756 -15.89021778 431.96851063 C-7.53764413 432.07923645 0.80349746 432.27466156 9.15108794 432.58511716 C15.0356642 432.79647053 20.91716034 432.90590495 26.80537683 432.94331187 C30.31629958 432.96844354 33.81322493 433.0363148 37.31993675 433.21567726 C50.30329233 433.88699968 50.30329233 433.88699968 62.625 430.375 C69.38169764 424.11400945 73.15526718 415.99662764 76.96958351 407.73787498 C79.6457177 402.30147587 83.03324964 397.3750049 86.4375 392.375 C91.22263647 385.1188119 95.86297417 377.79970571 100.35498047 370.35913086 C105.64127756 361.63548156 111.18745522 353.0782388 116.69921875 344.49609375 C121.5716744 336.9084619 126.38395106 329.28345562 131.18945312 321.65332031 C133.66459576 317.72508374 136.14510169 313.80023535 138.625 309.875 C141.60284493 305.16096427 144.58015837 300.44659761 147.5546875 295.73046875 C153.48453993 286.33102182 159.438845 276.9475154 165.40917969 267.57373047 C170.67946637 259.2962118 175.92233903 251.00159707 181.15722656 242.70166016 C184.14598573 237.96398968 187.13828922 233.22855675 190.12988281 228.49267578 C192.60594327 224.57264894 195.0812335 220.65214081 197.5546875 216.73046875 C198.53639589 215.17443977 199.51816692 213.61845031 200.5 212.0625 C200.98549316 211.29301025 201.47098633 210.52352051 201.97119141 209.73071289 C204.730933 205.3607471 207.50097308 200.99755791 210.28125 196.640625 C211.2096167 195.18523315 211.2096167 195.18523315 212.15673828 193.70043945 C213.34660039 191.83621708 214.53759914 189.97271947 215.72998047 188.11010742 C219.4650891 182.25821861 223.08400536 176.34632452 226.625 170.375 C223.44918312 166.92697024 221.01809313 164.95503686 216.625 163.375 C211.66593397 170.30164979 207.03802804 177.37822308 202.5625 184.625 C201.24032181 186.75306316 199.91738837 188.88065725 198.59375 191.0078125 C197.93117188 192.07290039 197.26859375 193.13798828 196.5859375 194.23535156 C191.90871212 201.72403662 187.14466359 209.15786162 182.39404297 216.60009766 C180.54159366 219.50583032 178.69404357 222.41463072 176.84765625 225.32421875 C176.2244751 226.30567871 175.60129395 227.28713867 174.95922852 228.29833984 C173.77802487 230.15889674 172.59747208 232.01986709 171.41772461 233.88134766 C169.8275867 236.38410089 168.2293747 238.88135185 166.625 241.375 C166.07457031 242.23270996 165.52414062 243.09041992 164.95703125 243.97412109 C164.42464844 244.79090332 163.89226562 245.60768555 163.34375 246.44921875 C162.86873047 247.18100342 162.39371094 247.91278809 161.90429688 248.66674805 C160.625 250.375 160.625 250.375 158.625 251.375 C154.25137986 251.87012681 152.30544756 251.86723866 148.6875 249.25 C146.14727148 245.7090754 146.04365728 244.66609757 146.625 240.375 C148.12615498 237.10044992 150.01427322 234.1037595 151.9375 231.0625 C152.48293457 230.17804199 153.02836914 229.29358398 153.59033203 228.38232422 C157.87045328 221.4759057 162.26859019 214.64413461 166.71484375 207.84375 C170.03859828 202.7553631 173.3018702 197.62899068 176.5625 192.5 C177.151521 191.57429199 177.74054199 190.64858398 178.34741211 189.69482422 C181.2229052 185.17128379 184.08883434 180.64204933 186.9375 176.1015625 C204.13696237 148.68991935 204.13696237 148.68991935 212.625 146.375 C221.81127241 145.36997596 228.22814672 148.26764893 235.625 153.375 C236.285 153.375 236.945 153.375 237.625 153.375 C250.53981093 139.45182545 248.625 130.67221853 248.625 110.375 C144.015 110.375 39.405 110.375 -68.375 110.375 Z M261.625 149.375 C252.92793891 162.14433205 244.72248348 175.21865018 236.625 188.375 C236.04290771 189.24560059 235.46081543 190.11620117 234.86108398 191.01318359 C234.45317627 191.79258301 234.04526855 192.57198242 233.625 193.375 C234.9140407 197.24212209 236.35897596 197.73639225 239.796875 199.84375 C240.85390625 200.49730469 241.9109375 201.15085938 243 201.82421875 C244.11375 202.50097656 245.2275 203.17773438 246.375 203.875 C248.02242188 204.89013672 248.02242188 204.89013672 249.703125 205.92578125 C252.67124715 207.75204087 255.6448136 209.56850629 258.625 211.375 C259.52637695 211.94154297 260.42775391 212.50808594 261.35644531 213.09179688 C263.48074594 214.53911373 263.48074594 214.53911373 265.625 214.375 C267.12839729 212.40603947 267.12839729 212.40603947 268.64453125 209.828125 C269.249021 208.84650391 269.85351074 207.86488281 270.47631836 206.85351562 C271.1235083 205.78810547 271.77069824 204.72269531 272.4375 203.625 C273.78751043 201.43133574 275.13910231 199.23864403 276.4921875 197.046875 C277.17764648 195.93505859 277.86310547 194.82324219 278.56933594 193.67773438 C281.66748257 188.70009452 284.85553142 183.78300924 288.0625 178.875 C288.62364502 178.01551758 289.18479004 177.15603516 289.76293945 176.27050781 C291.04847259 174.30413554 292.33563822 172.33886307 293.625 170.375 C290.01454857 166.26256067 285.64963683 163.76677733 281 161 C279.79754639 160.27526489 279.79754639 160.27526489 278.57080078 159.53588867 C276.25863295 158.14367841 273.9422198 156.75877959 271.625 155.375 C270.5009375 154.69824219 269.376875 154.02148438 268.21875 153.32421875 C266.02375817 152.00280844 263.82631704 150.68583452 261.625 149.375 Z M222.625 210.375 C222.32432617 210.85106689 222.02365234 211.32713379 221.71386719 211.81762695 C221.28750977 212.49269287 220.86115234 213.16775879 220.421875 213.86328125 C219.94250488 214.62229736 219.46313477 215.38131348 218.96923828 216.16333008 C217.88953447 217.87283355 216.80978036 219.58230526 215.72998047 221.29174805 C213.03499007 225.55836222 210.34057308 229.82533383 207.6484375 234.09375 C201.73426508 243.46849095 195.79543529 252.8271655 189.84082031 262.17626953 C184.57053363 270.4537882 179.32766097 278.74840293 174.09277344 287.04833984 C171.60516643 290.99160245 169.11493586 294.93320768 166.625 298.875 C165.62498776 300.4583256 164.62498775 302.04165893 163.625 303.625 C161.625 306.79166667 159.625 309.95833333 157.625 313.125 C157.13016113 313.9085083 156.63532227 314.6920166 156.12548828 315.49926758 C155.12390965 317.08507325 154.12228192 318.67084791 153.12060547 320.2565918 C150.64435816 324.17684757 148.16892299 328.09761107 145.6953125 332.01953125 C139.76546007 341.41897818 133.811155 350.8024846 127.84082031 360.17626953 C124.0492804 366.13126671 120.26839347 372.09282914 116.5 378.0625 C116.01345947 378.83319824 115.52691895 379.60389648 115.02563477 380.39794922 C112.54736781 384.3250682 110.07159299 388.25374563 107.59765625 392.18359375 C101.01634601 402.6309223 94.35749814 413.02444676 87.625 423.375 C91.69485684 427.86812196 96.1800943 430.79430011 101.375 433.875 C102.13554687 434.33519531 102.89609375 434.79539062 103.6796875 435.26953125 C108.92787509 438.42733904 114.25360646 441.43238274 119.625 444.375 C127.56654401 432.22490163 135.41625921 420.02284843 143.14111328 407.73388672 C145.63003859 403.77732266 148.12796154 399.82644672 150.625 395.875 C153.60289965 391.16099887 156.58015839 386.44659756 159.5546875 381.73046875 C165.48453993 372.33102182 171.438845 362.9475154 177.40917969 353.57373047 C182.67946637 345.2962118 187.92233903 337.00159707 193.15722656 328.70166016 C196.14598573 323.96398968 199.13828922 319.22855675 202.12988281 314.49267578 C204.60594327 310.57264894 207.0812335 306.65214081 209.5546875 302.73046875 C214.89383269 294.26735563 220.24944864 285.81504239 225.625 277.375 C235.3620463 262.08556667 245.03504083 246.75712477 254.625 231.375 C250.88229994 227.09909335 246.21715873 224.40303574 241.4375 221.4375 C240.62474609 220.92509766 239.81199219 220.41269531 238.97460938 219.88476562 C233.62028633 216.53245677 228.17781735 213.38642868 222.625 210.375 Z M247.625 276.375 C246.74596938 277.58311446 245.91601099 278.82693896 245.10546875 280.08203125 C244.5839624 280.88648682 244.06245605 281.69094238 243.52514648 282.51977539 C242.67738647 283.84029907 242.67738647 283.84029907 241.8125 285.1875 C241.22863525 286.09169678 240.64477051 286.99589355 240.04321289 287.92749023 C234.67644247 296.25543727 229.38146309 304.62831869 224.10888672 313.01611328 C221.61996141 316.97267734 219.12203846 320.92355328 216.625 324.875 C213.64710035 329.58900113 210.66984161 334.30340244 207.6953125 339.01953125 C201.76546007 348.41897818 195.811155 357.8024846 189.84082031 367.17626953 C184.5733676 375.44933715 179.3334998 383.73959791 174.1015625 392.03515625 C172.58993281 394.43056943 171.07647795 396.82482039 169.5625 399.21875 C167.06678051 403.16522038 164.57360294 407.11328192 162.08300781 411.06298828 C161.09848539 412.62417839 160.11344661 414.18504296 159.12792969 415.74560547 C157.70792173 417.99559167 156.29100658 420.24749403 154.875 422.5 C154.22893799 423.52226685 154.22893799 423.52226685 153.56982422 424.56518555 C151.53126591 427.27937336 151.53126591 427.27937336 150.625 430.375 C162.95958505 430.46757354 175.29408782 430.53870078 187.62894917 430.58224869 C193.3561916 430.60314677 199.08319684 430.6315052 204.81030273 430.67675781 C210.33458483 430.72013595 215.8586384 430.74412036 221.38307762 430.75450897 C223.49348742 430.76191477 225.60388434 430.7763761 227.71419716 430.79792023 C230.66431592 430.8268472 233.61348356 430.83096046 236.5637207 430.82910156 C237.8800222 430.85067322 237.8800222 430.85067322 239.22291565 430.87268066 C243.69601213 430.96633493 243.69601213 430.96633493 247.35041046 428.73091125 C248.98378992 425.71182398 248.99436555 423.62873214 248.98576355 420.19940186 C248.98988754 418.93178009 248.99401154 417.66415833 248.9982605 416.35812378 C248.98764373 414.95586945 248.97673931 413.55361727 248.96557617 412.15136719 C248.96472984 410.67296364 248.96520516 409.19455882 248.96690369 407.71615601 C248.96776484 403.70401371 248.95011976 399.69214019 248.92918181 395.68006039 C248.91043499 391.48669228 248.90866615 387.2933181 248.90510559 383.09991455 C248.89577925 375.15972843 248.87115752 367.21966615 248.84105712 359.27953458 C248.80753142 350.23972802 248.79103171 341.19991556 248.77597082 332.16006231 C248.74460847 313.56497132 248.69183654 294.96999561 248.625 276.375 C248.295 276.375 247.965 276.375 247.625 276.375 Z M77.625 441.375 C76.18126848 446.71211582 75.22180476 451.85708596 74.7734375 457.375 C74.70967926 458.0961499 74.64592102 458.8172998 74.58023071 459.56030273 C74.38081044 461.83139412 74.1902485 464.10312387 74 466.375 C73.8651722 467.92843664 73.72976068 469.48182273 73.59375 471.03515625 C73.26409266 474.81455429 72.94236945 478.59455109 72.625 482.375 C75.69788013 481.19569814 78.57137718 479.93836435 81.41015625 478.2734375 C82.10036865 477.86939697 82.79058105 477.46535645 83.50170898 477.04907227 C84.58367554 476.40603149 84.58367554 476.40603149 85.6875 475.75 C86.43394775 475.307771 87.18039551 474.86554199 87.94946289 474.40991211 C99.50734205 468.22322877 99.50734205 468.22322877 108.625 459.375 C107.98997559 458.9718457 107.35495117 458.56869141 106.70068359 458.15332031 C103.80001506 456.31123973 100.90000249 454.46812895 98 452.625 C96.50146484 451.67367188 96.50146484 451.67367188 94.97265625 450.703125 C93.99941406 450.084375 93.02617187 449.465625 92.0234375 448.828125 C91.08209961 448.23064453 90.14076172 447.63316406 89.17089844 447.01757812 C87.11492611 445.69109348 85.10413508 444.32627655 83.1015625 442.921875 C80.68758621 441.11012079 80.68758621 441.11012079 77.625 441.375 Z " fill="#000000" transform="translate(142.375,-0.375)"/>
<path d="M0 0 C0.66102219 -0.00671722 1.32204437 -0.01343445 2.00309753 -0.02035522 C4.17222768 -0.03923761 6.34104686 -0.0432543 8.51025391 -0.04541016 C10.02951175 -0.05184455 11.54876838 -0.05857338 13.06802368 -0.06558228 C16.24703848 -0.07753039 19.42594481 -0.08126562 22.60498047 -0.08007812 C26.6623392 -0.079875 30.71899703 -0.107181 34.7761898 -0.14162254 C37.91278223 -0.1639475 41.0492074 -0.16791398 44.18587112 -0.16685867 C45.68088828 -0.16920607 47.17591065 -0.17798071 48.67084885 -0.19352341 C58.41353892 -0.28534195 65.34770416 0.0557609 72.92431641 6.79052734 C74.00712891 8.02802734 74.00712891 8.02802734 75.11181641 9.29052734 C75.66869141 9.88865234 76.22556641 10.48677734 76.79931641 11.10302734 C81.19341506 18.4265251 80.41832662 27.31144925 80.41259766 35.53662109 C80.41649315 36.91610338 80.42082956 38.29558449 80.42558289 39.67506409 C80.4330103 42.55546979 80.43277906 45.43575284 80.42749023 48.31616211 C80.42169701 51.98540497 80.43863951 55.65414281 80.46183491 59.32330227 C80.47665105 62.16912206 80.47743337 65.01482237 80.47432518 67.8606739 C80.47507974 69.8640427 80.48888423 71.86739312 80.50300598 73.87071228 C80.45941799 82.5116702 79.97003501 90.85384114 73.98681641 97.60302734 C73.46861328 98.21791016 72.95041016 98.83279297 72.41650391 99.46630859 C64.31242229 105.88089523 55.62356225 105.89974266 45.70947266 105.85693359 C44.22171137 105.86218009 42.7339534 105.86846029 41.24620056 105.87571716 C38.14045468 105.88607691 35.03516823 105.88162467 31.92944336 105.86694336 C27.97412946 105.84976446 24.02026965 105.87326103 20.06511784 105.90843296 C16.99615586 105.9305266 13.92753543 105.92893687 10.8585186 105.92066765 C9.40144697 105.91985459 7.9443486 105.92659286 6.48735237 105.94143867 C-3.11899465 106.02433565 -11.50385219 105.34716159 -18.81968689 98.47657776 C-23.69399264 93.2369587 -25.13420627 88.48979616 -25.17871094 81.33227539 C-25.18542816 80.65189209 -25.19214539 79.97150879 -25.19906616 79.27050781 C-25.21799508 77.03101202 -25.22196789 74.79181681 -25.22412109 72.55224609 C-25.23055323 70.98671854 -25.2372819 69.42119218 -25.24429321 67.85566711 C-25.25625367 64.57651993 -25.25997538 61.29747799 -25.25878906 58.01831055 C-25.25858609 53.83201617 -25.28587059 49.64640231 -25.32033348 45.46026897 C-25.34265631 42.22673999 -25.34662495 38.99337329 -25.34556961 35.75977516 C-25.34791815 34.21731029 -25.35669935 32.67484044 -25.37223434 31.13245201 C-25.45818678 21.71619956 -25.36599415 14.49348941 -18.95849609 7.04833984 C-18.31654297 6.50951172 -17.67458984 5.97068359 -17.01318359 5.41552734 C-16.37638672 4.86123047 -15.73958984 4.30693359 -15.08349609 3.73583984 C-10.31217709 0.59458 -5.61477327 0.03602111 0 0 Z M-6.88818359 22.29052734 C-7.49152132 25.11900196 -7.49152132 25.11900196 -7.40576172 28.28076172 C-7.41837036 29.4888147 -7.430979 30.69686768 -7.44396973 31.94152832 C-7.4358728 33.2426355 -7.42777588 34.54374268 -7.41943359 35.88427734 C-7.42212943 37.23661579 -7.42601263 38.58895235 -7.43103027 39.94128418 C-7.43692118 42.77256768 -7.42837652 45.60334567 -7.40966797 48.43457031 C-7.38687742 52.05979398 -7.40000286 55.68383314 -7.42395782 59.30901337 C-7.43842755 62.10065602 -7.43380471 64.89201886 -7.42344666 67.68367004 C-7.41948904 69.66896333 -7.43161526 71.65426758 -7.44396973 73.63952637 C-7.43136108 74.84757935 -7.41875244 76.05563232 -7.40576172 77.30029297 C-7.40257935 78.36300415 -7.39939697 79.42571533 -7.39611816 80.52062988 C-6.74769524 84.05664638 -5.80754041 85.2200438 -2.88818359 87.29052734 C-0.10008434 87.88689184 -0.10008434 87.88689184 3.01025391 87.79223633 C4.19828613 87.80161728 5.38631836 87.81099823 6.61035156 87.82066345 C7.88958496 87.80942947 9.16881836 87.7981955 10.48681641 87.78662109 C11.80343262 87.78807632 13.12004883 87.78953156 14.4765625 87.79103088 C17.26078318 87.79241392 20.04448811 87.77987398 22.82861328 87.75708008 C26.39315788 87.72869476 29.95684586 87.73143355 33.52145386 87.74417019 C36.92666413 87.75280701 40.33162058 87.73767822 43.73681641 87.72412109 C45.0160498 87.72705673 46.2952832 87.72999237 47.61328125 87.73301697 C48.80131348 87.72033279 49.9893457 87.70764862 51.21337891 87.69458008 C52.2583252 87.68917709 53.30327148 87.68377411 54.37988281 87.6782074 C57.58552956 87.22330421 58.9461184 86.70461164 61.11181641 84.29052734 C61.7202748 81.47348394 61.7202748 81.47348394 61.62939453 78.21435547 C61.64200317 76.96295776 61.65461182 75.71156006 61.66760254 74.42224121 C61.66044292 73.0554142 61.65223899 71.68859232 61.64306641 70.32177734 C61.64576098 68.92077363 61.64964311 67.51977173 61.65466309 66.11877441 C61.66055994 63.18316841 61.65199003 60.24804938 61.63330078 57.3125 C61.61051004 53.54928071 61.62363227 49.78720239 61.64759064 46.02402496 C61.66204419 43.13119914 61.65744491 40.2386439 61.64707947 37.34580994 C61.6444109 35.95832687 61.64768659 34.57081925 61.65699768 33.18336487 C61.6671538 31.24448109 61.64892932 29.30551119 61.62939453 27.36669922 C61.62621216 26.26322144 61.62302979 25.15974365 61.61975098 24.02282715 C61.34522828 21.22706588 61.34522828 21.22706588 59.44812012 19.4360199 C56.53631433 18.00835797 54.45558701 17.90323873 51.21337891 17.88647461 C50.02534668 17.87379044 48.83731445 17.86110626 47.61328125 17.84803772 C45.69443115 17.85244118 45.69443115 17.85244118 43.73681641 17.85693359 C42.4202002 17.85169174 41.10358398 17.84644989 39.74707031 17.84104919 C36.96295579 17.83212405 34.17912822 17.83453457 31.39501953 17.84448242 C27.83036615 17.85597933 24.26670234 17.83574838 20.70217896 17.80656528 C17.29700552 17.78379153 13.89206421 17.79066984 10.48681641 17.79443359 C9.20758301 17.78319962 7.92834961 17.77196564 6.61035156 17.76039124 C4.82830322 17.77446266 4.82830322 17.77446266 3.01025391 17.78881836 C1.96530762 17.78898453 0.92036133 17.7891507 -0.15625 17.7893219 C-3.67213079 18.4343517 -4.82778059 19.38880067 -6.88818359 22.29052734 Z " fill="#000000" transform="translate(126.88818359375,279.70947265625)"/>
<path d="M0 0 C1.44913886 -0.00202487 2.89827671 -0.00493973 4.34741211 -0.00869751 C7.37330907 -0.01310149 10.39893897 -0.00675252 13.42480469 0.00732422 C17.28473677 0.02441527 21.14404286 0.01456365 25.00395203 -0.00339317 C27.99300776 -0.01428351 30.98191742 -0.01076078 33.97097778 -0.0030098 C35.39340287 -0.00102225 36.81584164 -0.0034157 38.23825073 -0.01044846 C49.35384067 -0.05335872 57.01770985 0.78993197 65.3671875 8.56640625 C70.51320099 14.12742083 71.17846206 20.42974825 71.22363281 27.69824219 C71.23324036 28.95014343 71.2428479 30.20204468 71.25274658 31.49188232 C71.2575959 32.85135718 71.2618744 34.21083417 71.265625 35.5703125 C71.26986607 36.60571041 71.26986607 36.60571041 71.27419281 37.66202545 C71.28914985 41.31635415 71.29840076 44.97064374 71.30273438 48.625 C71.30820783 52.37836778 71.33222166 56.13137076 71.36070633 59.88462448 C71.37943625 62.78962206 71.38454382 65.69453366 71.38607025 68.59958649 C71.389075 69.98212931 71.39702891 71.36467142 71.41025543 72.74715424 C71.4935335 82.12220651 71.51598406 91.81303406 64.66378784 99.06202698 C56.36176522 105.99076902 47.36662493 106.12903919 37.0546875 106.02734375 C35.51872591 106.02817429 33.98276443 106.03064065 32.44680786 106.03465271 C29.24437368 106.03749543 26.04264484 106.02295768 22.84033203 105.99536133 C18.75383315 105.96122225 14.66858898 105.96733005 10.58202934 105.9860239 C7.4162058 105.99663392 4.25067003 105.98762103 1.0848732 105.97263908 C-0.42127501 105.96748997 -1.92745367 105.96789895 -3.43359756 105.97418404 C-12.70142712 105.99835653 -19.90044705 105.81244035 -27.1796875 99.43359375 C-27.71851562 98.78261719 -28.25734375 98.13164062 -28.8125 97.4609375 C-29.36679688 96.81253906 -29.92109375 96.16414063 -30.4921875 95.49609375 C-33.65339757 90.90806724 -34.19370852 86.95955389 -34.22802734 81.44018555 C-34.23474457 80.75980225 -34.24146179 80.07941895 -34.24838257 79.37841797 C-34.26731148 77.13892218 -34.2712843 74.89972697 -34.2734375 72.66015625 C-34.27986963 71.0946287 -34.2865983 69.52910234 -34.29360962 67.96357727 C-34.30557007 64.68443009 -34.30929178 61.40538815 -34.30810547 58.1262207 C-34.3079025 53.93992632 -34.335187 49.75431246 -34.36964989 45.56817913 C-34.39197272 42.33465015 -34.39594135 39.10128344 -34.39488602 35.86768532 C-34.39723456 34.32522045 -34.40601576 32.78275059 -34.42155075 31.24036217 C-34.50592559 21.99693836 -34.42103627 14.83205646 -28.296875 7.41015625 C-27.50023438 6.75466797 -27.50023438 6.75466797 -26.6875 6.0859375 C-26.16671875 5.63605469 -25.6459375 5.18617188 -25.109375 4.72265625 C-17.01979898 -0.20965719 -9.23446205 -0.04565756 0 0 Z M-14.9375 20.3984375 C-16.28965228 23.10274205 -16.08710505 25.24151594 -16.11450195 28.26928711 C-16.12733719 29.50073959 -16.14017242 30.73219208 -16.15339661 32.0009613 C-16.1615625 33.35089721 -16.16900652 34.70083765 -16.17578125 36.05078125 C-16.17985678 36.72922152 -16.1839323 37.40766178 -16.18813133 38.10666084 C-16.20898509 41.69569723 -16.22329128 45.28469543 -16.23266602 48.8737793 C-16.24374559 52.5842155 -16.2781641 56.29405446 -16.31783772 60.00427914 C-16.34395151 62.85499708 -16.35235297 65.70557135 -16.35594749 68.55639839 C-16.36082501 69.92438364 -16.3724722 71.29236197 -16.39098549 72.66023064 C-16.41526669 74.57273864 -16.41200301 76.48553659 -16.4074707 78.39819336 C-16.41333694 79.48692245 -16.41920319 80.57565155 -16.42524719 81.69737244 C-16.16881833 84.46444707 -16.16881833 84.46444707 -14.2835083 86.24919128 C-11.33369533 87.69422513 -9.21555208 87.77926597 -5.93139648 87.78662109 C-4.72011581 87.79607758 -3.50883514 87.80553406 -2.260849 87.8152771 C-0.95660477 87.80920441 0.34763947 87.80313171 1.69140625 87.796875 C3.04613909 87.79889666 4.40087086 87.80180887 5.75559998 87.80557251 C8.59099721 87.80999008 11.42611044 87.80358247 14.26147461 87.78955078 C17.89558492 87.77244238 21.52903134 87.78231337 25.16311741 87.80026817 C27.95896917 87.81110768 30.75466344 87.8076593 33.55051994 87.7998848 C35.54194953 87.79691151 37.53338525 87.80601926 39.52479553 87.8152771 C40.73292404 87.80582062 41.94105255 87.79636414 43.18579102 87.78662109 C44.25072281 87.78423431 45.3156546 87.78184753 46.41285706 87.77938843 C49.04122117 87.58256697 49.04122117 87.58256697 50.90354919 86.25393677 C52.57815424 83.5728666 52.45839295 81.47166391 52.48242188 78.32226562 C52.49833374 77.07086792 52.51424561 75.81947021 52.53063965 74.53015137 C52.53190674 73.16333065 52.53208387 71.79650855 52.53125 70.4296875 C52.53835015 69.02868341 52.54604893 67.62768223 52.55432129 66.22668457 C52.56776817 63.29117751 52.56933375 60.3559394 52.56347656 57.42041016 C52.5575752 53.65707278 52.58818625 49.89502322 52.62859344 46.13193512 C52.65443088 43.23912596 52.65735168 40.34662873 52.65370178 37.45372009 C52.65539631 36.06620543 52.66507103 34.67867686 52.68284607 33.29127502 C52.70495435 31.35251178 52.6921516 29.41344507 52.67773438 27.47460938 C52.67978882 26.37113159 52.68184326 25.26765381 52.68395996 24.1307373 C52.3119764 21.23707244 52.3119764 21.23707244 49.88832092 19.54194641 C46.77739864 18.28306715 44.58208718 18.02403081 41.23413086 18.02612305 C40.08621567 18.01989426 38.93830048 18.01366547 37.75559998 18.00724792 C36.52527542 18.01645767 35.29495087 18.02566742 34.02734375 18.03515625 C32.75653458 18.03465775 31.4857254 18.03415924 30.17640686 18.03364563 C27.49221323 18.03598445 24.80881166 18.04411767 22.12475586 18.06225586 C18.68929136 18.08496547 15.25426647 18.08548063 11.81874752 18.07873821 C8.53407992 18.07458907 5.24949004 18.08657219 1.96484375 18.09765625 C0.73249496 18.09674484 -0.49985382 18.09583344 -1.76954651 18.09489441 C-2.91430954 18.10442642 -4.05907257 18.11395844 -5.23852539 18.1237793 C-6.74812584 18.13069038 -6.74812584 18.13069038 -8.28822327 18.13774109 C-11.01505131 18.40606877 -12.65030896 18.91346606 -14.9375 20.3984375 Z " fill="#000000" transform="translate(135.9375,140.6015625)"/>
<path d="M0 0 C3.21724292 2.37796216 4.67691997 4.12578345 6.0625 7.875 C5.93181872 14.40906418 0.89798968 19.60237919 -3.25 24.3125 C-4.22518918 25.43903986 -5.19913576 26.5666565 -6.171875 27.6953125 C-6.64947266 28.24864258 -7.12707031 28.80197266 -7.61914062 29.37207031 C-10.29427523 32.52585347 -12.8159924 35.80205795 -15.34375 39.07421875 C-17.89461283 42.04019841 -19.70346748 42.94797675 -23.5625 43.625 C-29.72475512 43.47801043 -33.66523257 38.923889 -38 35 C-38.78503906 34.33355469 -39.57007813 33.66710937 -40.37890625 32.98046875 C-45.82260886 28.35478227 -45.82260886 28.35478227 -47 26 C-47.58394161 18.75912409 -47.58394161 18.75912409 -45.125 15.5625 C-41.54545832 12.93048406 -39.46575295 12.35043594 -35 13 C-31.78975045 15.09477948 -28.88800401 17.48422762 -26 20 C-21.39613695 15.54080547 -17.30819351 10.73155403 -13.19726562 5.8203125 C-8.81277312 0.63613268 -6.91800672 -0.70352611 0 0 Z " fill="#000000" transform="translate(175,171)"/>
</svg>
