<?xml version="1.0" encoding="UTF-8"?>
<svg version="1.1" xmlns="http://www.w3.org/2000/svg" width="512" height="512">
<path d="M0 0 C1.15869095 0.00081573 1.15869095 0.00081573 2.34078979 0.00164795 C14.62451832 0.0413564 26.15616142 0.89105017 38 4.375 C38.75974121 4.58930664 39.51948242 4.80361328 40.30224609 5.02441406 C77.55125251 15.72931572 109.01769537 41.21055867 127.78710938 75.04467773 C139.69052696 97.45506768 145.00974002 121.0171993 145.23828125 146.30859375 C145.24718384 147.24726791 145.25608643 148.18594208 145.26525879 149.15306091 C145.29472102 153.02069855 145.31472435 156.88786065 145.30541992 160.75561523 C144.88128895 174.71338443 144.88128895 174.71338443 149.80224609 187.44506836 C154.45542929 194.9427066 153.632633 205.16548562 151.75 213.375 C150.88300096 216.92006273 149.77255763 219.80521216 147.96472168 222.9420166 C145.52553207 227.78737925 145.45058474 232.08051719 145.51757812 237.42773438 C145.51170937 238.88787712 145.51170937 238.88787712 145.50572205 240.3775177 C145.49977072 242.47870744 145.50287405 244.57993863 145.5141449 246.68110657 C145.53147044 250.01111924 145.52386427 253.34026869 145.5098877 256.67028809 C145.48459483 263.73858482 145.4900458 270.80667643 145.5 277.875 C145.51153975 286.06919397 145.51032888 294.26296646 145.47593689 302.45710754 C145.468861 305.72990722 145.48549646 309.00203374 145.50305176 312.27478027 C145.4973422 314.29061237 145.49052409 316.30644173 145.48242188 318.32226562 C145.49373642 319.22535965 145.50505096 320.12845367 145.51670837 321.05891418 C145.46058471 326.9200663 144.41789362 331.52103147 141 336.375 C135.06448952 341.19760226 130.35005046 341.52356245 122.92675781 341.48852539 C121.71156212 341.48874443 121.71156212 341.48874443 120.47181702 341.4889679 C117.79889227 341.48827224 115.12603755 341.48049606 112.453125 341.47265625 C110.59796181 341.47079084 108.74279813 341.46936752 106.88763428 341.46836853 C102.00830726 341.46455305 97.12901007 341.45473102 92.24969482 341.44366455 C87.2693319 341.43342961 82.28896416 341.42886644 77.30859375 341.42382812 C67.5390494 341.4131079 57.76952718 341.39604309 48 341.375 C48 342.695 48 344.015 48 345.375 C48.60376968 345.47346725 49.20753937 345.57193451 49.8296051 345.67338562 C58.45548891 347.15481109 66.91483404 349.22183399 75.40234375 351.33203125 C76.97212562 351.72078632 78.54191437 352.10951361 80.11170959 352.49821472 C83.38592448 353.31006144 86.65935311 354.12500047 89.93237305 354.94165039 C94.09322066 355.97914488 98.25692923 357.00462508 102.42145443 358.02724171 C105.66016246 358.82473631 108.89668377 359.63084337 112.13269234 360.43921471 C113.66546284 360.82061879 115.19899966 361.19895872 116.73335075 361.57395363 C134.66704021 365.96456172 151.7883058 371.81375907 162.1875 388.0625 C167.94849684 398.18649177 172.88127657 412.53260518 171 424.375 C169.5 426.9375 169.5 426.9375 167 428.375 C164.19103198 428.97363253 161.7557254 429.24154646 159 428.375 C154.57699078 424.30032301 154.0504574 419.90544965 153.125 414.25 C151.26254847 404.36931347 148.5082554 395.00565323 140.05482483 388.74443054 C132.84488483 383.93939222 125.20302961 381.30665319 116.84765625 379.26171875 C115.82570663 379.00244095 114.80375702 378.74316315 113.75083923 378.47602844 C111.61186282 377.93556295 109.47149899 377.4005609 107.32983398 376.87084961 C104.0442514 376.05798523 100.76314828 375.22871039 97.48242188 374.39648438 C95.39607139 373.87144896 93.30949071 373.34732723 91.22265625 372.82421875 C90.24144302 372.57741867 89.2602298 372.33061859 88.24928284 372.07633972 C87.340811 371.85222916 86.43233917 371.62811859 85.49633789 371.3972168 C84.69821182 371.19911911 83.90008575 371.00102142 83.07777405 370.79692078 C80.86336379 370.27549882 80.86336379 370.27549882 78 370.375 C75.93463004 372.48795335 75.93463004 372.48795335 73.875 375.25 C70.85384149 379.0728899 67.79213089 382.78253436 64.5 386.375 C60.67829137 390.57229034 57.08525811 394.91210231 53.515625 399.32421875 C50.02597752 403.55622913 46.41946821 407.68238947 42.80664062 411.80932617 C39.50966308 415.5879987 36.34803316 419.43204871 33.25 423.375 C26.86510608 431.23063732 18.22918 438.44698702 8 440.375 C-3.47143011 441.2792794 -13.04715919 440.56881372 -22.609375 433.42578125 C-31.5361126 425.70498491 -39.12655735 416.55006169 -46.51953125 407.390625 C-49.44968289 403.82829891 -52.46760243 400.35026825 -55.5 396.875 C-60.09856694 391.60249942 -64.58493568 386.26515798 -68.98828125 380.828125 C-71.90735976 377.26854965 -74.93765904 373.81151767 -78 370.375 C-88.83150125 372.66165026 -99.61221548 375.17619834 -110.36767578 377.79589844 C-111.77518216 378.13689723 -113.18370342 378.47373727 -114.59326172 378.80615234 C-128.22264549 382.02846575 -139.41911763 385.79366055 -147.5703125 397.66796875 C-152.06675987 406.18173385 -153.48787042 415.86623445 -155.35546875 425.21484375 C-155.66484375 426.74748618 -155.9744436 428.28008325 -156.28425598 429.81263733 C-156.92940076 433.01159647 -157.57002913 436.21142097 -158.20776367 439.41186523 C-159.02101174 443.4899021 -159.84827436 447.56495303 -160.67931652 451.63939571 C-161.32174392 454.79956277 -161.95523017 457.96147456 -162.58626747 461.12393379 C-162.88740664 462.62626914 -163.19156739 464.12800242 -163.49895287 465.62907219 C-166.92011261 479.20361155 -166.92011261 479.20361155 -164.4375 492.375 C-158.7676124 497.02721546 -151.69195702 496.70176539 -144.69140625 496.7890625 C-143.72468491 496.80842865 -142.75796356 496.8277948 -141.76194763 496.8477478 C-138.69555287 496.90719191 -135.62911984 496.95378769 -132.5625 497 C-130.47459364 497.03821217 -128.3867025 497.07726576 -126.29882812 497.1171875 C-121.19934338 497.21286438 -116.09978489 497.29702455 -111 497.375 C-111.01571045 496.31063721 -111.0314209 495.24627441 -111.04760742 494.1496582 C-111.10203054 490.18944914 -111.13639493 486.22927296 -111.16479492 482.26879883 C-111.1798534 480.55682816 -111.20030455 478.84489589 -111.22631836 477.13305664 C-111.2628319 474.66803495 -111.27975562 472.20352465 -111.29296875 469.73828125 C-111.30845261 468.97663162 -111.32393646 468.21498199 -111.33988953 467.43025208 C-111.34131672 462.893017 -110.83257569 459.97113583 -108 456.375 C-104.90826248 454.82913124 -102.40570448 455.08140479 -99 455.375 C-96.79785156 456.85058594 -96.79785156 456.85058594 -95 459.375 C-94.65109914 462.40405977 -94.53245244 465.05803287 -94.609375 468.078125 C-94.61786469 469.33480988 -94.61786469 469.33480988 -94.62652588 470.61688232 C-94.64887671 473.28684166 -94.69906902 475.95544787 -94.75 478.625 C-94.77006675 480.43748059 -94.78831722 482.24998226 -94.8046875 484.0625 C-94.84873706 488.50051959 -94.91775434 492.93753056 -95 497.375 C-94.1121582 497.35405273 -93.22431641 497.33310547 -92.30957031 497.31152344 C-89.00705545 497.24324323 -85.7052933 497.1931513 -82.40234375 497.15527344 C-80.97448879 497.13519018 -79.54671575 497.10791748 -78.11914062 497.07324219 C-76.06359632 497.02457331 -74.00914145 497.00200033 -71.953125 496.984375 C-70.71723633 496.96342773 -69.48134766 496.94248047 -68.20800781 496.92089844 C-65 497.375 -65 497.375 -62.59667969 499.18066406 C-60.26869377 502.38004288 -60.44921544 504.5195081 -61 508.375 C-62.45053101 510.56040955 -62.45053101 510.56040955 -65 512.375 C-68.09393952 512.97550688 -71.14775512 512.93159537 -74.29150391 512.90844727 C-75.231875 512.91706284 -76.17224609 512.92567841 -77.14111328 512.93455505 C-80.25320907 512.95727478 -83.36440813 512.95046156 -86.4765625 512.94140625 C-88.64407621 512.94664158 -90.81158763 512.95291773 -92.97909546 512.96018982 C-97.52702533 512.97060698 -102.07464263 512.96601716 -106.62255859 512.95141602 C-112.43310568 512.93428323 -118.24265882 512.95764894 -124.05309486 512.99290562 C-128.53317748 513.01494413 -133.01302504 513.01342152 -137.49314499 513.0051403 C-139.63402771 513.00432322 -141.77492812 513.01113985 -143.91576004 513.02591133 C-166.8292581 513.15969611 -166.8292581 513.15969611 -175.10610962 505.40065002 C-182.27108676 497.9647073 -183.39063134 491.70786749 -183.22763062 481.65609741 C-182.94688681 474.28980069 -181.37258862 467.12706552 -179.89453125 459.92578125 C-179.56930928 458.29462732 -179.24500276 456.66329064 -178.92155457 455.03178406 C-178.24558617 451.63896522 -177.55960056 448.24838095 -176.8659668 444.85913086 C-175.98469809 440.54957405 -175.12765255 436.23562454 -174.27792835 431.91975117 C-173.61366897 428.55896233 -172.93719915 425.20071877 -172.25711632 421.84309959 C-171.93667709 420.25444631 -171.61972784 418.66508435 -171.30658913 417.07497597 C-167.8387538 399.5472591 -162.35508187 384.77713658 -147.98046875 373.2265625 C-137.69235315 366.83525608 -126.49344347 364.17014349 -114.875 361.29296875 C-113.0368236 360.8301007 -111.19885482 360.36640743 -109.36108398 359.90193176 C-105.53346726 358.9367891 -101.70423807 357.97845311 -97.87353516 357.02563477 C-92.96055981 355.80350669 -88.05079531 354.56903221 -83.14202881 353.33011913 C-79.35795092 352.375618 -75.57287441 351.42513373 -71.78741455 350.47612953 C-69.97551515 350.02186993 -68.1637871 349.56692629 -66.35223389 349.11128807 C-63.8307885 348.47825413 -61.3081908 347.85005447 -58.78515625 347.22338867 C-58.03711227 347.03487839 -57.2890683 346.8463681 -56.51835632 346.65214539 C-53.59814522 345.93136049 -51.02090432 345.375 -48 345.375 C-48 344.055 -48 342.735 -48 341.375 C-49.4767218 341.38499275 -49.4767218 341.38499275 -50.98327637 341.39518738 C-60.28135189 341.45612054 -69.57938666 341.50103113 -78.87761688 341.53043652 C-83.6574285 341.54606257 -88.43707834 341.56724475 -93.21679688 341.60131836 C-97.8333545 341.6340212 -102.44975695 341.65187602 -107.06642151 341.65963173 C-108.82380107 341.66515567 -110.58117258 341.67594249 -112.33848572 341.69219017 C-114.80852313 341.71411002 -117.27792716 341.71696091 -119.74804688 341.71557617 C-120.82699219 341.73175491 -120.82699219 341.73175491 -121.92773438 341.7482605 C-127.80325738 341.71284233 -133.35219578 340.53209147 -138.0234375 336.7265625 C-138.69246094 335.87191406 -138.69246094 335.87191406 -139.375 335 C-139.83648437 334.43539063 -140.29796875 333.87078125 -140.7734375 333.2890625 C-144.2359669 327.88575228 -144.27929998 323.1118959 -144.23950195 316.87817383 C-144.24151611 315.92790314 -144.24353027 314.97763245 -144.24560547 313.99856567 C-144.24914626 311.93824873 -144.24838969 309.87792091 -144.24382973 307.81760597 C-144.2382271 304.5504522 -144.247412 301.28365222 -144.2610321 298.01652527 C-144.29811384 288.72836764 -144.3167234 279.44032922 -144.30541992 270.15209961 C-144.29954987 264.46623326 -144.3179239 258.78086358 -144.35130882 253.0950985 C-144.35923547 250.93470333 -144.35802322 248.77425364 -144.34728432 246.61387062 C-144.33286436 243.58163652 -144.34932553 240.55094889 -144.37231445 237.51879883 C-144.36054672 236.6368837 -144.34877899 235.75496857 -144.33665466 234.84632874 C-144.42413362 228.92234742 -145.86875352 224.84547792 -148.80014324 219.70026684 C-153.71815178 210.16939403 -152.4859334 199.36732692 -150.046875 189.3671875 C-149 186.375 -149 186.375 -146.96606445 183.28613281 C-144.4070042 178.85741042 -144.44838418 174.82162075 -144.49609375 169.8046875 C-144.48667252 168.8877713 -144.47725128 167.9708551 -144.46754456 167.02615356 C-144.43902429 164.10054176 -144.43580602 161.17573881 -144.4375 158.25 C-144.41424532 139.98422288 -143.74475053 121.64406685 -138.5 104 C-138.1292334 102.73627563 -138.1292334 102.73627563 -137.75097656 101.44702148 C-132.80448026 85.56608827 -124.48931811 64.16645449 -111 53.375 C-107.90655222 52.98218123 -105.95424795 52.74491895 -103 53.375 C-100.09727201 55.84231879 -99.13937337 57.35292865 -98.625 61.125 C-99.1119394 65.3451415 -101.04557045 67.92802213 -103.5 71.25 C-108.87802593 78.92031496 -113.13720974 86.85091565 -117 95.375 C-117.72509766 96.97408203 -117.72509766 96.97408203 -118.46484375 98.60546875 C-124.97050402 114.20718897 -127.20691951 131.15150889 -127.0625 147.9375 C-127.05798828 148.94619141 -127.05347656 149.95488281 -127.04882812 150.99414062 C-127.03716769 153.45449147 -127.02080378 155.91471239 -127 158.375 C-126.443125 157.611875 -125.88625 156.84875 -125.3125 156.0625 C-123 153.375 -123 153.375 -120.31640625 152.22265625 C-117.83785632 150.63002436 -117.83785632 150.63002436 -117.47998047 148.28076172 C-117.19155312 145.4554485 -117.04615858 142.65040641 -116.9375 139.8125 C-115.30285994 114.04477493 -107.35685202 89.000077 -90 69.375 C-89.278125 68.53324219 -88.55625 67.69148438 -87.8125 66.82421875 C-67.95034852 44.09998641 -40.1762588 29.2711155 -9.83325195 27.15405273 C21.92146975 26.01589933 51.69973527 32.97749726 76 54.375 C76.81726563 55.06078125 77.63453125 55.7465625 78.4765625 56.453125 C99.85967404 74.85716528 114.28165867 101.41303434 116.69140625 129.6015625 C116.79936523 130.85493408 116.90732422 132.10830566 117.01855469 133.3996582 C117.21123465 135.88257321 117.36814685 138.36858071 117.48535156 140.85620117 C117.79225346 147.17265201 117.79225346 147.17265201 120.85302734 152.45849609 C122.98666332 154.0948311 122.98666332 154.0948311 125.21166992 155.33081055 C127 156.375 127 156.375 128 158.375 C129.08508838 119.94061314 119.77566002 85.05414917 93.05859375 56.53125 C92.37925781 55.8196875 91.69992187 55.108125 91 54.375 C90.21302734 53.49328125 90.21302734 53.49328125 89.41015625 52.59375 C74.45401066 36.45785756 52.92428528 26.10169815 32 20.375 C30.22109375 19.86646484 30.22109375 19.86646484 28.40625 19.34765625 C8.76956187 14.71595916 -14.73284832 15.51674442 -34 21.375 C-34.71220703 21.58398926 -35.42441406 21.79297852 -36.15820312 22.00830078 C-50.83660782 26.41776754 -64.77057668 33.13316775 -76.60546875 42.94140625 C-79.62885356 44.75149145 -81.53004711 44.74694882 -85 44.375 C-87.875 42.875 -87.875 42.875 -90 40.375 C-91.01871611 35.59487056 -91.01871611 35.59487056 -90 32.375 C-75.98756823 13.6781797 -42.25646669 4.2043006 -20.37670898 0.7565918 C-13.59971308 -0.00925627 -6.81159056 -0.0180599 0 0 Z M-75.453125 76.984375 C-90.93857685 94.80097014 -98.32236761 115.09534895 -101 138.375 C-101.15210938 139.58414063 -101.30421875 140.79328125 -101.4609375 142.0390625 C-101.67818641 145.05807325 -101.7644879 147.44686709 -101 150.375 C-99.17748024 152.41294763 -97.38099538 153.67117092 -95.04296875 155.078125 C-91.63663336 157.2404641 -89.62949256 160.38466526 -88.42211914 164.20214844 C-87.9130096 166.82278168 -87.78293936 169.34748587 -87.68359375 172.015625 C-87.62075195 173.62050781 -87.62075195 173.62050781 -87.55664062 175.2578125 C-87.51732422 176.36898437 -87.47800781 177.48015625 -87.4375 178.625 C-87.39431641 179.75164062 -87.35113281 180.87828125 -87.30664062 182.0390625 C-87.20067985 184.81758954 -87.09860858 187.59620391 -87 190.375 C-43.78312117 191.14216353 -5.6411139 180.56677988 26.1640625 150.12109375 C27.56785156 148.76177734 27.56785156 148.76177734 29 147.375 C29.68835938 146.72660156 30.37671875 146.07820313 31.0859375 145.41015625 C34.40713843 142.21669382 37.24040354 138.83182381 40.0625 135.1875 C44.05727548 130.14025483 46.83532489 126.77058439 53.5 125.9375 C57.42676667 126.42834583 59.62805689 127.30957705 63 129.375 C64.62844975 131.49590191 66.00152737 133.48364311 67.375 135.75 C73.47506743 145.06500239 79.47240479 147.53615536 90.046875 150.48046875 C93 151.375 93 151.375 95.21875 152.5390625 C97.11814362 153.67096067 97.11814362 153.67096067 99.75 152.5625 C102.37366001 150.47004056 102.37366001 150.47004056 102.4375 146.75 C102.32717682 144.95579667 102.17466016 143.16408654 102 141.375 C101.85691406 139.50714844 101.85691406 139.50714844 101.7109375 137.6015625 C99.85172551 116.44148399 92.56699785 96.87012688 79 80.375 C77.80117188 78.91320312 77.80117188 78.91320312 76.578125 77.421875 C61.75836486 60.0179559 41.28770775 48.94683749 19 44.375 C17.67162109 44.09076172 17.67162109 44.09076172 16.31640625 43.80078125 C-18.47731346 39.33374303 -51.89119765 50.88890707 -75.453125 76.984375 Z M51.62060547 145.73266602 C51.04197754 146.35842529 50.46334961 146.98418457 49.8671875 147.62890625 C49.22523438 148.31919922 48.58328125 149.00949219 47.921875 149.72070312 C47.24640625 150.45224609 46.5709375 151.18378906 45.875 151.9375 C22.41850431 177.27144248 -5.79494313 195.42364973 -40 202.375 C-41.01320312 202.58769531 -42.02640625 202.80039063 -43.0703125 203.01953125 C-55.01325094 205.18672243 -67.81988097 205.71516337 -79.9453125 205.2109375 C-83.50468434 205.40210581 -84.52990929 205.85613596 -87 208.375 C-87.61877945 211.26737454 -87.61877945 211.26737454 -87.53125 214.59765625 C-87.53946777 215.84998047 -87.54768555 217.10230469 -87.55615234 218.39257812 C-87.53983451 219.74091659 -87.52106928 221.08922741 -87.5 222.4375 C-87.49446106 223.11594971 -87.48892212 223.79439941 -87.48321533 224.4934082 C-87.28707351 244.89457226 -83.1140676 268.2609324 -68 283.375 C-61.70565028 285.15788408 -54.81635648 284.71328111 -48.31616211 284.7800293 C-46.72837704 284.80170387 -45.1407144 284.83591807 -43.5534668 284.88256836 C-41.25255611 284.94945115 -38.95408791 284.97699025 -36.65234375 284.99609375 C-35.59127663 285.03783974 -35.59127663 285.03783974 -34.5087738 285.08042908 C-32.23075886 285.13514065 -32.23075886 285.13514065 -29 284.375 C-26.60054304 281.5636875 -26.60054304 281.5636875 -25 278.375 C-17.96975874 271.88554653 -10.97964826 271.97372315 -1.87255859 271.94946289 C0.23069285 271.93760882 2.33096418 271.88842275 4.43359375 271.83789062 C12.23732748 271.74278032 18.86620713 272.09649601 25 277.375 C29.62633984 282.9922694 30.75786681 288.28727529 30.41796875 295.5078125 C29.58559927 301.21771152 27.39312828 305.3749888 23.125 309.25 C15.89757407 314.16464963 8.62937578 313.74125647 0.1875 313.75 C-1.66198242 313.78673828 -1.66198242 313.78673828 -3.54882812 313.82421875 C-11.37662841 313.84929446 -18.60136044 313.42068287 -24.61254883 307.8918457 C-26.72018594 305.49270714 -27.98825745 303.41022765 -29 300.375 C-35.6 300.375 -42.2 300.375 -49 300.375 C-45.36449168 304.01050832 -42.19184516 306.14635234 -37.6875 308.375 C-36.98616943 308.72312744 -36.28483887 309.07125488 -35.56225586 309.42993164 C-15.83449683 318.8684058 5.84209679 319.3687181 26.6640625 313.30859375 C38.60757306 308.90605883 49.5032869 302.86636073 59 294.375 C59.83273437 293.63636719 60.66546875 292.89773438 61.5234375 292.13671875 C78.78116798 275.9144521 87.35848545 253.45697376 88.10786438 229.99841309 C88.16449001 226.10563224 88.19246774 222.21342891 88.203125 218.3203125 C88.20595238 217.61735928 88.20877975 216.91440605 88.21169281 216.19015121 C88.22656241 212.48320912 88.23587372 208.77630484 88.24023438 205.06933594 C88.24575779 201.24948621 88.26990067 197.42998596 88.29820633 193.61024666 C88.3168175 190.6591386 88.32203708 187.70811598 88.32357025 184.75695419 C88.32659155 183.3479505 88.33460246 181.93894813 88.34775543 180.53000259 C88.36481148 178.56580932 88.3610915 176.60146886 88.35644531 174.63720703 C88.36009094 173.52153351 88.36373657 172.40585999 88.36749268 171.25637817 C87.95529344 168.02447194 87.26994518 166.67618911 85 164.375 C82.16976781 163.24142547 82.16976781 163.24142547 78.9375 162.5 C68.39985422 159.45579122 62.00321186 155.22847613 55.49609375 146.3515625 C54.75552734 145.37316406 54.75552734 145.37316406 54 144.375 C52.79620712 144.25808813 52.79620712 144.25808813 51.62060547 145.73266602 Z M-112 165.375 C-114.42865455 169.01798182 -114.25837117 170.75338951 -114.2746582 175.09375 C-114.27976913 175.77211914 -114.28488007 176.45048828 -114.29014587 177.14941406 C-114.3040441 179.39136582 -114.3030852 181.6330103 -114.30078125 183.875 C-114.30466766 185.43294387 -114.30900221 186.99088669 -114.31376648 188.54882812 C-114.32122887 191.81383703 -114.32093701 195.0787378 -114.31567383 198.34375 C-114.30987474 202.53048573 -114.32682034 206.71677972 -114.3500185 210.90344238 C-114.36473932 214.12046909 -114.36562989 217.33738894 -114.36250877 220.55444336 C-114.36302268 222.09823482 -114.36827337 223.64203216 -114.37832069 225.18579102 C-114.39063826 227.34290425 -114.38392295 229.49915096 -114.37231445 231.65625 C-114.37294388 232.88408203 -114.3735733 234.11191406 -114.3742218 235.37695312 C-114.23786203 238.34821597 -114.23786203 238.34821597 -112.6681366 240.30273438 C-110.90050945 241.66470066 -110.90050945 241.66470066 -107.9375 241.25 C-104.70744585 240.62849587 -104.70744585 240.62849587 -103 237.375 C-102.6875725 234.30137721 -102.6875725 234.30137721 -102.7253418 230.74804688 C-102.72023087 230.0794313 -102.71511993 229.41081573 -102.70985413 228.72193909 C-102.69595708 226.51245162 -102.69691471 224.30327597 -102.69921875 222.09375 C-102.69533228 220.55822636 -102.69099771 219.02270379 -102.68623352 217.48718262 C-102.67877139 214.26925165 -102.6790628 211.0514304 -102.68432617 207.83349609 C-102.69012526 203.707292 -102.67317956 199.58153614 -102.6499815 195.45540619 C-102.63526011 192.28470224 -102.63437018 189.1141067 -102.63749123 185.94337463 C-102.63697735 184.42191173 -102.63172721 182.90044287 -102.62167931 181.37901306 C-102.60936059 179.25302861 -102.61607767 177.1279232 -102.62768555 175.00195312 C-102.62705612 173.79188599 -102.6264267 172.58181885 -102.6257782 171.33508301 C-102.76197548 168.39912506 -102.76197548 168.39912506 -104.3318634 166.48425293 C-106.93189861 164.75531978 -108.97214765 164.98846566 -112 165.375 Z M105.33384705 166.48524475 C103.35052274 169.29516027 103.61123077 171.57168067 103.59594727 174.98608398 C103.58908401 175.65309326 103.58222076 176.32010254 103.57514954 177.00732422 C103.55684884 179.21213065 103.56072348 181.41622767 103.56640625 183.62109375 C103.56184578 185.15422294 103.55654061 186.68735008 103.55052185 188.22047424 C103.54158422 191.43425804 103.54402088 194.64779343 103.55395508 197.86157227 C103.56544225 201.97885922 103.54524143 206.09528821 103.51603794 210.21246243 C103.49768518 213.37894635 103.49796654 216.54522436 103.50367546 219.71174812 C103.50382881 221.22959661 103.49777316 222.74745895 103.48538399 224.26525688 C103.47049309 226.38889112 103.48113438 228.51093673 103.49829102 230.63452148 C103.49845718 231.84236801 103.49862335 233.05021454 103.49879456 234.29466248 C104.09621341 237.96631393 105.03356385 239.18998353 108 241.375 C111.39154295 241.21349795 112.58296757 240.79203243 115 238.375 C115.30795699 235.35986931 115.30795699 235.35986931 115.25878906 231.76977539 C115.2622937 231.09155228 115.26579834 230.41332916 115.26940918 229.71455383 C115.27822899 227.46715125 115.27237598 225.22006218 115.265625 222.97265625 C115.26697174 221.41328369 115.26891235 219.85391153 115.27142334 218.29454041 C115.27437506 215.02354949 115.27007605 211.7526677 115.26074219 208.48168945 C115.249357 204.28716102 115.2559008 200.09288878 115.26788712 195.89836979 C115.2751125 192.6770586 115.27281451 189.45580818 115.26763153 186.23449516 C115.26629642 184.68792122 115.26793792 183.14134177 115.27259064 181.59477425 C115.27766602 179.43290717 115.26993131 177.27145528 115.25878906 175.10961914 C115.25719788 173.8787709 115.25560669 172.64792267 115.25396729 171.379776 C115.22817165 168.19438299 115.22817165 168.19438299 113 165.375 C109.97263245 164.98852755 107.93214239 164.75386483 105.33384705 166.48524475 Z M-131 187.375 C-131.6509259 188.62235567 -132.29551669 189.87301832 -132.9375 191.125 C-133.47697266 192.16914063 -133.47697266 192.16914063 -134.02734375 193.234375 C-137.51296726 200.90554643 -135.87224059 207.50009409 -133.0703125 215.1171875 C-132.21283924 217.52551685 -132.21283924 217.52551685 -130 218.375 C-130 208.145 -130 197.915 -130 187.375 C-130.33 187.375 -130.66 187.375 -131 187.375 Z M131 187.375 C131 197.605 131 207.835 131 218.375 C135.38750949 213.98749051 136.85415963 208.96699422 137.10546875 202.77734375 C136.71047342 196.83404193 134.95123636 192.51586334 132 187.375 C131.67 187.375 131.34 187.375 131 187.375 Z M-128 246.375 C-128.06941263 256.37996705 -128.12276667 266.38487712 -128.15543652 276.39003563 C-128.17111389 281.03550069 -128.19238972 285.68080141 -128.22631836 290.32617188 C-128.25883827 294.80654141 -128.27683739 299.28675257 -128.28463173 303.76723099 C-128.29018854 305.47933065 -128.30103921 307.19142133 -128.31719017 308.90345383 C-128.33886699 311.29569195 -128.34197109 313.68726983 -128.34057617 316.07958984 C-128.351362 316.79240616 -128.36214783 317.50522247 -128.3732605 318.23963928 C-128.39463058 320.41547108 -128.39463058 320.41547108 -128 323.375 C-124.38038388 325.78807741 -121.76926629 325.64441215 -117.59106445 325.60205078 C-116.83960144 325.60234283 -116.08813843 325.60263489 -115.31390381 325.60293579 C-112.83024547 325.60154253 -110.34688718 325.58598166 -107.86328125 325.5703125 C-106.14121159 325.56658235 -104.4191398 325.56373539 -102.69706726 325.56173706 C-98.16456238 325.55410073 -93.63218568 325.53445225 -89.09973145 325.5123291 C-84.47470839 325.49187067 -79.84966463 325.48273535 -75.22460938 325.47265625 C-66.14968327 325.45120635 -57.07485229 325.4170704 -48 325.375 C-47.77376709 322.96460284 -47.77376709 322.96460284 -48 320.375 C-50.12846707 318.69430842 -52.03506808 317.43682546 -54.375 316.125 C-61.7527089 311.70434097 -67.79724697 306.45267109 -73.96875 300.46484375 C-77.70792755 296.97852042 -81.22635171 294.66423039 -85.875 292.5 C-92.31544751 289.45054569 -97.01909076 285.41839376 -102 280.375 C-102.57492188 279.82199219 -103.14984375 279.26898438 -103.7421875 278.69921875 C-108.89542487 273.31902533 -113.01992761 265.44312207 -114.43359375 258.1328125 C-115.23375475 255.64955423 -116.49335016 255.16338685 -118.75 253.9375 C-122.45081653 251.91052606 -125.05085237 249.38358168 -128 246.375 Z M128 246.375 C127.34 247.2825 126.68 248.19 126 249.125 C122.27442028 253.6428007 117.39722279 255.98343698 111.59375 256.65234375 C107.58224218 256.71251637 103.92297077 256.21857588 100 255.375 C99.61521484 256.70337891 99.61521484 256.70337891 99.22265625 258.05859375 C94.69678726 272.70290384 88.1803082 285.81162097 78 297.375 C77.236875 298.385625 76.47375 299.39625 75.6875 300.4375 C68.58468043 308.20104697 59.92969537 313.9296959 51 319.375 C49.515 320.365 49.515 320.365 48 321.375 C48 322.695 48 324.015 48 325.375 C74.73 325.375 101.46 325.375 129 325.375 C129 299.305 129 273.235 129 246.375 C128.67 246.375 128.34 246.375 128 246.375 Z M-13.84985352 288.70410156 C-15.30343425 290.45799079 -15.30343425 290.45799079 -14.875 293.4375 C-14.25349587 296.66755415 -14.25349587 296.66755415 -11 298.375 C-7.36863607 298.80928132 -3.71703283 298.69920574 -0.0625 298.6875 C1.44086914 298.71166992 1.44086914 298.71166992 2.97460938 298.73632812 C3.94076172 298.73697266 4.90691406 298.73761719 5.90234375 298.73828125 C7.22480103 298.74275269 7.22480103 298.74275269 8.57397461 298.74731445 C11.45079416 298.30581804 12.83809813 297.27447266 15 295.375 C14.74438677 293.0318787 14.40729228 290.69656597 14 288.375 C9.88815087 286.31907544 4.58165712 287.14590992 0.0625 287.125 C-1.04802734 287.104375 -2.15855469 287.08375 -3.30273438 287.0625 C-4.36685547 287.05734375 -5.43097656 287.0521875 -6.52734375 287.046875 C-7.50437256 287.0375293 -8.48140137 287.02818359 -9.48803711 287.01855469 C-12.03246499 287.1816016 -12.03246499 287.1816016 -13.84985352 288.70410156 Z M-32 328.375 C-32.01458252 329.14166992 -32.02916504 329.90833984 -32.04418945 330.69824219 C-32.1186922 334.17433493 -32.21534646 337.64946968 -32.3125 341.125 C-32.33505859 342.3315625 -32.35761719 343.538125 -32.38085938 344.78125 C-32.41630859 345.94140625 -32.45175781 347.1015625 -32.48828125 348.296875 C-32.51446533 349.36518555 -32.54064941 350.43349609 -32.56762695 351.53417969 C-33.06141148 354.77849179 -33.62923086 356.11906898 -36 358.375 C-38.54370117 359.37988281 -38.54370117 359.37988281 -41.54296875 360.078125 C-43.15268555 360.46484375 -43.15268555 360.46484375 -44.79492188 360.859375 C-45.91447266 361.11203125 -47.03402344 361.3646875 -48.1875 361.625 C-49.31865234 361.893125 -50.44980469 362.16125 -51.61523438 362.4375 C-54.40722016 363.09720972 -57.2017707 363.74239544 -60 364.375 C-57.09929047 370.50720885 -53.84386473 376.63868484 -48 380.375 C-41.110743 382.62348645 -33.5286341 382.04082119 -26.375 381.93359375 C-24.26089222 381.93914616 -22.14679125 381.94840954 -20.03271484 381.9611969 C-15.61379665 381.9743353 -11.19780527 381.94487329 -6.77929688 381.88452148 C-1.13538128 381.81053795 4.50238453 381.83954859 10.14627075 381.90019131 C14.50837941 381.93618355 18.86905667 381.91899768 23.23114014 381.88591194 C25.31059436 381.87611069 27.39018958 381.88215587 29.46954346 381.90481377 C41.13131628 382.41176737 41.13131628 382.41176737 51.48925781 378.00198364 C55.42202009 373.82399371 58.07239408 369.77964826 60 364.375 C59.31897217 364.20371582 58.63794434 364.03243164 57.9362793 363.85595703 C54.85180631 363.07661651 51.76966458 362.28841807 48.6875 361.5 C47.61564453 361.23058594 46.54378906 360.96117187 45.43945312 360.68359375 C44.41142578 360.41933594 43.38339844 360.15507812 42.32421875 359.8828125 C41.37635498 359.64191895 40.42849121 359.40102539 39.4519043 359.15283203 C37 358.375 37 358.375 34 356.375 C32.96285478 353.26356433 32.79968139 350.88031904 32.68359375 347.61328125 C32.64169922 346.49501953 32.59980469 345.37675781 32.55664062 344.22460938 C32.51732422 343.05736328 32.47800781 341.89011719 32.4375 340.6875 C32.39431641 339.50865234 32.35113281 338.32980469 32.30664062 337.11523438 C32.20048824 334.20194117 32.09843758 331.28856243 32 328.375 C30.96101563 328.57996094 29.92203125 328.78492188 28.8515625 328.99609375 C7.77455524 333.09503366 -10.91572095 332.32345759 -32 328.375 Z M-33 396.375 C-31.47511449 399.42477102 -30.37895409 401.31168685 -28.2421875 403.80078125 C-27.43297852 404.74401245 -27.43297852 404.74401245 -26.60742188 405.70629883 C-26.03572266 406.36009521 -25.46402344 407.0138916 -24.875 407.6875 C-24.29041016 408.35740967 -23.70582031 409.02731934 -23.10351562 409.7175293 C-14.58087682 419.87903135 -14.58087682 419.87903135 -2.75390625 424.62109375 C5.96424377 425.0589917 11.50293398 421.96387399 18 416.375 C19.50382499 414.66393411 20.96130668 412.9112551 22.375 411.125 C25.73866245 406.9218305 29.18419349 402.83700723 32.78515625 398.8359375 C34.10656253 397.56352557 34.10656253 397.56352557 34 396.375 C11.89 396.375 -10.22 396.375 -33 396.375 Z " fill="#000000" transform="translate(256,-0.375)"/>
<path d="M0 0 C4.0363771 0.66049807 4.89894944 1.45597681 7.4375 4.5625 C8.35058594 7.07348633 8.35058594 7.07348633 8.921875 9.89453125 C9.13537598 10.93343506 9.34887695 11.97233887 9.56884766 13.04272461 C9.87508057 14.69220093 9.87508057 14.69220093 10.1875 16.375 C10.40067871 17.4997876 10.61385742 18.6245752 10.83349609 19.78344727 C14.91038813 42.4145906 14.91038813 42.4145906 8.98046875 52.4140625 C4.32123078 58.90160905 -0.73005766 63.4713505 -8.5625 65.5625 C-14.95880757 66.32847057 -21.45012608 66.12023663 -27.88012695 66.09594727 C-29.84538926 66.10301107 -31.81064614 66.11175802 -33.77589417 66.12205505 C-39.09373169 66.14449792 -44.4112709 66.14162257 -49.72913766 66.13273358 C-54.17051429 66.12761605 -58.61183525 66.13492186 -63.05320615 66.14220566 C-73.52583628 66.15918586 -83.99832061 66.15565466 -94.47094727 66.13891602 C-105.27924886 66.12196464 -116.08714746 66.13787498 -126.89540511 66.1701389 C-136.17882983 66.19680216 -145.46212884 66.20412057 -154.745588 66.19562382 C-160.28897729 66.19068901 -165.83212364 66.19294145 -171.37548256 66.21341133 C-176.58200017 66.23171926 -181.78793503 66.2258697 -186.99442101 66.20121193 C-188.90685101 66.19619004 -190.81932508 66.19972935 -192.73171997 66.21236038 C-195.33824668 66.22821747 -197.94283658 66.21341156 -200.54927063 66.19068909 C-201.30966985 66.20252482 -202.07006906 66.21436054 -202.85351068 66.22655493 C-206.62707975 66.15950317 -208.25331945 65.84797619 -211.06723309 63.24980068 C-213.10736364 59.58326852 -212.66877531 57.5450911 -211.5625 53.5625 C-210.34202862 51.87411022 -210.34202862 51.87411022 -208.5625 50.5625 C-206.11624622 50.19335651 -206.11624622 50.19335651 -203.15254211 50.20173645 C-201.46773239 50.19555046 -201.46773239 50.19555046 -199.74888611 50.1892395 C-197.89959251 50.20541824 -197.89959251 50.20541824 -196.01293945 50.22192383 C-194.06644501 50.22126671 -194.06644501 50.22126671 -192.08062744 50.22059631 C-188.52087699 50.21973456 -184.96142898 50.23738914 -181.4017489 50.25831819 C-177.68217004 50.27705515 -173.96258447 50.27883307 -170.2429657 50.28239441 C-163.19876274 50.29172367 -156.15469924 50.31634928 -149.11055773 50.34644288 C-141.09131339 50.37995956 -133.07206243 50.39646601 -125.05276549 50.41152918 C-108.55592865 50.44289813 -92.05923211 50.49567565 -75.5625 50.5625 C-75.58868408 49.46784424 -75.61486816 48.37318848 -75.6418457 47.24536133 C-75.73253219 43.17346742 -75.78981549 39.10166224 -75.8371582 35.02905273 C-75.86226061 33.26848324 -75.89635028 31.50801753 -75.93969727 29.74780273 C-76.00054115 27.21311821 -76.02875113 24.67981425 -76.05078125 22.14453125 C-76.07658768 21.36100784 -76.1023941 20.57748444 -76.12898254 19.7702179 C-76.1311355 15.54935758 -75.91538464 14.01392907 -73.21948242 10.56518555 C-70.5625 8.5625 -70.5625 8.5625 -67.5625 7.9375 C-63.44700721 8.79489433 -62.14154168 10.26325078 -59.5625 13.5625 C-58.8969128 16.4388392 -58.977405 19.20511456 -59.07421875 22.14453125 C-59.08483086 23.36579964 -59.08483086 23.36579964 -59.09565735 24.61174011 C-59.12354402 27.20044643 -59.18626684 29.78695273 -59.25 32.375 C-59.2750905 34.13473428 -59.29790236 35.89450263 -59.31835938 37.65429688 C-59.37335128 41.95787296 -59.45958008 46.2598141 -59.5625 50.5625 C-53.56654611 50.46862839 -47.57098002 50.36245992 -41.57543945 50.24511719 C-39.53773895 50.20694164 -37.49997369 50.17206923 -35.4621582 50.140625 C-32.52531866 50.09472568 -29.58892059 50.03677284 -26.65234375 49.9765625 C-25.74790024 49.96501129 -24.84345673 49.95346008 -23.91160583 49.94155884 C-17.31942152 49.78931547 -11.82736361 49.4900435 -6.625 45.0625 C-3.17180887 40.39636757 -4.1359544 34.44637238 -4.94555664 28.97265625 C-5.4402923 26.4073966 -5.98587528 23.86055786 -6.5625 21.3125 C-9.02409916 10.23530379 -9.02409916 10.23530379 -8.5625 5.5625 C-5.92388121 1.88442532 -4.50182231 0.71081405 0 0 Z " fill="#000000" transform="translate(426.5625,446.4375)"/>
</svg>
