<?xml version="1.0" encoding="UTF-8"?>
<svg version="1.1" xmlns="http://www.w3.org/2000/svg" width="512" height="512">
<path d="M0 0 C5.28 0 10.56 0 16 0 C16 10.56 16 21.12 16 32 C21.28 32 26.56 32 32 32 C32 26.72 32 21.44 32 16 C37.28 16 42.56 16 48 16 C48 21.28 48 26.56 48 32 C58.56 32 69.12 32 80 32 C80 53.12 80 74.24 80 96 C122.24 96 164.48 96 208 96 C207.979375 108.62378906 207.95875 121.24757813 207.9375 134.25390625 C207.94222725 142.24287639 207.94897002 150.23176023 207.96484375 158.22070312 C207.98967309 170.90613345 208.00618362 183.5911904 207.96923828 196.27661133 C207.94236973 205.51510731 207.94351684 214.75310311 207.97825909 223.99158043 C207.99567725 228.88316886 207.99909776 233.77386135 207.96896362 238.66540718 C207.94103164 243.27136098 207.95060972 247.87572614 207.98873711 252.48159218 C207.9961447 254.1702211 207.98994463 255.85897413 207.96898079 257.54748917 C207.59764926 266.45129131 207.59764926 266.45129131 210.72460938 274.48753166 C212.73260798 276.26569951 214.70886694 277.61806752 217 279 C226.68192784 287.23322269 233.04229892 299.04298791 237 311 C237.24715759 311.74611038 237.49431519 312.49222076 237.7489624 313.26094055 C240.59192695 323.01466333 240.4550872 332.56815071 240.43359375 342.6328125 C240.43816471 344.51984849 240.44347297 346.40688282 240.44947815 348.29391479 C240.4583645 352.22905283 240.4560357 356.1639874 240.44604492 360.09912109 C240.43453348 365.1201482 240.45482297 370.14047425 240.48396206 375.16140938 C240.50237624 379.05126332 240.50202169 382.94095062 240.49632454 386.83083725 C240.49617211 388.68144594 240.50215095 390.53206649 240.51461601 392.38263321 C240.58380521 404.33080856 240.04083417 413.86406295 232.875 423.9375 C232.37742187 424.64777344 231.87984375 425.35804688 231.3671875 426.08984375 C230.91601562 426.72019531 230.46484375 427.35054688 230 428 C229.34 428.99 228.68 429.98 228 431 C228.65226562 431.56847656 229.30453125 432.13695312 229.9765625 432.72265625 C243.68995598 444.83817645 252.3530975 457.76548751 256 476 C256 482.6 256 489.2 256 496 C92.32 496 -71.36 496 -240 496 C-240 478.31329512 -239.54634192 460.98301249 -227.43348694 447.04724121 C-223.94890294 442.16178752 -224.32331063 437.24034749 -224.40405273 431.42773438 C-224.3999942 430.28037811 -224.39593567 429.13302185 -224.39175415 427.95089722 C-224.38624481 425.46555064 -224.39222303 422.98015772 -224.40841484 420.49485779 C-224.43387827 416.54966727 -224.42901928 412.60551968 -224.41651917 408.66027832 C-224.39589307 400.98425744 -224.41140659 393.30852685 -224.43199158 385.63252258 C-224.45715234 375.89182402 -224.46975592 366.151294 -224.44203526 356.41058969 C-224.43061145 351.87870566 -224.45089001 347.34759265 -224.47740173 342.8157959 C-224.49568037 327.26650533 -223.64108636 313.60094191 -216.1875 299.625 C-215.66712158 298.62315674 -215.66712158 298.62315674 -215.13623047 297.60107422 C-210.27355796 288.47718253 -202.42613371 276.71306685 -193 272 C-192.67 213.92 -192.34 155.84 -192 96 C-149.76 96 -107.52 96 -64 96 C-64 74.88 -64 53.76 -64 32 C-53.44 32 -42.88 32 -32 32 C-32 26.72 -32 21.44 -32 16 C-26.72 16 -21.44 16 -16 16 C-16 21.28 -16 26.56 -16 32 C-10.72 32 -5.44 32 0 32 C0 21.44 0 10.88 0 0 Z M-48 48 C-48 53.28 -48 58.56 -48 64 C-11.04 64 25.92 64 64 64 C64 58.72 64 53.44 64 48 C27.04 48 -9.92 48 -48 48 Z M-48 80 C-48 142.04 -48 204.08 -48 268 C-44.37 266.02 -40.74 264.04 -37 262 C-35.06760068 261.16628162 -33.11451587 260.37385274 -31.125 259.6875 C-30.26132813 259.38199219 -29.39765625 259.07648438 -28.5078125 258.76171875 C-9.18903316 252.89386521 11.81332444 256.38088067 32 256 C32 203.2 32 150.4 32 96 C42.56 96 53.12 96 64 96 C64 90.72 64 85.44 64 80 C27.04 80 -9.92 80 -48 80 Z M-176 112 C-176 161.5 -176 211 -176 262 C-169.73 260.35 -163.46 258.7 -157 257 C-152.39973938 256.58761583 -148.30254363 256.31692183 -143.75 256.4375 C-142.64156738 256.45554687 -141.53313477 256.47359375 -140.39111328 256.4921875 C-122.23139637 257.02371734 -104.540984 263.65755884 -91 276 C-90.18144531 276.72703125 -89.36289063 277.4540625 -88.51953125 278.203125 C-82.68396977 283.67672276 -78.6228528 289.32865658 -74.69140625 296.21484375 C-73.27480437 298.54749303 -72.03222391 300.21636617 -70 302 C-69.65066406 301.08476562 -69.30132812 300.16953125 -68.94140625 299.2265625 C-68.48636719 298.03804687 -68.03132813 296.84953125 -67.5625 295.625 C-67.11003906 294.44164062 -66.65757812 293.25828125 -66.19140625 292.0390625 C-65 289 -65 289 -64 287 C-63.90528666 284.70687647 -63.8781038 282.4108923 -63.87974548 280.11581421 C-63.87889106 279.3994837 -63.87803663 278.68315318 -63.87715632 277.94511569 C-63.87550268 275.53288411 -63.88102099 273.12072132 -63.88647461 270.70849609 C-63.88675653 268.9840851 -63.88659865 267.25967399 -63.8860321 265.53526306 C-63.88574433 260.84337192 -63.89163787 256.15150617 -63.89860606 251.45962095 C-63.90484289 246.56020962 -63.90544366 241.66079775 -63.90663147 236.76138306 C-63.90974381 227.478919 -63.9179559 218.19646667 -63.92798096 208.91400778 C-63.94123123 196.37395543 -63.94664279 183.8338999 -63.95248318 171.29384232 C-63.96189585 151.52921942 -63.98181542 131.76462128 -64 112 C-100.96 112 -137.92 112 -176 112 Z M48 112 C48 160.84 48 209.68 48 260 C51.96 261.98 55.92 263.96 60 266 C73.00181905 275.2870136 81.169463 286.74092052 86 302 C88.50734048 299.71993307 89.99932341 297.39889331 91.625 294.4375 C95.07332127 288.59403932 99.25703622 283.82793545 104 279 C104.75023437 278.22527344 105.50046875 277.45054687 106.2734375 276.65234375 C122.96016313 260.49227557 143.9499945 256.50460457 166.40625 256.703125 C174.13052708 256.91866576 180.73620844 258.43812451 188 261 C189.32 261.33 190.64 261.66 192 262 C192 212.5 192 163 192 112 C144.48 112 96.96 112 48 112 Z M-30.4375 277.3125 C-31.54996094 277.88613281 -32.66242188 278.45976562 -33.80859375 279.05078125 C-44.31413124 285.46726009 -50.76161317 295.22134172 -54.59765625 306.8046875 C-55.1771148 309.96639336 -55.09222613 313.03957788 -55.0625 316.25 C-55.05347656 317.51328125 -55.04445312 318.7765625 -55.03515625 320.078125 C-55.02355469 321.04234375 -55.01195312 322.0065625 -55 323 C-54.11570313 322.68675781 -53.23140625 322.37351562 -52.3203125 322.05078125 C-46.63759322 320.42531232 -40.74335087 320.48505358 -34.875 320.1875 C-16.82339896 319.03688176 -5.54578509 314.18915868 7 301 C10.04033538 302.34248575 11.91577918 303.7854421 14.125 306.25 C24.40596446 316.79457894 36.43730645 319.32678445 50.625 320.0625 C64.89981745 320.84436365 64.89981745 320.84436365 71 323 C71.78049152 308.14898088 68.50530726 297.49284769 58.625 286.3125 C44.00231186 273.43060807 29.32950654 271.63642306 10.35253906 271.73925781 C8.00299283 271.74998633 5.65421084 271.73929439 3.3046875 271.7265625 C-8.30413519 271.71336589 -19.96294738 271.74827947 -30.4375 277.3125 Z M-187 289 C-202.05531524 303.56741151 -207.64503129 320.37577468 -208.17193604 340.97851562 C-208.2539223 346.54837619 -208.22572198 352.11732853 -208.1953125 357.6875 C-208.19157243 359.7272935 -208.18873017 361.76708881 -208.18673706 363.80688477 C-208.17917876 369.12008818 -208.15959935 374.4331785 -208.1373291 379.74633789 C-208.11670048 385.19025138 -208.10769932 390.63418352 -208.09765625 396.078125 C-208.07634443 406.7187991 -208.04230535 417.35939007 -208 428 C-203.93993935 426.66189749 -199.96844903 425.21440433 -196 423.625 C-192.40140701 422.20047067 -188.8774269 420.91847934 -185.11328125 420.03125 C-183.85902344 419.7321875 -182.60476562 419.433125 -181.3125 419.125 C-180.15363281 418.88007813 -178.99476563 418.63515625 -177.80078125 418.3828125 C-174.6050361 417.19889736 -174.6050361 417.19889736 -173.60546875 413.3671875 C-173.40566406 412.25601563 -173.20585937 411.14484375 -173 410 C-173.58007812 409.59910156 -174.16015625 409.19820312 -174.7578125 408.78515625 C-183.33442816 402.54375773 -188.59619639 395.38812613 -191 385 C-191.44990715 380.07566996 -191.47177746 375.15989188 -191.46875 370.21875 C-191.4758673 368.79585477 -191.48356854 367.37296234 -191.49182129 365.95007324 C-191.50519838 362.9814453 -191.50686489 360.01308305 -191.50097656 357.04443359 C-191.49507571 353.26168462 -191.52571742 349.48021702 -191.56609344 345.69771576 C-191.59207957 342.76350168 -191.59483832 339.8295922 -191.59120178 336.89527893 C-191.59288175 335.50155915 -191.60241484 334.10782357 -191.62034607 332.71421814 C-191.71691682 324.28498918 -191.26525114 317.82681256 -186 311 C-180.97905904 305.87864022 -175.39889145 304.59187314 -168.375 304.375 C-162.43966865 304.66699923 -157.56011288 304.98041774 -153 309 C-150.70147602 311.70837109 -148.52944014 314.49776901 -146.34765625 317.30078125 C-140.24840783 324.31339466 -132.96085077 326.7798107 -124 328 C-119.12105046 328.22792518 -114.25785073 328.19037287 -109.375 328.125 C-108.08464844 328.11597656 -106.79429687 328.10695313 -105.46484375 328.09765625 C-102.30969751 328.0742848 -99.15495074 328.04152091 -96 328 C-96.03828241 335.24219743 -96.09796585 342.48389934 -96.18390274 349.72569752 C-96.223171 353.08952914 -96.25545903 356.4531071 -96.27099609 359.81713867 C-96.29255778 363.69752261 -96.33927925 367.57694056 -96.390625 371.45703125 C-96.39185364 372.64706253 -96.39308228 373.83709381 -96.39434814 375.06318665 C-96.6114874 387.62061162 -100.23355447 396.9480572 -109 406 C-110.95975852 407.60005601 -112.77587402 408.77673071 -115 410 C-114.64190011 413.75471773 -114.64190011 413.75471773 -113 417 C-109.52220008 418.85681813 -105.81463276 419.69390657 -102 420.625 C-99.97675525 421.14964113 -97.95586677 421.68345734 -95.9375 422.2265625 C-95.03902344 422.44908691 -94.14054687 422.67161133 -93.21484375 422.90087891 C-88.58447123 424.48395432 -84.33311939 426.74141832 -80 429 C-79.95343506 417.13338359 -79.91800895 405.2667893 -79.89637566 393.40009975 C-79.88598706 387.88852625 -79.87191896 382.37701577 -79.84912109 376.86547852 C-79.82721567 371.53567457 -79.81539445 366.20593081 -79.81024551 360.87608528 C-79.80658127 358.85377112 -79.79942703 356.83145985 -79.78853989 354.80917168 C-79.6621466 330.33381383 -82.0793893 309.09057761 -99.1875 290.25 C-124.19995403 266.97855205 -161.47956938 266.30295036 -187 289 Z M117 289 C101.16184097 304.32488536 96.16481255 322.00483554 95.74121094 343.54858398 C95.72828148 346.11438901 95.72631699 348.6802688 95.734375 351.24609375 C95.73302137 352.63656176 95.73107511 354.0270293 95.72857666 355.41749573 C95.72566495 358.29717626 95.72979766 361.17673085 95.73925781 364.05639648 C95.75072609 367.72307156 95.74402153 371.38945606 95.73211288 375.05612087 C95.72485048 377.91392672 95.72720093 380.77166473 95.73236847 383.62947273 C95.73432326 385.63062356 95.72832322 387.63177718 95.72210693 389.63291931 C95.78121498 401.15582585 96.7739482 409.87030333 105.125 418.4375 C108.10218951 420.86241768 109.99255897 421.36233839 113.8125 421.0625 C115.54989662 420.75120535 117.27970852 420.3950299 119 420 C119.92167969 419.83113281 120.84335937 419.66226563 121.79296875 419.48828125 C124.43048865 418.89074788 126.62580552 418.29795457 129 417 C130.49818795 414.54494019 130.66884883 412.92516869 131 410 C130.41992188 409.59910156 129.83984375 409.19820312 129.2421875 408.78515625 C120.62515588 402.51434611 115.49105754 395.39582494 113 385 C112.5532117 380.55054129 112.51207422 376.12187864 112.48828125 371.65234375 C112.47033005 370.39990372 112.45237885 369.14746368 112.43388367 367.85707092 C112.38913811 364.55770749 112.35670763 361.2585366 112.33044434 357.95898438 C112.30044923 354.57994443 112.25398508 351.20113315 112.20898438 347.82226562 C112.12428614 341.21495018 112.05584362 334.60761896 112 328 C113.61938477 327.92869873 113.61938477 327.92869873 115.27148438 327.85595703 C116.71226353 327.78204084 118.15301753 327.70763315 119.59375 327.6328125 C120.30241211 327.60292236 121.01107422 327.57303223 121.74121094 327.54223633 C131.37573328 327.01621356 139.16281385 323.41980757 146.28125 316.94140625 C151.9026522 310.59177695 152.54027203 306.36425996 152.25 298.125 C152.23195313 297.15046875 152.21390625 296.1759375 152.1953125 295.171875 C152.14842913 292.78082327 152.07669352 290.39028127 152 288 C157.28 288 162.56 288 168 288 C167.87818359 290.11728516 167.87818359 290.11728516 167.75390625 292.27734375 C166.81725131 303.95300048 166.81725131 303.95300048 170.9375 314.4375 C172.83650302 316.38427398 172.83650302 316.38427398 175 318 C176.0828125 318.86431641 176.0828125 318.86431641 177.1875 319.74609375 C184.65001248 325.14864185 191.17251874 327.10081433 200.27734375 327.57421875 C201.020448 327.6165564 201.76355225 327.65889404 202.5291748 327.70251465 C204.35255386 327.80580772 206.17625058 327.90346657 208 328 C207.96171759 335.24219743 207.90203415 342.48389934 207.81609726 349.72569752 C207.776829 353.08952914 207.74454097 356.4531071 207.72900391 359.81713867 C207.70744222 363.69752261 207.66072075 367.57694056 207.609375 371.45703125 C207.60814636 372.64706253 207.60691772 373.83709381 207.60565186 375.06318665 C207.3885126 387.62061162 203.76644553 396.9480572 195 406 C193.04024148 407.60005601 191.22412598 408.77673071 189 410 C189.38647835 412.81529485 189.63663436 414.57242932 191 417 C193.73939016 418.73306802 196.6202737 419.42735287 199.75 420.1875 C200.94882812 420.54811523 200.94882812 420.54811523 202.171875 420.91601562 C206.4713518 422.05099264 208.27477734 422.35925382 212.375 420.328125 C219.20001861 414.27498349 222.68642109 409.13803188 224 400 C224.09225665 397.89542614 224.13781749 395.78846658 224.14526367 393.68188477 C224.15164352 392.4494252 224.15802338 391.21696564 224.16459656 389.94715881 C224.16612675 388.61190836 224.1672399 387.27665738 224.16796875 385.94140625 C224.17118897 384.55101997 224.17455359 383.16063402 224.17805481 381.77024841 C224.18403097 378.85602028 224.18589656 375.94182171 224.18530273 373.02758789 C224.18520186 369.33657444 224.19878321 365.64575659 224.21607494 361.95478916 C224.22733415 359.07957636 224.22921764 356.20440852 224.22869301 353.32917595 C224.23041172 351.32055602 224.24117226 349.31195014 224.25224304 347.30335999 C224.19890986 325.44696933 219.77659936 306.72945119 204.8125 290.25 C179.80004597 266.97855205 142.52043062 266.30295036 117 289 Z M-173.875 322.25 C-175.99046935 325.54073009 -176.12735579 328.88072463 -176.14526367 332.7175293 C-176.15164352 333.64917404 -176.15802338 334.58081879 -176.16459656 335.54069519 C-176.16570938 336.54175797 -176.1668222 337.54282074 -176.16796875 338.57421875 C-176.17129715 339.61262405 -176.17462555 340.65102936 -176.17805481 341.72090149 C-176.18311618 343.91899168 -176.18546338 346.11708954 -176.18530273 348.31518555 C-176.18748047 351.65752052 -176.20562057 354.99952066 -176.22460938 358.34179688 C-176.22754531 360.48176971 -176.22952876 362.62174411 -176.23046875 364.76171875 C-176.23765427 365.75266037 -176.24483978 366.74360199 -176.25224304 367.76457214 C-176.22428674 376.37332955 -175.64054648 384.1398759 -170 391 C-161.69463807 399.24603791 -153.45203254 400.21711942 -142.04931641 400.18066406 C-133.0029611 400.06001826 -125.9845304 399.02039033 -119.37109375 392.359375 C-112.81778282 385.09546409 -111.86376116 378.05971071 -111.90234375 368.4140625 C-111.9037587 367.71227875 -111.90517365 367.010495 -111.90663147 366.28744507 C-111.9121871 364.06658496 -111.92473108 361.84582916 -111.9375 359.625 C-111.94252074 358.11067855 -111.94708264 356.5963555 -111.95117188 355.08203125 C-111.96214193 351.38798748 -111.97937551 347.69400394 -112 344 C-112.57331055 343.9906543 -113.14662109 343.98130859 -113.73730469 343.97167969 C-129.34175561 343.65245506 -142.75847627 342.77254088 -155 332 C-157.58568759 329.114917 -160.07871031 326.20020143 -162.48046875 323.16015625 C-164.9187621 320.65701929 -164.9187621 320.65701929 -168.68359375 320.60546875 C-171.90980278 320.73560345 -171.90980278 320.73560345 -173.875 322.25 Z M4.88671875 324.94140625 C4.16097656 325.47636719 3.43523437 326.01132812 2.6875 326.5625 C-1.83010644 329.52888013 -6.18218504 331.2634057 -11.3125 332.8125 C-11.99417236 333.01883057 -12.67584473 333.22516113 -13.37817383 333.43774414 C-16.89540098 334.46855859 -20.40368479 335.30577093 -24 336 C-24.0497499 341.53180661 -24.08588418 347.06348052 -24.10986328 352.59545898 C-24.11986873 354.47406282 -24.13347733 356.35265129 -24.15087891 358.23120117 C-24.1753688 360.94453748 -24.1865379 363.65766638 -24.1953125 366.37109375 C-24.20563507 367.19959335 -24.21595764 368.02809296 -24.22659302 368.88169861 C-24.22814076 377.07985291 -23.34712743 384.49673691 -18 391 C-9.69463807 399.24603791 -1.45203254 400.21711942 9.95068359 400.18066406 C18.9970389 400.06001826 26.0154696 399.02039033 32.62890625 392.359375 C39.61002578 384.62126661 40.15920864 376.72922992 40.09765625 366.6640625 C40.0962413 365.78471039 40.09482635 364.90535828 40.09336853 363.99935913 C40.08779877 361.20787058 40.0752519 358.41646406 40.0625 355.625 C40.05748109 353.72526158 40.05291887 351.8255219 40.04882812 349.92578125 C40.03783925 345.28382286 40.02059557 340.64192531 40 336 C38.38387817 335.62125732 38.38387817 335.62125732 36.73510742 335.23486328 C35.29597136 334.88871967 33.85693011 334.54218167 32.41796875 334.1953125 C31.71087769 334.03071533 31.00378662 333.86611816 30.27526855 333.6965332 C24.5520885 332.30400794 19.72938299 330.19454291 14.55078125 327.3671875 C9.90390005 324.42261051 9.90390005 324.42261051 4.88671875 324.94140625 Z M155.125 330.625 C147.20569452 337.80703467 138.12322019 341.11963279 128 344 C127.95011596 348.3924818 127.91405419 352.78480824 127.89013672 357.17749023 C127.8801533 358.6680794 127.86656178 360.15864936 127.84912109 361.64916992 C127.36683421 377.2776067 127.36683421 377.2776067 134 391 C142.30536193 399.24603791 150.54796746 400.21711942 161.95068359 400.18066406 C170.9970389 400.06001826 178.0154696 399.02039033 184.62890625 392.359375 C191.18221718 385.09546409 192.13623884 378.05971071 192.09765625 368.4140625 C192.0962413 367.71227875 192.09482635 367.010495 192.09336853 366.28744507 C192.0878129 364.06658496 192.07526892 361.84582916 192.0625 359.625 C192.05747926 358.11067855 192.05291736 356.5963555 192.04882812 355.08203125 C192.03785807 351.38798748 192.02062449 347.69400394 192 344 C190.98824707 343.67966797 189.97649414 343.35933594 188.93408203 343.02929688 C187.58354294 342.5928064 186.23312621 342.1559372 184.8828125 341.71875 C184.21870361 341.50959961 183.55459473 341.30044922 182.87036133 341.08496094 C174.24290215 338.27085408 167.19210409 333.59159468 161 327 C158.04836427 327 157.20925714 328.58655071 155.125 330.625 Z M-51 341 C-54.93626932 345.35061345 -55.63883919 348.91777006 -55.3828125 354.6015625 C-54.57430704 359.66709673 -51.92421704 362.25276069 -48.0625 365.375 C-44.84169574 367.39059651 -44.84169574 367.39059651 -40 367 C-40 357.1 -40 347.2 -40 337 C-45.5540492 337 -46.80747596 337.61029971 -51 341 Z M56 337 C56 346.9 56 356.8 56 367 C63.45868849 365.93447307 64.19268473 365.80731527 69 361 C71.73644367 356.54510707 71.64310319 352.08051521 71 347 C68.66470799 342.14977814 65.7405686 339.51540375 61 337 C59.35 337 57.7 337 56 337 Z M-64 374 C-64 393.8 -64 413.6 -64 434 C-61.69 432.68 -59.38 431.36 -57 430 C-47.87035544 424.88014131 -39.10820615 420.96247484 -28.7644043 418.98657227 C-26.28626187 418.50015619 -26.28626187 418.50015619 -23 417 C-21.3727848 413.47794188 -21.3727848 413.47794188 -21 410 C-21.58007812 409.59910156 -22.16015625 409.19820313 -22.7578125 408.78515625 C-30.38698281 403.23323529 -34.94543194 397.62438207 -37.6875 388.5625 C-38.50907964 386.01618954 -38.50907964 386.01618954 -40 384 C-42.76324661 382.92963381 -45.23458252 382.62648008 -48.1796875 382.34375 C-54.64343448 381.55592488 -59.01346501 377.98922799 -64 374 Z M75.9375 376.8125 C69.95475842 381.98940292 63.73034776 383.30979038 56 384 C55.731875 384.75023437 55.46375 385.50046875 55.1875 386.2734375 C51.43886122 396.06429011 46.42229273 404.817739 37 410 C37.48015461 413.70796471 37.48015461 413.70796471 39 417 C41.86289709 418.62439997 44.93178592 419.21923281 48.125 419.9375 C61.08756248 423.33684682 73.56209087 428.06535881 83 438 C85.73806872 436.72620281 87.96597375 435.34756812 90.25 433.375 C91.1575 432.59125 92.065 431.8075 93 431 C92.62488281 430.53851563 92.24976563 430.07703125 91.86328125 429.6015625 C84.76960197 420.56024835 80.94136241 412.44281933 80.68359375 400.953125 C80.66281265 400.18192322 80.64203156 399.41072144 80.62062073 398.6161499 C80.55541428 396.16085428 80.49637516 393.70545479 80.4375 391.25 C80.39428726 389.58202065 80.3506721 387.91405168 80.30664062 386.24609375 C80.19976264 382.16416804 80.09841434 378.08213818 80 374 C78.23445216 374 77.17448466 375.65441186 75.9375 376.8125 Z M-157 416 C-158.86047573 420.65118932 -159.7702239 424.09945044 -159 429 C-156.6006196 433.79876079 -153.83831756 436.6704397 -149 439 C-144.00552411 439.7971639 -140.20270239 439.57907893 -135.625 437.375 C-132.28181453 434.35021315 -129.41502516 431.64059759 -128.6875 427.01171875 C-128.55651276 422.66457986 -129.35243294 420.11891766 -131 416 C-139.58 416 -148.16 416 -157 416 Z M-5 416 C-7.56096974 421.45223166 -7.56096974 421.45223166 -5.94189453 424.42529297 C-5.34489746 425.18986816 -4.74790039 425.95444336 -4.1328125 426.7421875 C-3.49472656 427.58007812 -2.85664063 428.41796875 -2.19921875 429.28125 C-1.51472656 430.1371875 -0.83023438 430.993125 -0.125 431.875 C0.55175781 432.75414062 1.22851562 433.63328125 1.92578125 434.5390625 C3.59936347 436.70764792 5.29060384 438.85961037 7 441 C11.81563127 439.39478958 13.88205481 435.30628709 16.8125 431.3125 C17.43576172 430.50876953 18.05902344 429.70503906 18.70117188 428.87695312 C19.28060547 428.08869141 19.86003906 427.30042969 20.45703125 426.48828125 C20.99303955 425.77196533 21.52904785 425.05564941 22.08129883 424.31762695 C23.51983132 421.41427627 23.51983132 421.41427627 21 416 C12.42 416 3.84 416 -5 416 Z M147 416 C143.40371521 424.5527864 143.40371521 424.5527864 145 432 C154.9 432 164.8 432 175 432 C176.59628479 424.5527864 176.59628479 424.5527864 173 416 C164.42 416 155.84 416 147 416 Z M-56.8984375 450.73828125 C-64.55533597 458.978698 -69.16639063 468.99834379 -71 480 C-18.86 480 33.28 480 87 480 C82.78210825 463.12843299 76.61317112 451.5926653 61.78735352 442.11523438 C54.72027501 437.92650342 44.84337229 433.55480697 36.49731445 434.19067383 C33.28455598 435.2318601 32.31700929 436.5644411 30.328125 439.26953125 C29.66748047 440.15342529 29.00683594 441.03731934 28.32617188 441.94799805 C27.2984668 443.36592651 27.2984668 443.36592651 26.25 444.8125 C25.54423828 445.76487549 24.83847656 446.71725098 24.11132812 447.69848633 C22.70770678 449.59366515 21.30915148 451.49260789 19.91601562 453.39550781 C18.28442477 455.61337367 16.63157497 457.80974331 14.953125 459.9921875 C14.31648926 460.82206177 14.31648926 460.82206177 13.66699219 461.66870117 C13.28188477 462.16990479 12.89677734 462.6711084 12.5 463.1875 C9.82967997 466.27419276 9.82967997 466.27419276 9 470 C8.34 470 7.68 470 7 470 C6.72994141 469.42435303 6.45988281 468.84870605 6.18164062 468.25561523 C4.9807986 465.96334676 3.63244685 463.98909053 2.09375 461.91015625 C1.51931152 461.1313208 0.94487305 460.35248535 0.35302734 459.55004883 C-0.25847168 458.72915771 -0.8699707 457.9082666 -1.5 457.0625 C-2.12567871 456.22162842 -2.75135742 455.38075684 -3.39599609 454.5144043 C-4.66326069 452.81385776 -5.93196711 451.11438469 -7.20214844 449.41601562 C-8.82017992 447.2416485 -10.41749391 445.05403627 -12.0078125 442.859375 C-12.87963433 441.67666 -13.75198874 440.49433731 -14.625 439.3125 C-15.38039062 438.27738281 -16.13578125 437.24226563 -16.9140625 436.17578125 C-17.60242188 435.45777344 -18.29078125 434.73976563 -19 434 C-33.11907017 434 -46.7836796 441.35621782 -56.8984375 450.73828125 Z M-209.75 451.5625 C-216.99805284 460.0988064 -220.58164877 469.11741946 -223 480 C-178.45 480 -133.9 480 -88 480 C-86.68 474.72 -85.36 469.44 -84 464 C-82.3977345 459.92150599 -80.83015669 455.96033906 -79 452 C-86.89167906 442.89628832 -97.37359245 437.83164654 -109 435 C-111.73477686 434.86322204 -111.73477686 434.86322204 -114 435 C-114.515625 436.175625 -115.03125 437.35125 -115.5625 438.5625 C-119.97401869 447.30814231 -126.8916152 451.96387173 -136 455 C-147.6155358 455.79612099 -156.04501533 455.2660157 -165.3125 447.625 C-169.33787299 443.88829917 -172.24182362 440.27452915 -174 435 C-187.0505335 434.18124029 -201.0007505 442.57758048 -209.75 451.5625 Z M192 435 C191.82984375 436.16015625 191.6596875 437.3203125 191.484375 438.515625 C189.141295 453.8858998 184.75269553 465.52993815 178 480 C198.13 480 218.26 480 239 480 C234.94182874 463.76731496 228.95142411 451.97336013 214.78125 442.5703125 C207.56972841 438.49863879 200.21419524 435.97123818 192 435 Z M100 447 C98.13893793 448.92873706 96.58698152 450.83112526 95 453 C95.47179687 453.91265625 95.47179687 453.91265625 95.953125 454.84375 C100.11972183 463.37774351 101.56737714 470.26950856 104 480 C116.54 480 129.08 480 142 480 C138.04 471.585 138.04 471.585 134 463 C130.91200196 453.65474277 129.1260948 444.74961023 128 435 C118.04535338 435 107.29539226 440.60250217 100 447 Z M147 448 C149.29255384 457.05304866 149.29255384 457.05304866 153 464.9375 C153.495 465.81277344 153.99 466.68804687 154.5 467.58984375 C155.89391617 469.82954759 157.37891608 471.92057391 159 474 C163.02702327 472.65765891 164.02282638 470.14080121 166 466.625 C166.34289062 466.05394531 166.68578125 465.48289062 167.0390625 464.89453125 C170.27384683 459.22748542 171.16439581 454.73054869 173 448 C164.42 448 155.84 448 147 448 Z " fill="#000000" transform="translate(248,8)"/>
<path d="M0 0 C5.28 0 10.56 0 16 0 C16 5.28 16 10.56 16 16 C10.72 16 5.44 16 0 16 C0 10.72 0 5.44 0 0 Z " fill="#000000" transform="translate(408,232)"/>
<path d="M0 0 C5.28 0 10.56 0 16 0 C16 5.28 16 10.56 16 16 C10.72 16 5.44 16 0 16 C0 10.72 0 5.44 0 0 Z " fill="#000000" transform="translate(376,232)"/>
<path d="M0 0 C5.28 0 10.56 0 16 0 C16 5.28 16 10.56 16 16 C10.72 16 5.44 16 0 16 C0 10.72 0 5.44 0 0 Z " fill="#000000" transform="translate(344,232)"/>
<path d="M0 0 C5.28 0 10.56 0 16 0 C16 5.28 16 10.56 16 16 C10.72 16 5.44 16 0 16 C0 10.72 0 5.44 0 0 Z " fill="#000000" transform="translate(312,232)"/>
<path d="M0 0 C5.28 0 10.56 0 16 0 C16 5.28 16 10.56 16 16 C10.72 16 5.44 16 0 16 C0 10.72 0 5.44 0 0 Z " fill="#000000" transform="translate(248,232)"/>
<path d="M0 0 C5.28 0 10.56 0 16 0 C16 5.28 16 10.56 16 16 C10.72 16 5.44 16 0 16 C0 10.72 0 5.44 0 0 Z " fill="#000000" transform="translate(216,232)"/>
<path d="M0 0 C5.28 0 10.56 0 16 0 C16 5.28 16 10.56 16 16 C10.72 16 5.44 16 0 16 C0 10.72 0 5.44 0 0 Z " fill="#000000" transform="translate(152,232)"/>
<path d="M0 0 C5.28 0 10.56 0 16 0 C16 5.28 16 10.56 16 16 C10.72 16 5.44 16 0 16 C0 10.72 0 5.44 0 0 Z " fill="#000000" transform="translate(120,232)"/>
<path d="M0 0 C5.28 0 10.56 0 16 0 C16 5.28 16 10.56 16 16 C10.72 16 5.44 16 0 16 C0 10.72 0 5.44 0 0 Z " fill="#000000" transform="translate(88,232)"/>
<path d="M0 0 C5.28 0 10.56 0 16 0 C16 5.28 16 10.56 16 16 C10.72 16 5.44 16 0 16 C0 10.72 0 5.44 0 0 Z " fill="#000000" transform="translate(408,200)"/>
<path d="M0 0 C5.28 0 10.56 0 16 0 C16 5.28 16 10.56 16 16 C10.72 16 5.44 16 0 16 C0 10.72 0 5.44 0 0 Z " fill="#000000" transform="translate(376,200)"/>
<path d="M0 0 C5.28 0 10.56 0 16 0 C16 5.28 16 10.56 16 16 C10.72 16 5.44 16 0 16 C0 10.72 0 5.44 0 0 Z " fill="#000000" transform="translate(344,200)"/>
<path d="M0 0 C5.28 0 10.56 0 16 0 C16 5.28 16 10.56 16 16 C10.72 16 5.44 16 0 16 C0 10.72 0 5.44 0 0 Z " fill="#000000" transform="translate(312,200)"/>
<path d="M0 0 C5.28 0 10.56 0 16 0 C16 5.28 16 10.56 16 16 C10.72 16 5.44 16 0 16 C0 10.72 0 5.44 0 0 Z " fill="#000000" transform="translate(248,200)"/>
<path d="M0 0 C5.28 0 10.56 0 16 0 C16 5.28 16 10.56 16 16 C10.72 16 5.44 16 0 16 C0 10.72 0 5.44 0 0 Z " fill="#000000" transform="translate(216,200)"/>
<path d="M0 0 C5.28 0 10.56 0 16 0 C16 5.28 16 10.56 16 16 C10.72 16 5.44 16 0 16 C0 10.72 0 5.44 0 0 Z " fill="#000000" transform="translate(152,200)"/>
<path d="M0 0 C5.28 0 10.56 0 16 0 C16 5.28 16 10.56 16 16 C10.72 16 5.44 16 0 16 C0 10.72 0 5.44 0 0 Z " fill="#000000" transform="translate(120,200)"/>
<path d="M0 0 C5.28 0 10.56 0 16 0 C16 5.28 16 10.56 16 16 C10.72 16 5.44 16 0 16 C0 10.72 0 5.44 0 0 Z " fill="#000000" transform="translate(88,200)"/>
<path d="M0 0 C5.28 0 10.56 0 16 0 C16 5.28 16 10.56 16 16 C10.72 16 5.44 16 0 16 C0 10.72 0 5.44 0 0 Z " fill="#000000" transform="translate(408,168)"/>
<path d="M0 0 C5.28 0 10.56 0 16 0 C16 5.28 16 10.56 16 16 C10.72 16 5.44 16 0 16 C0 10.72 0 5.44 0 0 Z " fill="#000000" transform="translate(376,168)"/>
<path d="M0 0 C5.28 0 10.56 0 16 0 C16 5.28 16 10.56 16 16 C10.72 16 5.44 16 0 16 C0 10.72 0 5.44 0 0 Z " fill="#000000" transform="translate(344,168)"/>
<path d="M0 0 C5.28 0 10.56 0 16 0 C16 5.28 16 10.56 16 16 C10.72 16 5.44 16 0 16 C0 10.72 0 5.44 0 0 Z " fill="#000000" transform="translate(312,168)"/>
<path d="M0 0 C5.28 0 10.56 0 16 0 C16 5.28 16 10.56 16 16 C10.72 16 5.44 16 0 16 C0 10.72 0 5.44 0 0 Z " fill="#000000" transform="translate(248,168)"/>
<path d="M0 0 C5.28 0 10.56 0 16 0 C16 5.28 16 10.56 16 16 C10.72 16 5.44 16 0 16 C0 10.72 0 5.44 0 0 Z " fill="#000000" transform="translate(216,168)"/>
<path d="M0 0 C5.28 0 10.56 0 16 0 C16 5.28 16 10.56 16 16 C10.72 16 5.44 16 0 16 C0 10.72 0 5.44 0 0 Z " fill="#000000" transform="translate(152,168)"/>
<path d="M0 0 C5.28 0 10.56 0 16 0 C16 5.28 16 10.56 16 16 C10.72 16 5.44 16 0 16 C0 10.72 0 5.44 0 0 Z " fill="#000000" transform="translate(120,168)"/>
<path d="M0 0 C5.28 0 10.56 0 16 0 C16 5.28 16 10.56 16 16 C10.72 16 5.44 16 0 16 C0 10.72 0 5.44 0 0 Z " fill="#000000" transform="translate(88,168)"/>
<path d="M0 0 C5.28 0 10.56 0 16 0 C16 5.28 16 10.56 16 16 C10.72 16 5.44 16 0 16 C0 10.72 0 5.44 0 0 Z " fill="#000000" transform="translate(408,136)"/>
<path d="M0 0 C5.28 0 10.56 0 16 0 C16 5.28 16 10.56 16 16 C10.72 16 5.44 16 0 16 C0 10.72 0 5.44 0 0 Z " fill="#000000" transform="translate(376,136)"/>
<path d="M0 0 C5.28 0 10.56 0 16 0 C16 5.28 16 10.56 16 16 C10.72 16 5.44 16 0 16 C0 10.72 0 5.44 0 0 Z " fill="#000000" transform="translate(344,136)"/>
<path d="M0 0 C5.28 0 10.56 0 16 0 C16 5.28 16 10.56 16 16 C10.72 16 5.44 16 0 16 C0 10.72 0 5.44 0 0 Z " fill="#000000" transform="translate(312,136)"/>
<path d="M0 0 C5.28 0 10.56 0 16 0 C16 5.28 16 10.56 16 16 C10.72 16 5.44 16 0 16 C0 10.72 0 5.44 0 0 Z " fill="#000000" transform="translate(248,136)"/>
<path d="M0 0 C5.28 0 10.56 0 16 0 C16 5.28 16 10.56 16 16 C10.72 16 5.44 16 0 16 C0 10.72 0 5.44 0 0 Z " fill="#000000" transform="translate(216,136)"/>
<path d="M0 0 C5.28 0 10.56 0 16 0 C16 5.28 16 10.56 16 16 C10.72 16 5.44 16 0 16 C0 10.72 0 5.44 0 0 Z " fill="#000000" transform="translate(152,136)"/>
<path d="M0 0 C5.28 0 10.56 0 16 0 C16 5.28 16 10.56 16 16 C10.72 16 5.44 16 0 16 C0 10.72 0 5.44 0 0 Z " fill="#000000" transform="translate(120,136)"/>
<path d="M0 0 C5.28 0 10.56 0 16 0 C16 5.28 16 10.56 16 16 C10.72 16 5.44 16 0 16 C0 10.72 0 5.44 0 0 Z " fill="#000000" transform="translate(88,136)"/>
<path d="M0 0 C5.28 0 10.56 0 16 0 C16 5.28 16 10.56 16 16 C10.72 16 5.44 16 0 16 C0 10.72 0 5.44 0 0 Z " fill="#000000" transform="translate(248,104)"/>
<path d="M0 0 C5.28 0 10.56 0 16 0 C16 5.28 16 10.56 16 16 C10.72 16 5.44 16 0 16 C0 10.72 0 5.44 0 0 Z " fill="#000000" transform="translate(216,104)"/>
</svg>
