<?xml version="1.0" encoding="UTF-8"?>
<svg version="1.1" xmlns="http://www.w3.org/2000/svg" width="512" height="512">
<path d="M0 0 C1.95800781 1.13769531 1.95800781 1.13769531 3.828125 2.640625 C4.51729004 3.18662354 5.20645508 3.73262207 5.91650391 4.29516602 C6.94783447 5.13905884 6.94783447 5.13905884 8 6 C8.63212402 6.506521 9.26424805 7.01304199 9.91552734 7.53491211 C11.82819207 9.07446514 13.72764942 10.62912366 15.625 12.1875 C20.76808993 16.39269343 25.94437564 20.54529081 31.1875 24.625 C36.27378154 28.58840141 41.21635036 32.68991071 46.11499023 36.88208008 C50.47595294 40.59741255 54.95479162 44.13954649 59.47729492 47.65527344 C65.07060083 52.01874687 70.53276021 56.53478455 75.99682617 61.05834961 C80.92650684 65.13346874 85.90179919 69.13640622 91 73 C91.03738281 71.83082031 91.07476562 70.66164063 91.11328125 69.45703125 C91.1789628 67.90882325 91.24540939 66.36064758 91.3125 64.8125 C91.33505859 64.04357422 91.35761719 63.27464844 91.38085938 62.48242188 C91.5965639 57.91340775 91.98640876 54.66182369 95 51 C98.57299041 48.61758082 101.84176996 48.72894744 106.06005859 48.69360352 C107.11449409 48.68111824 107.11449409 48.68111824 108.19023132 48.66838074 C110.50969004 48.64432295 112.82886732 48.63551406 115.1484375 48.62890625 C116.76502566 48.61993686 118.38161298 48.61081496 119.99819946 48.60154724 C123.38586441 48.5850663 126.77343064 48.57735875 130.16113281 48.57446289 C134.49462238 48.56907917 138.82717974 48.53139678 143.16040611 48.48571873 C146.49937297 48.45592513 149.83811592 48.44873885 153.17720413 48.44773674 C154.77437231 48.44353916 156.37154145 48.43112326 157.96857834 48.41021919 C160.20679359 48.38325378 162.44285569 48.38814297 164.68115234 48.40063477 C165.95260101 48.39556412 167.22404968 48.39049347 168.5340271 48.38526917 C173.13771752 49.20178751 174.74370265 50.68749382 178 54 C179.26266884 57.78800653 179.03996183 61.25917851 178.93554688 65.1965332 C178.89945811 66.93026591 178.86422018 68.66401648 178.82971191 70.39778137 C178.8008062 71.77820586 178.8008062 71.77820586 178.77131653 73.18651772 C178.6627059 79.10453201 178.63244411 85.02354082 178.59247589 90.94234943 C178.55306677 96.13377054 178.48325847 101.3211815 178.34521484 106.51098633 C178.21299802 111.54071482 178.16568547 116.56513156 178.17384338 121.59651756 C178.16224533 123.50284956 178.12095755 125.40926467 178.04795837 127.31423378 C177.53598407 137.79891789 177.53598407 137.79891789 181.62536621 147.13152695 C185.60499498 151.15601295 190.06640133 154.36660187 194.77583313 157.47875023 C198.43594422 159.98213396 201.79028072 162.84367787 205.1875 165.6875 C210.14256257 169.72537726 215.14631601 173.69540763 220.1875 177.625 C224.88440418 181.29174059 229.50691295 185.03384883 234.0625 188.875 C234.58674561 189.31537598 235.11099121 189.75575195 235.65112305 190.20947266 C245.7318701 198.77835229 245.7318701 198.77835229 246.4375 204.625 C246.39325257 208.21266168 245.59097251 209.99329592 243.3671875 212.78515625 C242.82151123 213.47834961 242.27583496 214.17154297 241.71362305 214.88574219 C241.14812744 215.58344727 240.58263184 216.28115234 240 217 C239.48284424 217.6487207 238.96568848 218.29744141 238.43286133 218.96582031 C236.8627096 220.92448108 235.27783317 222.87019802 233.6875 224.8125 C232.54421876 226.21089493 231.40098982 227.60933262 230.2578125 229.0078125 C229.70383789 229.68489258 229.14986328 230.36197266 228.57910156 231.05957031 C227.16350161 232.79908615 225.76170781 234.5482637 224.3671875 236.3046875 C214.17108555 249.0584557 214.17108555 249.0584557 208 250 C201.70589662 249.67041013 197.20467589 244.99634969 192.625 241.08984375 C188.5250944 237.59520439 184.25238408 234.30740984 180 231 C179.67 316.47 179.34 401.94 179 490 C189.56 490 200.12 490 211 490 C211 497.26 211 504.52 211 512 C68.77 512 -73.46 512 -220 512 C-220 504.74 -220 497.48 -220 490 C-209.44 490 -198.88 490 -188 490 C-188 404.2 -188 318.4 -188 230 C-191.3 232.64 -194.6 235.28 -198 238 C-200.32772447 239.82095946 -202.65739675 241.63615838 -205 243.4375 C-205.55816406 243.86998047 -206.11632812 244.30246094 -206.69140625 244.74804688 C-210.41517638 247.61490123 -212.61170587 249.16239061 -217.3125 249.3125 C-218.45138672 249.36857422 -218.45138672 249.36857422 -219.61328125 249.42578125 C-224.5551128 248.54417791 -227.56939754 244.5597832 -230.5 240.75 C-233.57549418 236.81079968 -236.68702533 232.90849411 -239.84887695 229.03857422 C-241.54796794 226.95531776 -243.23499636 224.86268035 -244.921875 222.76953125 C-246.70192111 220.56838144 -248.50315692 218.43682599 -250.390625 216.32421875 C-253.64821958 212.59652414 -255.45165493 209.89676055 -255.8125 204.875 C-255.32231177 199.27653437 -253.18452159 196.58248563 -249 193 C-245.70627169 190.31034234 -242.37018676 187.68921278 -238.99609375 185.1015625 C-234.66654962 181.76881788 -230.45655913 178.29841354 -226.25 174.8125 C-221.07876335 170.53474701 -215.89140544 166.28457597 -210.63671875 162.109375 C-207.15592977 159.32474382 -203.70475954 156.50431373 -200.25 153.6875 C-195.14624997 149.52744642 -190.00762144 145.42027374 -184.8125 141.375 C-179.72636771 137.4113986 -174.78365884 133.31009715 -169.88500977 129.11791992 C-165.52325347 125.40191135 -161.04320204 121.8596838 -156.52050781 118.3425293 C-150.94277049 113.99001751 -145.49005972 109.49210343 -140.03833008 104.98339844 C-135.60346698 101.31671969 -131.14213487 97.68923025 -126.63671875 94.109375 C-123.15592977 91.32474382 -119.70475954 88.50431373 -116.25 85.6875 C-111.14624997 81.52744642 -106.00762144 77.42027374 -100.8125 73.375 C-95.72636771 69.4113986 -90.78365884 65.31009715 -85.88500977 61.11791992 C-81.52325347 57.40191135 -77.04320204 53.8596838 -72.52050781 50.3425293 C-66.94277049 45.99001751 -61.49005972 41.49210343 -56.03833008 36.98339844 C-51.60487449 33.3178834 -47.14538442 29.69104086 -42.640625 26.11328125 C-40.51645011 24.41331288 -38.40388708 22.70154821 -36.296875 20.98046875 C-8.92383984 -1.37851424 -8.92383984 -1.37851424 0 0 Z M-9.44921875 28.60546875 C-10.12428467 29.17031982 -10.79935059 29.7351709 -11.49487305 30.31713867 C-12.21843994 30.93435791 -12.94200684 31.55157715 -13.6875 32.1875 C-15.22873267 33.47968449 -16.77040968 34.77133916 -18.3125 36.0625 C-19.09496094 36.72121094 -19.87742188 37.37992188 -20.68359375 38.05859375 C-24.15685517 40.96957339 -27.66834562 43.83229621 -31.1875 46.6875 C-31.84556641 47.2225415 -32.50363281 47.75758301 -33.18164062 48.30883789 C-37.48061936 51.79511404 -41.8219333 55.2226674 -46.1875 58.625 C-51.27344746 62.58884733 -56.21633028 66.68989353 -61.11499023 70.88208008 C-65.47674653 74.59808865 -69.95679796 78.1403162 -74.47949219 81.6574707 C-80.05722951 86.00998249 -85.50994028 90.50789657 -90.96166992 95.01660156 C-95.39934761 98.68560737 -99.86435807 102.31440067 -104.37109375 105.8984375 C-107.80422286 108.6429003 -111.21483668 111.41458326 -114.625 114.1875 C-115.3068335 114.74171631 -115.98866699 115.29593262 -116.69116211 115.86694336 C-120.16106502 118.68834205 -123.62872508 121.51245657 -127.09375 124.33984375 C-133.41469203 129.49292667 -139.75404844 134.61282979 -146.1875 139.625 C-151.273522 143.58874751 -156.21633485 147.68989744 -161.11499023 151.88208008 C-165.47674653 155.59808865 -169.95679796 159.1403162 -174.47949219 162.6574707 C-180.05722951 167.00998249 -185.50994028 171.50789657 -190.96166992 176.01660156 C-195.38568905 179.67431468 -199.83810562 183.29065482 -204.328125 186.8671875 C-207.99814335 189.79676355 -211.65854309 192.73792033 -215.3125 195.6875 C-215.99513916 196.2347876 -216.67777832 196.7820752 -217.38110352 197.34594727 C-218.36228149 198.13956665 -218.36228149 198.13956665 -219.36328125 198.94921875 C-220.23400269 199.65050903 -220.23400269 199.65050903 -221.12231445 200.3659668 C-223.52512899 202.45698717 -225.74768076 204.74768076 -228 207 C-224.04 211.95 -220.08 216.9 -216 222 C-211.09131225 218.75047976 -211.09131225 218.75047976 -206.4765625 215.22265625 C-205.8563623 214.71589355 -205.23616211 214.20913086 -204.59716797 213.68701172 C-203.94635254 213.15092285 -203.29553711 212.61483398 -202.625 212.0625 C-201.20315006 210.89970894 -199.78127433 209.73694942 -198.359375 208.57421875 C-197.63685547 207.9817334 -196.91433594 207.38924805 -196.16992188 206.77880859 C-192.74406007 203.97043448 -189.31089147 201.17109033 -185.875 198.375 C-185.21282471 197.83576904 -184.55064941 197.29653809 -183.8684082 196.7409668 C-179.55381962 193.23645559 -175.19727997 189.79109218 -170.8125 186.375 C-165.726478 182.41125249 -160.78366515 178.31010256 -155.88500977 174.11791992 C-151.52325347 170.40191135 -147.04320204 166.8596838 -142.52050781 163.3425293 C-136.94277049 158.99001751 -131.49005972 154.49210343 -126.03833008 149.98339844 C-121.60346698 146.31671969 -117.14213487 142.68923025 -112.63671875 139.109375 C-109.15592977 136.32474382 -105.70475954 133.50431373 -102.25 130.6875 C-97.14624997 126.52744642 -92.00762144 122.42027374 -86.8125 118.375 C-81.72636771 114.4113986 -76.78365884 110.31009715 -71.88500977 106.11791992 C-67.52325347 102.40191135 -63.04320204 98.8596838 -58.52050781 95.3425293 C-53.69704679 91.57860681 -48.9649532 87.71122421 -44.25 83.8125 C-39.0697635 79.52921715 -33.88126615 75.262329 -28.6171875 71.08203125 C-26.44955771 69.35763322 -24.28965617 67.62455114 -22.1328125 65.88671875 C-21.45105957 65.33838379 -20.76930664 64.79004883 -20.06689453 64.22509766 C-18.71003464 63.13364764 -17.35420541 62.04091486 -15.99951172 60.94677734 C-11.57451211 57.39317646 -9.08713235 55.48401328 -3.2578125 55.609375 C4.20024918 56.89969709 10.30405286 63.84797368 15.85913086 68.625 C19.74303286 71.96378316 23.7046392 75.17181743 27.75 78.3125 C33.91297519 83.10428068 39.94605143 88.04154761 45.96166992 93.01660156 C50.39653302 96.68328031 54.85786513 100.31076975 59.36328125 103.890625 C62.84407023 106.67525618 66.29524046 109.49568627 69.75 112.3125 C74.85375003 116.47255358 79.99237856 120.57972626 85.1875 124.625 C90.27363229 128.5886014 95.21634116 132.68990285 100.11499023 136.88208008 C104.47674653 140.59808865 108.95679796 144.1403162 113.47949219 147.6574707 C119.05722951 152.00998249 124.50994028 156.50789657 129.96166992 161.01660156 C134.39653302 164.68328031 138.85786513 168.31076975 143.36328125 171.890625 C146.84407023 174.67525618 150.29524046 177.49568627 153.75 180.3125 C158.85375003 184.47255358 163.99237856 188.57972626 169.1875 192.625 C173.71353664 196.15212123 178.13979203 199.76995251 182.5 203.5 C187.11705248 207.44559748 191.79857502 211.29521204 196.5625 215.0625 C197.14644531 215.52785156 197.73039062 215.99320313 198.33203125 216.47265625 C201.10248919 218.64759519 203.75768659 220.59684725 207 222 C208.25317174 220.46091043 209.5023775 218.91859134 210.75 217.375 C211.44609375 216.51648438 212.1421875 215.65796875 212.859375 214.7734375 C215.0595105 211.92289699 217.03637272 209.01620226 219 206 C210.98552316 199.3495339 202.97285456 192.70478771 194.75 186.3125 C189.68262415 182.37128763 184.76168666 178.29136485 179.88476562 174.11767578 C175.52304939 170.40179871 171.0431116 166.85961347 166.52050781 163.3425293 C160.94277049 158.99001751 155.49005972 154.49210343 150.03833008 149.98339844 C145.60346698 146.31671969 141.14213487 142.68923025 136.63671875 139.109375 C133.15592977 136.32474382 129.70475954 133.50431373 126.25 130.6875 C121.14624997 126.52744642 116.00762144 122.42027374 110.8125 118.375 C105.72636771 114.4113986 100.78365884 110.31009715 95.88500977 106.11791992 C91.52325347 102.40191135 87.04320204 98.8596838 82.52050781 95.3425293 C76.94277049 90.99001751 71.49005972 86.49210343 66.03833008 81.98339844 C61.60346698 78.31671969 57.14213487 74.68923025 52.63671875 71.109375 C49.15592977 68.32474382 45.70475954 65.50431373 42.25 62.6875 C37.14624859 58.52744529 32.00758157 54.42032645 26.8125 50.375 C22.20547324 46.78407569 17.69553163 43.10152128 13.25 39.3125 C7.33972017 34.28011957 7.33972017 34.28011957 1.375 29.3125 C0.59898437 28.66925781 -0.17703125 28.02601562 -0.9765625 27.36328125 C-4.59011523 24.92866754 -6.43455834 26.05152327 -9.44921875 28.60546875 Z M114 71 C112.31927018 83.10813135 112.31927018 83.10813135 115.10009766 94.89599609 C118.17317403 98.19106973 122.01015379 100.37491624 125.86474609 102.64697266 C129.77913531 105.12736884 133.22290047 108.19416584 136.75 111.1875 C138.18053426 112.37321721 139.61277983 113.55687335 141.046875 114.73828125 C141.72041016 115.29467285 142.39394531 115.85106445 143.08789062 116.42431641 C145.71423273 118.58856716 148.35179683 120.73752173 151 122.875 C151.763125 123.49117187 152.52625 124.10734375 153.3125 124.7421875 C154.7828469 126.09960362 154.7828469 126.09960362 156 126 C156 107.85 156 89.7 156 71 C142.14 71 128.28 71 114 71 Z M-9.75 84.3125 C-13.54026061 87.75874014 -17.45295894 90.98791405 -21.5 94.125 C-26.91057627 98.32672012 -32.22596539 102.62816549 -37.5 107 C-42.69430759 111.30427174 -47.92441607 115.5467089 -53.25 119.6875 C-57.75666152 123.19268118 -62.16230736 126.78778481 -66.5 130.5 C-71.39382919 134.68815914 -76.39519137 138.70357273 -81.47949219 142.6574707 C-87.05722951 147.00998249 -92.50994028 151.50789657 -97.96166992 156.01660156 C-102.39653302 159.68328031 -106.85786513 163.31076975 -111.36328125 166.890625 C-114.84407023 169.67525618 -118.29524046 172.49568627 -121.75 175.3125 C-126.85374894 179.4725527 -131.99234111 183.57977503 -137.1875 187.625 C-143.37384517 192.44517568 -149.38594501 197.44820758 -155.27993876 202.622971 C-157 204 -157 204 -159.24617618 205.39326102 C-164.09328426 208.55245782 -164.09328426 208.55245782 -166.82814515 213.47369945 C-167.13537613 216.49323784 -167.1569897 219.39923492 -167.08229065 222.43370056 C-167.08999481 223.57623795 -167.09769897 224.71877533 -167.1056366 225.89593506 C-167.11791616 229.06108801 -167.08980912 232.22290511 -167.04465456 235.38766401 C-167.00527282 238.85471727 -167.0185112 242.32164928 -167.02501583 245.78886509 C-167.02979559 252.51536664 -166.98829422 259.24078448 -166.93050387 265.96700776 C-166.8656446 273.74931103 -166.8585483 281.53096554 -166.85144043 289.31359863 C-166.80420757 309.85507058 -166.67855713 330.39630161 -166.5625 350.9375 C-166.376875 396.828125 -166.19125 442.71875 -166 490 C-59.74 490 46.52 490 156 490 C156.28875 444.026875 156.5775 398.05375 156.875 350.6875 C157.06618408 328.91076294 157.06618408 328.91076294 157.26123047 306.6940918 C157.30805159 293.68402136 157.30805159 293.68402136 157.33621216 280.67390442 C157.34926046 274.87691159 157.40057182 269.08181096 157.47805786 263.28535461 C157.56734669 256.59605278 157.60766654 249.90856308 157.58822931 243.21866124 C157.57981026 239.79650029 157.60073426 236.38161805 157.66901183 232.95965898 C158.61509633 218.55674058 158.61509633 218.55674058 152.93790054 206.0310154 C149.57416219 203.09590202 145.93631371 201.07902326 142 199 C140.43561122 197.79173087 138.89395939 196.55151732 137.40625 195.25 C136.43123535 194.44042847 136.43123535 194.44042847 135.43652344 193.61450195 C134.7974707 193.08171631 134.15841797 192.54893066 133.5 192 C128.30692216 187.69427959 123.07553858 183.45325584 117.75 179.3125 C112.68266433 175.37123892 107.76168766 171.29136571 102.88476562 167.11767578 C98.52304939 163.40179871 94.0431116 159.85961347 89.52050781 156.3425293 C83.94277049 151.99001751 78.49005972 147.49210343 73.03833008 142.98339844 C68.60346698 139.31671969 64.14213487 135.68923025 59.63671875 132.109375 C56.15592977 129.32474382 52.70475954 126.50431373 49.25 123.6875 C44.14624997 119.52744642 39.00762144 115.42027374 33.8125 111.375 C28.73623588 107.41908882 23.80231436 103.32663473 18.91357422 99.14208984 C12.76246854 93.90114471 6.39624338 88.93686582 0 84 C-1.12728516 83.1028125 -1.12728516 83.1028125 -2.27734375 82.1875 C-5.74849194 79.79469036 -7.03751524 81.76827087 -9.75 84.3125 Z " fill="#000000" transform="translate(261,0)"/>
<path d="M0 0 C1.49232568 -0.00299611 2.98465058 -0.00639967 4.47697449 -0.01017761 C8.51217164 -0.01897496 12.54734757 -0.0213539 16.58255339 -0.0219934 C19.1080532 -0.02270622 21.63354769 -0.02484491 24.15904617 -0.02749062 C32.98217357 -0.03672928 41.8052859 -0.04082728 50.62841797 -0.04003906 C58.83314316 -0.03943838 67.03780259 -0.04999224 75.24251115 -0.06578273 C82.30434456 -0.07888599 89.36615654 -0.0842218 96.428002 -0.08358365 C100.63796215 -0.08332953 104.84786377 -0.08613365 109.05781174 -0.0967617 C113.01904967 -0.10648994 116.98017368 -0.10648969 120.94141579 -0.09924507 C122.38852544 -0.09820515 123.83564238 -0.10052662 125.28273964 -0.10660553 C138.41196524 -0.15815191 151.29560718 0.49609285 161.20556641 10.14526367 C167.42636225 18.25867072 169.5061148 24.89804995 169.49609375 35.03100586 C169.50281097 36.01068329 169.5095282 36.99036072 169.51644897 37.99972534 C169.5354081 41.23058175 169.53935233 44.46123013 169.54150391 47.69213867 C169.54793394 49.94647303 169.55466245 52.20080655 169.56167603 54.45513916 C169.57364406 59.17934096 169.5773574 63.90346966 169.57617188 68.62768555 C169.57596887 74.66444388 169.60325456 80.70073049 169.63771629 86.73737717 C169.66001774 91.39412565 169.66400839 96.05076127 169.66295242 100.70755768 C169.66530412 102.93217848 169.67410316 105.1568026 169.68961716 107.38137054 C169.70933961 110.50189164 169.70341384 113.62140402 169.69140625 116.74194336 C169.70264526 117.65033966 169.71388428 118.55873596 169.72546387 119.49465942 C169.63027956 129.29018739 166.19321959 137.07733474 159.49462891 144.16479492 C153.61711865 149.24994458 146.51148315 152.35265194 138.71865845 152.18235779 C137.82466339 152.16613373 136.93066833 152.14990967 136.00958252 152.13319397 C135.03607849 152.11067062 134.06257446 152.08814728 133.05957031 152.06494141 C130.92145351 152.02552873 128.78331966 151.98703342 126.64517212 151.94932556 C125.51136738 151.92843306 124.37756264 151.90754055 123.20940018 151.88601494 C115.92617847 151.76799428 108.64203143 151.73166117 101.35805702 151.68592739 C94.96516232 151.64125526 88.57594519 151.56417046 82.18457031 151.41503906 C75.99322402 151.27220994 69.80667551 151.21863838 63.61375046 151.22422981 C61.26365877 151.21076845 58.91351263 151.16575303 56.56468582 151.08749199 C44.07095093 150.36802617 44.07095093 150.36802617 32.85330963 154.91301918 C28.65642192 159.14524883 25.45374634 163.89211899 22.45913315 169.02471924 C20.81565178 171.80484666 18.94311031 174.31620833 16.98681641 176.88354492 C15.32349526 179.19264859 13.67000705 181.50800159 12.02587891 183.83081055 C4.56883901 194.14988336 4.56883901 194.14988336 -0.91943359 195.77416992 C-5.90877783 195.59746398 -8.83804747 194.42616924 -12.79443359 191.14526367 C-14.40745132 187.91922822 -13.91496958 184.3981633 -13.89208984 180.85620117 C-13.8906749 180.0377774 -13.88925995 179.21935364 -13.88780212 178.37612915 C-13.88219649 175.75747042 -13.86964308 173.13889663 -13.85693359 170.52026367 C-13.85191932 168.74682741 -13.84735629 166.9733898 -13.84326172 165.19995117 C-13.83222523 160.84835585 -13.81495684 156.49682417 -13.79443359 152.14526367 C-14.45612549 152.09772949 -15.11781738 152.05019531 -15.79956055 152.0012207 C-25.30896191 151.20666975 -32.66120751 148.30101857 -39.25927734 141.17260742 C-45.50179828 132.92866756 -46.94242548 125.06221916 -46.95556641 115.015625 C-46.96053131 114.10436859 -46.96549622 113.19311218 -46.97061157 112.25424194 C-46.98519276 109.24525185 -46.99202912 106.23631451 -46.99755859 103.22729492 C-47.00331418 101.12847391 -47.00907186 99.02965291 -47.01483154 96.93083191 C-47.02533059 92.53022009 -47.03118017 88.12962648 -47.03466797 83.72900391 C-47.04014476 78.10819695 -47.06416013 72.48763319 -47.09263992 66.86690235 C-47.11132605 62.53013929 -47.11647512 58.19343405 -47.11800385 53.85663414 C-47.12101834 51.78552613 -47.12900592 49.71441885 -47.14218903 47.6433506 C-47.15937164 44.73600765 -47.15733938 41.82924905 -47.15087891 38.921875 C-47.16009369 38.07736282 -47.16930847 37.23285065 -47.17880249 36.36274719 C-47.11048459 26.47703557 -44.23019496 17.71163177 -37.79443359 10.14526367 C-26.67869083 -0.20231801 -14.35327088 -0.00576504 0 0 Z M-22.79443359 28.14526367 C-24.45407302 31.46454252 -23.95994992 35.17977705 -23.97143555 38.83007812 C-23.97800674 39.72942078 -23.98457794 40.62876343 -23.99134827 41.55535889 C-24.01110354 44.53975502 -24.02274856 47.5241008 -24.03271484 50.50854492 C-24.03679037 51.52649832 -24.0408659 52.54445171 -24.04506493 53.59325218 C-24.06593475 58.9806231 -24.08023276 64.36796847 -24.08959961 69.75537109 C-24.10066851 75.32414357 -24.1350715 80.89251696 -24.17477131 86.46114826 C-24.20089745 90.73938243 -24.20928787 95.01752093 -24.21288109 99.29582787 C-24.21775707 101.3487537 -24.22939971 103.40167499 -24.24791908 105.45452309 C-24.27222616 108.32742703 -24.27136092 111.19929067 -24.2644043 114.07226562 C-24.27721436 114.92076584 -24.29002441 115.76926605 -24.30322266 116.64347839 C-24.26771597 120.66518383 -24.10523418 122.65433862 -21.90324402 126.13249207 C-17.27115212 130.55363061 -12.25053818 130.49502878 -6.16943359 130.70776367 C1.84782432 131.02601631 1.84782432 131.02601631 5.20556641 132.14526367 C7.16589768 135.84588904 7.55760592 139.31786302 7.83056641 143.45776367 C7.90533203 144.52639648 7.98009766 145.5950293 8.05712891 146.69604492 C8.10611328 147.50428711 8.15509766 148.3125293 8.20556641 149.14526367 C12.64990007 145.11758629 15.91934089 140.48674355 19.33837891 135.57104492 C21.20556641 133.14526367 21.20556641 133.14526367 24.20556641 131.14526367 C26.31991959 130.89193058 26.31991959 130.89193058 28.80914307 130.88697815 C29.75395035 130.88015015 30.69875763 130.87332214 31.67219543 130.86628723 C32.70704575 130.86884018 33.74189606 130.87139313 34.80810547 130.87402344 C35.89945297 130.86879669 36.99080048 130.86356995 38.11521912 130.85818481 C40.48877776 130.84793157 42.86235897 130.84216211 45.23593903 130.84030342 C48.99356127 130.83664816 52.75091759 130.8199434 56.50848389 130.79954529 C65.84470191 130.75106221 75.18095609 130.71951238 84.51727295 130.69824219 C92.3988377 130.68025565 100.28021496 130.65083016 108.1616745 130.60420036 C110.65110024 130.59255357 113.14055953 130.58662004 115.63001251 130.58651924 C119.11535681 130.58632699 122.60018512 130.56804414 126.08544922 130.54589844 C127.11220261 130.55047562 128.13895599 130.5550528 129.19682312 130.55976868 C134.94157329 130.50179866 139.22139371 130.12238406 144.20556641 127.14526367 C147.92748815 122.99215635 147.63271019 118.59691673 147.59375 113.3034668 C147.59900696 112.42319321 147.60426392 111.54291962 147.60968018 110.63597107 C147.62285998 107.73263693 147.6141492 104.82985318 147.60400391 101.92651367 C147.60602522 99.90539444 147.60893714 97.88427592 147.61270142 95.86315918 C147.61712204 91.62981209 147.61070206 87.39665506 147.59667969 83.16333008 C147.57958805 77.73927939 147.58943062 72.31567406 147.60739708 66.89163971 C147.61824193 62.71889902 147.61478533 58.54626377 147.6070137 54.3735199 C147.60501364 52.3736516 147.60746415 50.37377371 147.61445236 48.37391663 C147.62207828 45.57804028 147.61044654 42.78288337 147.59375 39.98706055 C147.60285904 38.74943214 147.60285904 38.74943214 147.6121521 37.48680115 C147.56128943 32.88521314 147.20792883 29.85944546 144.20556641 26.14526367 C140.82888653 22.96436363 138.37676991 22.76572708 133.80459595 22.75085449 C132.48674606 22.7395047 131.16889618 22.72815491 129.81111145 22.71646118 C128.3522638 22.71910448 126.89341671 22.72207571 125.43457031 22.7253418 C123.89693077 22.71800171 122.35929675 22.70941566 120.82167053 22.69967651 C116.64596915 22.67744394 112.47046499 22.67453073 108.29471254 22.67642403 C104.80814401 22.67654366 101.32161737 22.66798231 97.83506048 22.65964651 C89.60859918 22.64040573 81.38223935 22.63753088 73.15576172 22.64428711 C64.6714192 22.65092698 56.18751153 22.62806744 47.7032572 22.59097338 C40.41734264 22.56027535 33.13156794 22.5489165 25.84559 22.55281019 C21.49474201 22.5548778 17.1442323 22.54939713 12.79344559 22.5249176 C8.70075113 22.50265141 4.60876331 22.50452666 0.5160656 22.52484512 C-0.98432654 22.52825559 -2.48476623 22.52316433 -3.98509407 22.50886154 C-14.60362077 22.16895159 -14.60362077 22.16895159 -22.79443359 28.14526367 Z " fill="#000000" transform="translate(194.79443359375,241.854736328125)"/>
<path d="M0 0 C42.9 0 85.8 0 130 0 C130 7.59 130 15.18 130 23 C87.1 23 44.2 23 0 23 C0 15.41 0 7.82 0 0 Z " fill="#000000" transform="translate(191,285)"/>
<path d="M0 0 C42.9 0 85.8 0 130 0 C130 7.26 130 14.52 130 22 C87.1 22 44.2 22 0 22 C0 14.74 0 7.48 0 0 Z " fill="#000000" transform="translate(191,329)"/>
</svg>
