<?xml version="1.0" encoding="UTF-8"?>
<svg version="1.1" xmlns="http://www.w3.org/2000/svg" width="512" height="512">
<path d="M0 0 C1.45108658 0.00273422 1.45108658 0.00273422 2.93148804 0.00552368 C17.26440977 0.05095174 31.21023917 0.55983928 45.3125 3.3125 C46.65803955 3.55395752 46.65803955 3.55395752 48.03076172 3.80029297 C91.28427473 11.62697592 131.70161372 31.09401447 165.3125 59.3125 C165.82844727 59.73966309 166.34439453 60.16682617 166.87597656 60.60693359 C179.56775601 71.12977206 191.16907851 82.27618935 201.3125 95.3125 C202.08851563 96.2715625 202.86453125 97.230625 203.6640625 98.21875 C239.30938501 143.03001259 256.52757418 198.73700919 256.5625 255.5625 C256.56351212 257.03981094 256.56351212 257.03981094 256.56454468 258.54696655 C256.54878472 273.01976324 256.09234526 287.07096901 253.3125 301.3125 C253.15152832 302.20952637 252.99055664 303.10655273 252.82470703 304.03076172 C242.00212011 363.84088904 207.94435543 421.35495829 159.3125 458.3125 C158.77222168 458.72918945 158.23194336 459.14587891 157.67529297 459.57519531 C147.6802884 467.2584873 137.22040964 474.00092968 126.3125 480.3125 C125.63525879 480.70679199 124.95801758 481.10108398 124.26025391 481.50732422 C101.3416244 494.68961173 75.76677437 503.29510918 49.9375 508.625 C49.22682373 508.77243652 48.51614746 508.91987305 47.78393555 509.07177734 C32.16243983 512.05312556 16.5470275 512.68735031 0.6875 512.625 C-0.27794739 512.62317719 -1.24339478 512.62135437 -2.23809814 512.61947632 C-16.91090824 512.57290608 -31.24154154 512.11706647 -45.6875 509.3125 C-46.60499023 509.13557617 -47.52248047 508.95865234 -48.46777344 508.77636719 C-54.92819523 507.48873062 -61.3143418 505.97661565 -67.6875 504.3125 C-68.51668945 504.09754883 -69.34587891 503.88259766 -70.20019531 503.66113281 C-112.03381672 492.56850787 -148.52974503 469.97543014 -179.6875 440.3125 C-180.41324219 439.62800781 -181.13898438 438.94351562 -181.88671875 438.23828125 C-186.44183255 433.82635374 -190.46203717 429.07870353 -194.421875 424.12890625 C-195.84178156 422.36381551 -197.28634205 420.6179783 -198.765625 418.90234375 C-225.19667164 388.01717629 -242.54654857 349.23408347 -251.125 309.75 C-251.35985107 308.67041016 -251.59470215 307.59082031 -251.83666992 306.47851562 C-255.21641452 289.91138548 -256.06619096 273.49499073 -256 256.625 C-255.99817719 255.65760895 -255.99635437 254.6902179 -255.99447632 253.69351196 C-255.94904826 239.36059023 -255.44016072 225.41476083 -252.6875 211.3125 C-252.44604248 209.96696045 -252.44604248 209.96696045 -252.19970703 208.59423828 C-241.37712011 148.78411096 -207.31935543 91.27004171 -158.6875 54.3125 C-158.14722168 53.89581055 -157.60694336 53.47912109 -157.05029297 53.04980469 C-147.0552884 45.3665127 -136.59540964 38.62407032 -125.6875 32.3125 C-125.01025879 31.91820801 -124.33301758 31.52391602 -123.63525391 31.11767578 C-100.7166244 17.93538827 -75.14177437 9.32989082 -49.3125 4 C-48.60182373 3.85256348 -47.89114746 3.70512695 -47.15893555 3.55322266 C-31.51641634 0.56786213 -15.88080394 -0.0623098 0 0 Z " fill="#E14C4B" transform="translate(255.6875,-0.3125)"/>
<path d="M0 0 C5.73984091 4.11353673 10.95455638 8.56736559 16.0625 13.4375 C16.73087891 14.06720703 17.39925781 14.69691406 18.08789062 15.34570312 C26.00621958 22.83310261 33.21767217 30.45515935 40 39 C41.175625 40.45019531 41.175625 40.45019531 42.375 41.9296875 C77.98025889 86.77861937 95.21506328 142.40676936 95.25 199.25 C95.25067474 200.23487396 95.25134949 201.21974792 95.25204468 202.23446655 C95.23628472 216.70726324 94.77984526 230.75846901 92 245 C91.83902832 245.89702637 91.67805664 246.79405273 91.51220703 247.71826172 C80.68962011 307.52838904 46.63185543 365.04245829 -2 402 C-2.54027832 402.41668945 -3.08055664 402.83337891 -3.63720703 403.26269531 C-13.6322116 410.9459873 -24.09209036 417.68842968 -35 424 C-35.67724121 424.39429199 -36.35448242 424.78858398 -37.05224609 425.19482422 C-59.9708756 438.37711173 -85.54572563 446.98260918 -111.375 452.3125 C-112.08567627 452.45993652 -112.79635254 452.60737305 -113.52856445 452.75927734 C-129.15006017 455.74062556 -144.7654725 456.37485031 -160.625 456.3125 C-161.59044739 456.31067719 -162.55589478 456.30885437 -163.55059814 456.30697632 C-178.22340824 456.26040608 -192.55404154 455.80456647 -207 453 C-207.91749023 452.82307617 -208.83498047 452.64615234 -209.78027344 452.46386719 C-216.24069523 451.17623062 -222.6268418 449.66411565 -229 448 C-229.82918945 447.78504883 -230.65837891 447.57009766 -231.51269531 447.34863281 C-273.34631672 436.25600787 -309.84224503 413.66293014 -341 384 C-341.72574219 383.31550781 -342.45148438 382.63101562 -343.19921875 381.92578125 C-349.79801516 375.53441262 -355.53780422 368.37482585 -361 361 C-356.75479202 362.43304661 -353.88410739 364.53877714 -350.4375 367.375 C-335.76709678 378.99478199 -319.03369277 387.43065277 -302 395 C-301.34257812 395.29600098 -300.68515625 395.59200195 -300.0078125 395.89697266 C-257.03910316 415.01850935 -206.13674047 419.79586583 -160 412 C-158.72672852 411.79117188 -158.72672852 411.79117188 -157.42773438 411.578125 C-114.21630396 404.30324661 -73.91150656 385.64593209 -40 358 C-39.44924805 357.55221191 -38.89849609 357.10442383 -38.33105469 356.64306641 C-24.96506566 345.68752497 -12.5763539 333.69401046 -2 320 C-1.2265625 319.04351562 -0.453125 318.08703125 0.34375 317.1015625 C42.94335029 263.58244441 59.65165884 195.34625471 52.36816406 127.99023438 C51.33287518 119.58160158 49.77471315 111.28088169 48 103 C47.84805176 102.28585938 47.69610352 101.57171875 47.53955078 100.8359375 C39.86091515 65.67542252 23.77638334 32.48061416 1.58203125 4.22265625 C0 2 0 2 0 0 Z " fill="#D1403F" transform="translate(417,56)"/>
<path d="M0 0 C7.41473617 4.19702048 13.41495054 9.68916873 19.38085938 15.71630859 C20.52377945 16.85879059 20.52377945 16.85879059 21.68978882 18.02435303 C24.18338496 20.51933197 26.66984002 23.02129879 29.15625 25.5234375 C30.89315727 27.26407863 32.6305094 29.00427597 34.36828613 30.74404907 C38.92318797 35.30655797 43.47204942 39.87504273 48.01965332 44.44482422 C52.66830328 49.11399578 57.32267648 53.77745462 61.9765625 58.44140625 C71.09413228 67.58037428 80.20552308 76.72547676 89.3125 85.875 C92.33356651 84.52230366 94.4148373 83.01644948 96.73883057 80.66899109 C97.39748611 80.00874939 98.05614166 79.34850769 98.73475647 78.66825867 C99.44651535 77.9445961 100.15827423 77.22093353 100.89160156 76.4753418 C101.6498674 75.71254913 102.40813324 74.94975647 103.18937683 74.16384888 C104.83556611 72.50670088 106.47947588 70.84728605 108.12137604 69.18588829 C110.72321644 66.55389446 113.33166961 63.92862498 115.94207764 61.30513 C123.36300198 53.84445246 130.7712673 46.37125105 138.17626953 38.89477539 C142.70677654 34.32146796 147.24463776 29.75556052 151.7868576 25.19388771 C153.5136753 23.4565241 155.23757312 21.71625313 156.95844269 19.97299767 C159.37073521 17.52938528 161.79221837 15.09523051 164.21582031 12.6628418 C164.91948227 11.94525192 165.62314423 11.22766205 166.34812927 10.48832703 C172.92820262 3.92037076 179.29505299 -1.17525603 188.875 -1.5 C196.16848981 -1.42062708 201.69390924 0.65422471 207.16015625 5.51953125 C212.82684628 11.68745185 214.86603436 17.92226306 214.59375 26.23828125 C213.46885005 36.78421824 204.63677605 44.85057146 197.47119141 51.94335938 C196.70953674 52.70530609 195.94788208 53.46725281 195.16314697 54.25228882 C192.66816803 56.74588496 190.16620121 59.23234002 187.6640625 61.71875 C185.92342137 63.45565727 184.18322403 65.1930094 182.44345093 66.93078613 C177.88094203 71.48568797 173.31245727 76.03454942 168.74267578 80.58215332 C164.07350422 85.23080328 159.41004538 89.88517648 154.74609375 94.5390625 C145.60712572 103.65663228 136.46202324 112.76802308 127.3125 121.875 C128.66519634 124.89606651 130.17105052 126.9773373 132.51850891 129.30133057 C133.50887146 130.28931389 133.50887146 130.28931389 134.51924133 131.29725647 C135.2429039 132.00901535 135.96656647 132.72077423 136.7121582 133.45410156 C137.8563472 134.59150032 137.8563472 134.59150032 139.02365112 135.75187683 C140.68079912 137.39806611 142.34021395 139.04197588 144.00161171 140.68387604 C146.63360554 143.28571644 149.25887502 145.89416961 151.88237 148.50457764 C159.34304754 155.92550198 166.81624895 163.3337673 174.29272461 170.73876953 C178.86603204 175.26927654 183.43193948 179.80713776 187.99361229 184.3493576 C189.7309759 186.0761753 191.47124687 187.80007312 193.21450233 189.52094269 C195.65811472 191.93323521 198.09226949 194.35471837 200.5246582 196.77832031 C201.24224808 197.48198227 201.95983795 198.18564423 202.69917297 198.91062927 C209.26712924 205.49070262 214.36275603 211.85755299 214.6875 221.4375 C214.60812708 228.73098981 212.53327529 234.25640924 207.66796875 239.72265625 C201.27730121 245.59399189 194.83001183 247.48868672 186.23046875 247.2109375 C171.25193403 245.48650111 158.16151536 226.85532472 148.1484375 216.80859375 C146.50385126 215.16213916 144.85904166 213.51590763 143.21401978 211.86988831 C138.91454324 207.56661941 134.61808003 203.26035445 130.32226562 198.95343018 C125.92631687 194.54719624 121.52748592 190.14384169 117.12890625 185.74023438 C108.52063539 177.12128417 99.9155494 168.49916182 91.3125 159.875 C88.29541716 161.22535112 86.22569273 162.72211073 83.91308594 165.07427979 C83.26021103 165.73307632 82.60733612 166.39187286 81.93467712 167.07063293 C80.87646507 168.15377022 80.87646507 168.15377022 79.796875 169.25878906 C79.04503433 170.01997543 78.29319366 170.7811618 77.51856995 171.56541443 C75.88558833 173.21940089 74.25477967 174.87553487 72.62588501 176.53354645 C70.04081923 179.16267532 67.4478698 181.78377478 64.85229492 184.40252686 C57.47259021 191.84938012 50.10083755 199.30394645 42.75048828 206.77978516 C38.25259544 211.35331501 33.73991578 215.91180789 29.21765137 220.46123505 C27.5025978 222.19232257 25.79309888 223.92893274 24.08947754 225.67127228 C3.69301721 246.52283561 3.69301721 246.52283561 -9.3125 247.5625 C-16.76479544 247.08933838 -23.08418237 244.00020249 -28.125 238.5 C-33.51468428 231.36973779 -34.69853492 224.65689633 -33.6875 215.875 C-30.07994532 202.33464477 -13.18201367 190.23983161 -3.62109375 180.7109375 C-1.97463916 179.06635126 -0.32840763 177.42154166 1.31761169 175.77651978 C5.62088059 171.47704324 9.92714555 167.18058003 14.23406982 162.88476562 C18.64030376 158.48881687 23.04365831 154.08998592 27.44726562 149.69140625 C36.06621583 141.08313539 44.68833818 132.4780494 53.3125 123.875 C51.95980366 120.85393349 50.45394948 118.7726627 48.10649109 116.44866943 C47.44624939 115.79001389 46.78600769 115.13135834 46.10575867 114.45274353 C45.3820961 113.74098465 44.65843353 113.02922577 43.9128418 112.29589844 C42.7686528 111.15849968 42.7686528 111.15849968 41.60134888 109.99812317 C39.94420088 108.35193389 38.28478605 106.70802412 36.62338829 105.06612396 C33.99139446 102.46428356 31.36612498 99.85583039 28.74263 97.24542236 C21.28195246 89.82449802 13.80875105 82.4162327 6.33227539 75.01123047 C1.75896796 70.48072346 -2.80693948 65.94286224 -7.36861229 61.4006424 C-9.1059759 59.6738247 -10.84624687 57.94992688 -12.58950233 56.22905731 C-15.03311472 53.81676479 -17.46726949 51.39528163 -19.8996582 48.97167969 C-20.61724808 48.26801773 -21.33483795 47.56435577 -22.07417297 46.83937073 C-28.92347084 39.97743673 -33.68687068 33.66083504 -34.0625 23.75 C-33.97840662 16.75156213 -31.69299177 11.25885534 -27.04296875 6.0234375 C-19.21562903 -1.1501515 -10.12889081 -3.09017008 0 0 Z " fill="#FEFDFD" transform="translate(165.6875,133.125)"/>
</svg>
