<?xml version="1.0" standalone="no"?>
<!DOCTYPE svg PUBLIC "-//W3C//DTD SVG 20010904//EN"
 "http://www.w3.org/TR/2001/REC-SVG-20010904/DTD/svg10.dtd">
<svg version="1.0" xmlns="http://www.w3.org/2000/svg"
 width="512.000000pt" height="512.000000pt" viewBox="0 0 512.000000 512.000000"
 preserveAspectRatio="xMidYMid meet">

<g transform="translate(0.000000,512.000000) scale(0.100000,-0.100000)"
fill="#dfe0dfbd" stroke="none">
<path d="M3665 5101 c-57 -27 -2441 -2400 -2466 -2456 -24 -51 -24 -119 0
-170 25 -56 2409 -2429 2466 -2456 129 -60 275 37 275 181 0 22 -7 57 -15 78
-11 27 -325 346 -1142 1160 l-1128 1122 1128 1123 c816 812 1131 1132 1142
1159 20 50 19 114 -4 163 -46 99 -158 141 -256 96z"/>
</g>
</svg>
