<?xml version="1.0" encoding="UTF-8"?>
<svg version="1.1" xmlns="http://www.w3.org/2000/svg" width="512" height="512">
<path d="M0 0 C2.48661202 1.93234431 4.84569338 3.94176623 7.18359375 6.05078125 C7.8796875 6.6540625 8.57578125 7.25734375 9.29296875 7.87890625 C23.38091403 20.87476275 30.6895575 40.444604 31.47094727 59.32226562 C31.59665006 64.16839964 31.60566087 69.01167964 31.57470703 73.85913086 C31.55852584 76.87594151 31.57468899 79.89143119 31.59375 82.90820312 C31.59176886 84.85807582 31.58792786 86.80794771 31.58203125 88.7578125 C31.58810394 89.6434639 31.59417664 90.5291153 31.60043335 91.44160461 C31.48880929 101.49579367 28.74574796 110.33581616 22.18359375 118.05078125 C16.78377729 123.07743966 10.71461994 127.05078125 3.18359375 127.05078125 C3.04824219 127.59605469 2.91289062 128.14132813 2.7734375 128.703125 C0.64561206 136.15688476 -3.36850661 141.60288161 -8.81640625 147.05078125 C-9.274523 149.02313458 -9.274523 149.02313458 -9.44140625 151.17578125 C-9.62703125 153.09390625 -9.62703125 153.09390625 -9.81640625 155.05078125 C-8.98463867 155.15946533 -8.15287109 155.26814941 -7.29589844 155.38012695 C-3.40428988 156.13021457 0.16739597 157.37190775 3.85546875 158.78125 C4.57792786 159.05415359 5.30038696 159.32705719 6.04473877 159.60823059 C7.56869216 160.18618943 9.09152389 160.76711362 10.61328125 161.35083008 C12.90871004 162.22876397 15.2098018 163.09041865 17.51171875 163.95117188 C33.124561 169.86381267 45.23798767 176.24925844 52.95703125 191.73046875 C59.93187099 210.61140436 56.18359375 233.40563501 56.18359375 252.05078125 C-9.81640625 252.05078125 -75.81640625 252.05078125 -143.81640625 252.05078125 C-143.81640625 191.37794605 -143.81640625 191.37794605 -131.81640625 178.23828125 C-122.54454379 169.84386936 -109.84143317 165.65916654 -98.25317383 161.39575195 C-96.08882647 160.59851792 -93.93004288 159.78737149 -91.77148438 158.97460938 C-81.23908762 155.05078125 -81.23908762 155.05078125 -77.81640625 155.05078125 C-77.93370346 148.48213768 -79.46750846 145.82470864 -83.9609375 141.13671875 C-87.47452903 137.18670217 -90.81640625 132.43365039 -90.81640625 127.05078125 C-91.76515625 127.00953125 -92.71390625 126.96828125 -93.69140625 126.92578125 C-101.09415586 125.81686734 -107.13764078 121.32261593 -111.75390625 115.61328125 C-117.772414 107.1873704 -118.97223797 99.38893334 -119.01953125 89.24609375 C-119.02523132 88.28992157 -119.0309314 87.33374939 -119.0368042 86.34860229 C-119.04623897 84.3229075 -119.05278212 82.29719746 -119.05664062 80.27148438 C-119.06626339 77.22106791 -119.09726664 74.17134988 -119.12890625 71.12109375 C-119.26556597 46.10571649 -113.81142483 25.35552476 -95.81640625 7.05078125 C-95.20152344 6.42300781 -94.58664063 5.79523437 -93.953125 5.1484375 C-68.80904068 -18.59576204 -27.7741431 -19.2223265 0 0 Z M-87.81640625 24.05078125 C-97.5366756 36.85484663 -101.25309114 49.13604302 -100.81640625 65.05078125 C-100.2740332 64.84437012 -99.73166016 64.63795898 -99.17285156 64.42529297 C-93.57310453 62.41029613 -88.47847921 61.56548086 -82.56640625 61.17578125 C-66.71364764 59.76795356 -55.65049494 53.60714252 -44.81640625 42.05078125 C-41.2636368 43.56760291 -38.95213605 45.6879812 -36.19140625 48.36328125 C-25.38918015 58.20215093 -13.17998816 60.92499709 1.11328125 61.734375 C5.46753877 62.18309619 9.11638156 63.46525786 13.18359375 65.05078125 C14.15027278 48.64409 9.20362834 34.75613844 -1.50390625 22.30078125 C-11.67636891 11.64246963 -25.18526288 4.93876591 -39.9375 3.8125 C-59.01543961 3.38554964 -74.87267571 10.08040956 -87.81640625 24.05078125 Z M-44.81640625 65.05078125 C-47.04851373 66.12462546 -47.04851373 66.12462546 -49.37890625 67.73828125 C-56.32518526 72.08096219 -63.18660301 74.72300948 -71.13671875 76.6640625 C-72.20422363 76.92614502 -73.27172852 77.18822754 -74.37158203 77.45825195 C-75.17837402 77.65378662 -75.98516602 77.84932129 -76.81640625 78.05078125 C-76.86641702 82.54905793 -76.90241001 87.0471807 -76.92626953 91.5456543 C-76.93623224 93.07107366 -76.94980734 94.59647441 -76.96728516 96.12182617 C-77.12687737 110.42410481 -76.98004977 122.90609903 -66.99609375 134.08984375 C-60.21703981 140.53955094 -53.13171962 143.23757657 -43.81640625 143.55078125 C-34.02214141 143.21121844 -26.97525453 140.21592784 -19.86328125 133.45703125 C-12.12984942 124.36582131 -10.63127385 114.58500218 -10.71875 103.05078125 C-10.72016495 102.32963135 -10.7215799 101.60848145 -10.72303772 100.86547852 C-10.72857244 98.59386801 -10.74111202 96.32236125 -10.75390625 94.05078125 C-10.75892971 92.49739727 -10.76349113 90.94401173 -10.76757812 89.390625 C-10.77852036 85.61063797 -10.79573865 81.83072711 -10.81640625 78.05078125 C-11.96496094 77.77105469 -13.11351562 77.49132812 -14.296875 77.203125 C-23.36020426 74.8979103 -31.21082359 72.2635118 -39.3125 67.50390625 C-41.81450755 65.93881629 -41.81450755 65.93881629 -44.81640625 65.05078125 Z M-95.81640625 82.05078125 C-100.09656558 86.84974777 -101.16681632 90.48381724 -101.10546875 96.76171875 C-100.66106983 100.28087776 -99.08214252 102.39663305 -96.81640625 105.05078125 C-95.82640625 105.71078125 -94.83640625 106.37078125 -93.81640625 107.05078125 C-93.81640625 98.80078125 -93.81640625 90.55078125 -93.81640625 82.05078125 C-94.47640625 82.05078125 -95.13640625 82.05078125 -95.81640625 82.05078125 Z M6.18359375 82.05078125 C6.18359375 90.30078125 6.18359375 98.55078125 6.18359375 107.05078125 C11.65078916 102.89044697 11.65078916 102.89044697 13.51953125 96.9375 C13.62278371 91.12438655 12.62846087 87.77517044 9.18359375 83.05078125 C8.19359375 82.72078125 7.20359375 82.39078125 6.18359375 82.05078125 Z M-58.81640625 159.05078125 C-55.90103835 165.27706947 -52.62253445 171.25943601 -49.12890625 177.17578125 C-48.5402478 178.18910522 -48.5402478 178.18910522 -47.93969727 179.22290039 C-46.95605759 180.86794201 -45.89273505 182.46483508 -44.81640625 184.05078125 C-44.15640625 184.05078125 -43.49640625 184.05078125 -42.81640625 184.05078125 C-41.19439724 181.7515724 -41.19439724 181.7515724 -39.55859375 178.80078125 C-38.62080078 177.1765625 -38.62080078 177.1765625 -37.6640625 175.51953125 C-37.01308594 174.37484375 -36.36210937 173.23015625 -35.69140625 172.05078125 C-35.02672476 170.89413843 -34.36136876 169.73788295 -33.6953125 168.58203125 C-32.0623142 165.7420342 -30.43638964 162.89821603 -28.81640625 160.05078125 C-31.68921115 158.82715065 -31.68921115 158.82715065 -34.25390625 159.48828125 C-42.41946064 160.77757931 -50.66063409 160.13821754 -58.81640625 159.05078125 Z M-81.81640625 175.05078125 C-79.26723188 185.63592433 -75.47648864 195.81257818 -71.81640625 206.05078125 C-66.86640625 203.74078125 -61.91640625 201.43078125 -56.81640625 199.05078125 C-57.63875917 195.76136957 -58.29457224 193.95532296 -59.9609375 191.15234375 C-60.39083984 190.4253125 -60.82074219 189.69828125 -61.26367188 188.94921875 C-61.71419922 188.19898438 -62.16472656 187.44875 -62.62890625 186.67578125 C-63.28729492 185.56203125 -63.28729492 185.56203125 -63.95898438 184.42578125 C-64.82422591 182.97042699 -65.69789566 181.52004523 -66.58056641 180.07519531 C-67.36802846 178.78526339 -68.1403293 177.48586416 -68.89208984 176.17480469 C-69.9594715 174.31981903 -69.9594715 174.31981903 -71.81640625 172.05078125 C-76.14735583 172.05078125 -78.08675486 173.01642594 -81.81640625 175.05078125 Z M-15.81640625 172.05078125 C-17.78293412 174.36664168 -17.78293412 174.36664168 -19.48828125 177.44921875 C-20.15214844 178.568125 -20.81601562 179.68703125 -21.5 180.83984375 C-21.8388623 181.42797852 -22.17772461 182.01611328 -22.52685547 182.62207031 C-23.56302906 184.41992153 -24.61910974 186.20473889 -25.6796875 187.98828125 C-29.24189468 193.20015259 -29.24189468 193.20015259 -30.81640625 199.05078125 C-25.86640625 201.36078125 -20.91640625 203.67078125 -15.81640625 206.05078125 C-14.36542544 201.97834478 -12.92022113 197.90474273 -11.48901367 193.82543945 C-11.00042607 192.43821415 -10.50858126 191.05213159 -10.01342773 189.66723633 C-9.30244224 187.67690482 -8.60325443 185.68276375 -7.90625 183.6875 C-7.48206787 182.48826904 -7.05788574 181.28903809 -6.62084961 180.0534668 C-5.51617984 177.03319754 -5.51617984 177.03319754 -6.81640625 174.05078125 C-10.13731627 172.34544908 -12.00133409 172.05078125 -15.81640625 172.05078125 Z M-102.5390625 181.765625 C-110.11332878 184.53842657 -116.77487545 187.54958753 -121.81640625 194.05078125 C-127.91478832 206.13066462 -127.91478832 206.13066462 -125.81640625 234.05078125 C-71.69640625 234.05078125 -17.57640625 234.05078125 38.18359375 234.05078125 C40.44372156 208.82076403 40.44372156 208.82076403 30.24609375 189.80078125 C25.02895389 185.75459944 18.40875672 183.12583557 12.18359375 181.05078125 C10.0405374 181.8583544 10.0405374 181.8583544 9.37362671 183.85922241 C9.11159454 184.64737335 8.84956238 185.43552429 8.57958984 186.24755859 C8.27942963 187.13873383 7.97926941 188.02990906 7.67001343 188.9480896 C7.35222931 189.91783722 7.03444519 190.88758484 6.70703125 191.88671875 C6.37692047 192.8770108 6.04680969 193.86730286 5.70669556 194.88760376 C5.00889282 196.98638271 4.31477323 199.08638923 3.62402344 201.1875 C2.56443048 204.408041 1.49216664 207.6241486 0.41796875 210.83984375 C-0.25726873 212.87605077 -0.93177241 214.91250131 -1.60546875 216.94921875 C-2.08821762 218.39776749 -2.08821762 218.39776749 -2.58071899 219.87557983 C-2.87457489 220.77305939 -3.16843079 221.67053894 -3.47119141 222.59521484 C-3.73163239 223.38495697 -3.99207336 224.1746991 -4.26040649 224.9883728 C-4.9465536 227.17753929 -4.9465536 227.17753929 -4.81640625 230.05078125 C-7.30666685 228.86615353 -9.79635352 227.68034049 -12.28540039 226.49316406 C-14.39574567 225.48688509 -16.50691734 224.48233745 -18.61889648 223.47949219 C-23.20039817 221.29617818 -27.76937767 219.11135865 -32.25 216.7265625 C-32.87632324 216.39599854 -33.50264648 216.06543457 -34.14794922 215.72485352 C-35.76438441 214.86191879 -37.37089704 213.98046853 -38.9765625 213.09765625 C-43.62974162 211.38231649 -46.93526964 212.66427872 -51.38745117 214.6171875 C-52.69468964 215.27446582 -53.9976727 215.94025778 -55.296875 216.61328125 C-55.99154373 216.96463135 -56.68621246 217.31598145 -57.40193176 217.67797852 C-59.60652385 218.79469698 -61.80535159 219.92223002 -64.00390625 221.05078125 C-66.21418894 222.17720537 -68.42560614 223.30134339 -70.63801575 224.42358398 C-72.01065595 225.1207194 -73.38188194 225.82064807 -74.75151062 226.52368164 C-77.41860742 227.88511389 -79.97023294 229.10205681 -82.81640625 230.05078125 C-83.08517578 228.75914062 -83.35394531 227.4675 -83.63085938 226.13671875 C-84.72808888 221.2090471 -86.1901219 216.46208411 -87.78515625 211.67578125 C-88.06613159 210.8252417 -88.34710693 209.97470215 -88.63659668 209.09838867 C-89.22596957 207.31954817 -89.81767141 205.54147772 -90.41162109 203.76416016 C-91.32229865 201.0331104 -92.22001758 198.29801263 -93.1171875 195.5625 C-93.69323159 193.82916806 -94.27002718 192.09608564 -94.84765625 190.36328125 C-95.1154187 189.54359863 -95.38318115 188.72391602 -95.65905762 187.87939453 C-97.23282874 181.90975058 -97.23282874 181.90975058 -102.5390625 181.765625 Z " fill="#000000" transform="translate(299.81640625,12.94921875)"/>
<path d="M0 0 C1.11696762 0.00222061 2.23393524 0.00444122 3.38475037 0.00672913 C4.64598221 0.00680466 5.90721405 0.00688019 7.20666504 0.00695801 C8.59341979 0.01206542 9.98017414 0.01728142 11.3669281 0.02259827 C12.77797394 0.0244625 14.18902042 0.02588638 15.60006714 0.02688599 C19.3204272 0.03071072 23.04074845 0.04054062 26.76109314 0.05158997 C30.55482966 0.06180504 34.34857243 0.06638381 38.14231873 0.07142639 C45.59090416 0.08216294 53.03945758 0.09923882 60.48802185 0.12025452 C61.30441503 2.9941995 62.11624326 5.86930581 62.92552185 8.74525452 C63.27066833 9.9576178 63.27066833 9.9576178 63.62278748 11.19447327 C64.82680905 15.48707192 65.86514437 19.69567658 66.48802185 24.12025452 C67.00711121 23.82779846 67.52620056 23.53534241 68.0610199 23.23402405 C70.43075341 21.90126371 72.80310102 20.57322485 75.17552185 19.24525452 C75.99214294 18.7850592 76.80876404 18.32486389 77.65013123 17.85072327 C78.84412537 17.18363342 78.84412537 17.18363342 80.0622406 16.50306702 C80.79015808 16.09459534 81.51807556 15.68612366 82.26805115 15.26527405 C84.60107668 14.06194294 87.05070177 13.09518255 89.48802185 12.12025452 C104.00802185 26.64025452 118.52802185 41.16025452 133.48802185 56.12025452 C126.82135518 69.45358785 126.82135518 69.45358785 123.4684906 74.49916077 C122.31511317 76.27167897 122.31511317 76.27167897 121.48802185 79.12025452 C122.1428656 79.22982483 122.79770935 79.33939514 123.47239685 79.45228577 C124.84138123 79.6901178 124.84138123 79.6901178 126.23802185 79.93275452 C127.56059998 80.15898499 127.56059998 80.15898499 128.90989685 80.38978577 C134.14151283 81.45781217 139.30792545 82.82523042 144.48802185 84.12025452 C144.48802185 105.24025452 144.48802185 126.36025452 144.48802185 148.12025452 C138.95719857 149.96386228 133.52215795 151.73200261 127.92552185 153.30775452 C126.70735779 153.6519342 125.48919373 153.99611389 124.2341156 154.35072327 C123.32790466 154.60466858 122.42169373 154.85861389 121.48802185 155.12025452 C121.86201111 155.70516663 122.23600037 156.29007874 122.62132263 156.89271545 C124.30200729 159.54167202 125.95760692 162.20544024 127.61302185 164.87025452 C128.20212341 165.79064514 128.79122498 166.71103577 129.3981781 167.65931702 C129.94602966 168.54877014 130.49388123 169.43822327 131.05833435 170.35462952 C131.57154236 171.17157288 132.08475037 171.98851624 132.61351013 172.83021545 C133.48802185 175.12025452 133.48802185 175.12025452 132.7978363 176.99403381 C131.25458546 179.49919161 129.4934384 181.35439136 127.40550232 183.42982483 C126.5647818 184.27039429 125.72406128 185.11096375 124.85786438 185.977005 C123.94948822 186.87505859 123.04111206 187.77311218 122.10520935 188.69837952 C121.17580536 189.62495361 120.24640137 190.55152771 119.28883362 191.50617981 C116.82398335 193.9634124 114.35318519 196.41457812 111.88108826 198.86451721 C109.3571142 201.36799261 106.83882797 203.87717515 104.3200531 206.38587952 C99.38158588 211.30292977 94.43680985 216.2135924 89.48802185 221.12025452 C86.25193318 219.85091953 83.2691532 218.51665334 80.2809906 216.73744202 C79.53011169 216.29271545 78.77923279 215.84798889 78.00559998 215.38978577 C77.23667419 214.92959045 76.46774841 214.46939514 75.67552185 213.99525452 C74.49312927 213.29335999 74.49312927 213.29335999 73.28684998 212.57728577 C71.35199732 211.42810055 69.41914957 210.27568449 67.48802185 209.12025452 C67.15028748 210.3616217 66.8125531 211.60298889 66.46458435 212.88197327 C66.01421575 214.52394211 65.56368646 216.16586689 65.11302185 217.80775452 C64.8913031 218.62437561 64.66958435 219.4409967 64.44114685 220.28236389 C64.22200623 221.07835999 64.0028656 221.87435608 63.77708435 222.69447327 C63.57808533 223.42239075 63.3790863 224.15030823 63.17405701 224.90028381 C62.41590588 227.35361768 61.44168197 229.73610423 60.48802185 232.12025452 C39.36802185 232.12025452 18.24802185 232.12025452 -3.51197815 232.12025452 C-8.51197815 212.12025452 -8.51197815 212.12025452 -8.51197815 209.12025452 C-16.0735728 212.75048912 -23.30905581 216.82572865 -30.51197815 221.12025452 C-36.14766476 216.43204518 -41.34301781 211.42040043 -46.5080719 206.22181702 C-47.34161697 205.38685699 -48.17516205 204.55189697 -49.03396606 203.69163513 C-51.67484339 201.04519604 -54.31220711 198.39528693 -56.94947815 195.74525452 C-58.74807464 193.94163808 -60.54690042 192.13825026 -62.34596252 190.33509827 C-66.73729063 185.93279191 -71.12574544 181.52763737 -75.51197815 177.12025452 C-74.22318788 173.84252997 -72.85332642 170.76701619 -71.12916565 167.69447327 C-70.46207581 166.50047913 -70.46207581 166.50047913 -69.7815094 165.28236389 C-69.32131409 164.4657428 -68.86111877 163.6491217 -68.38697815 162.80775452 C-67.91904846 161.97179749 -67.45111877 161.13584045 -66.9690094 160.27455139 C-65.81935225 158.22159219 -64.66694013 156.1702325 -63.51197815 154.12025452 C-64.74174377 153.85470764 -65.9715094 153.58916077 -67.23854065 153.31556702 C-68.8713906 152.9589676 -70.50420102 152.60218719 -72.13697815 152.24525452 C-72.94522034 152.07123108 -73.75346252 151.89720764 -74.5861969 151.71791077 C-75.37897034 151.54388733 -76.17174377 151.36986389 -76.98854065 151.19056702 C-77.71122131 151.03346252 -78.43390198 150.87635803 -79.17848206 150.7144928 C-81.99782043 149.99653197 -84.75195588 149.04026194 -87.51197815 148.12025452 C-87.51197815 127.33025452 -87.51197815 106.54025452 -87.51197815 85.12025452 C-77.2658243 81.7048699 -77.2658243 81.7048699 -72.13697815 80.43275452 C-71.13924377 80.18138733 -70.1415094 79.93002014 -69.11354065 79.67103577 C-66.51197815 79.12025452 -66.51197815 79.12025452 -63.51197815 79.12025452 C-64.38402619 77.49366846 -65.25983299 75.8690976 -66.13697815 74.24525452 C-66.67580627 73.24623108 -67.2146344 72.24720764 -67.76979065 71.21791077 C-69.87920793 67.46731008 -72.20576395 63.88219574 -74.60572815 60.31166077 C-75.51197815 58.12025452 -75.51197815 58.12025452 -74.82377625 56.25263977 C-73.28035932 53.74374797 -71.51970407 51.88841321 -69.42945862 49.8106842 C-68.5887381 48.97011475 -67.74801758 48.12954529 -66.88182068 47.26350403 C-65.97344452 46.36545044 -65.06506836 45.46739685 -64.12916565 44.54212952 C-63.19976166 43.61555542 -62.27035767 42.68898132 -61.31278992 41.73432922 C-58.84793965 39.27709663 -56.37714149 36.82593091 -53.90504456 34.37599182 C-51.3810705 31.87251643 -48.86278427 29.36333389 -46.3440094 26.85462952 C-41.40554218 21.93757927 -36.46076615 17.02691663 -31.51197815 12.12025452 C-28.46143167 13.31817111 -25.63767236 14.52589436 -22.84791565 16.24916077 C-22.20080627 16.64425842 -21.5536969 17.03935608 -20.88697815 17.44642639 C-19.89697815 18.05840881 -19.89697815 18.05840881 -18.88697815 18.68275452 C-13.90564246 21.81367 -13.90564246 21.81367 -8.51197815 24.12025452 C-8.40240784 23.46541077 -8.29283752 22.81056702 -8.1799469 22.13587952 C-4.37065679 0.20923399 -4.37065679 0.20923399 0 0 Z M10.48802185 18.12025452 C10.28950623 19.42220764 10.0909906 20.72416077 9.88645935 22.06556702 C7.46177795 35.15859173 7.46177795 35.15859173 3.97386169 38.62513733 C-0.7118679 41.69056791 -5.91405745 43.23818866 -11.5236969 42.98353577 C-15.21378762 41.91750956 -18.20387505 40.14261503 -21.38697815 38.05775452 C-21.9799469 37.68070374 -22.57291565 37.30365295 -23.18385315 36.91517639 C-24.63225137 35.99240655 -26.07293846 35.05755188 -27.51197815 34.12025452 C-33.50698812 39.08220307 -38.97624852 44.46791692 -44.44947815 49.99525452 C-45.32410706 50.87439514 -46.19873596 51.75353577 -47.09986877 52.65931702 C-49.23954863 54.81068911 -51.37684412 56.96437244 -53.51197815 59.12025452 C-52.57583248 60.85015477 -51.63799857 62.57914148 -50.69947815 64.30775452 C-50.17740784 65.2706842 -49.65533752 66.23361389 -49.1174469 67.22572327 C-48.06852286 69.11684908 -46.96346946 70.97818839 -45.79859924 72.80018616 C-44.03603112 75.97849448 -44.6368084 77.65051587 -45.51197815 81.12025452 C-45.68471252 82.12185608 -45.8574469 83.12345764 -46.03541565 84.15541077 C-47.07964238 87.86768468 -48.01553548 90.14036052 -50.51197815 93.12025452 C-56.48241153 96.06029331 -63.01726771 96.88316681 -69.51197815 98.12025452 C-69.51197815 110.00025452 -69.51197815 121.88025452 -69.51197815 134.12025452 C-59.69821111 137.738202 -59.69821111 137.738202 -49.51197815 139.12025452 C-49.39080627 139.84212952 -49.2696344 140.56400452 -49.14479065 141.30775452 C-48.31773592 144.9835533 -46.80449541 148.19883711 -45.25416565 151.62025452 C-44.18784276 155.21207898 -44.70553415 157.48251679 -46.3518219 160.82582092 C-47.3867176 162.72062269 -48.46876748 164.57844526 -49.57447815 166.43275452 C-49.95152893 167.0779303 -50.32857971 167.72310608 -50.71705627 168.38783264 C-51.64235308 169.96903604 -52.57630496 171.54516912 -53.51197815 173.12025452 C-48.5500296 179.11526449 -43.16431575 184.58452489 -37.63697815 190.05775452 C-36.31826721 191.36969788 -36.31826721 191.36969788 -34.97291565 192.70814514 C-32.82154355 194.847825 -30.66786023 196.98512049 -28.51197815 199.12025452 C-27.58256409 198.55435608 -26.65315002 197.98845764 -25.6955719 197.40541077 C-24.44723491 196.66391737 -23.19851644 195.92306596 -21.94947815 195.18275452 C-21.34039612 194.80957092 -20.73131409 194.43638733 -20.10377502 194.05189514 C-15.92817216 191.59955695 -12.45911497 190.25548377 -7.51197815 190.12025452 C-4.2736969 191.11634827 -4.2736969 191.11634827 -1.19947815 192.55775452 C2.50504505 194.45011464 2.50504505 194.45011464 6.48802185 195.12025452 C6.59114685 196.19275452 6.69427185 197.26525452 6.80052185 198.37025452 C7.61945375 204.02832948 9.10143777 209.57391821 10.48802185 215.12025452 C22.36802185 215.12025452 34.24802185 215.12025452 46.48802185 215.12025452 C49.03369451 207.59708249 49.03369451 207.59708249 50.67552185 200.05775452 C50.91335388 198.64816467 50.91335388 198.64816467 51.1559906 197.21009827 C51.26556091 196.52044983 51.37513123 195.83080139 51.48802185 195.12025452 C52.1634906 194.92689514 52.83895935 194.73353577 53.53489685 194.53431702 C54.4269281 194.27392639 55.31895935 194.01353577 56.23802185 193.74525452 C57.1197406 193.49002014 58.00145935 193.23478577 58.90989685 192.97181702 C61.46566749 192.20146272 61.46566749 192.20146272 63.6247406 191.02259827 C65.96697347 189.88830939 67.81087031 189.93447926 70.35520935 190.35853577 C74.28220616 191.76103463 77.56649294 194.30937244 80.9372406 196.72181702 C83.27008854 198.29301218 83.27008854 198.29301218 85.30638123 198.01942444 C88.45523648 196.72161402 90.57414547 194.50189747 92.9450531 192.13197327 C93.70588448 191.38256218 93.70588448 191.38256218 94.48208618 190.61801147 C95.54903491 189.56184697 96.61205637 188.50170222 97.67137146 187.43788147 C99.29852638 185.80975118 100.94585454 184.20412783 102.59544373 182.59877014 C103.6299447 181.56947395 104.6631926 180.53891649 105.6950531 179.50697327 C106.19076309 179.02765854 106.68647308 178.54834381 107.19720459 178.05450439 C108.73168487 176.54617436 108.73168487 176.54617436 110.48802185 174.12025452 C110.31741776 170.29267616 107.90107349 167.47038843 105.86302185 164.30775452 C102.5138927 158.62042432 102.5138927 158.62042432 102.30052185 154.49525452 C103.63679801 150.69741702 105.05662966 146.95548264 106.6481781 143.25697327 C107.60995861 141.19266555 107.60995861 141.19266555 107.48802185 139.12025452 C108.39552185 139.01712952 109.30302185 138.91400452 110.23802185 138.80775452 C119.53452752 137.87101358 119.53452752 137.87101358 127.48802185 134.12025452 C127.57657346 131.45399421 127.60326858 128.81378337 127.5856781 126.14759827 C127.58426315 125.3499556 127.58284821 124.55231293 127.58139038 123.73049927 C127.57577502 121.17288016 127.56321997 118.61534734 127.55052185 116.05775452 C127.54550883 114.32793807 127.54094558 112.59812025 127.53684998 110.86830139 C127.5258006 106.61891899 127.50852571 102.3696014 127.48802185 98.12025452 C125.53509216 97.80507874 125.53509216 97.80507874 123.54270935 97.48353577 C110.3548047 94.95608937 110.3548047 94.95608937 107.0153656 91.67201233 C104.65608216 88.126745 103.48339947 84.22225808 102.48802185 80.12025452 C102.26461121 79.47741516 102.04120056 78.83457581 101.8110199 78.17225647 C101.38315826 75.45405761 102.08923708 74.50851763 103.5778656 72.22962952 C104.03226013 71.52064514 104.48665466 70.81166077 104.95481873 70.08119202 C105.44015076 69.35158264 105.92548279 68.62197327 106.42552185 67.87025452 C106.90698669 67.12517639 107.38845154 66.38009827 107.88450623 65.61244202 C109.07468999 63.77413839 110.27597509 61.94418684 111.48802185 60.12025452 C106.5260733 54.12524455 101.14035945 48.65598414 95.61302185 43.18275452 C94.73388123 42.30812561 93.8547406 41.4334967 92.94895935 40.53236389 C90.79758725 38.39268403 88.64390393 36.25538855 86.48802185 34.12025452 C84.88720416 34.9003044 83.28868669 35.6850759 81.69114685 36.47181702 C80.80072693 36.90832581 79.91030701 37.34483459 78.99290466 37.79457092 C76.89352761 38.90564474 75.11683187 40.06090088 73.23802185 41.49525452 C70.48802185 43.12025452 70.48802185 43.12025452 67.73802185 43.12025452 C63.96889015 41.96052168 60.37689811 40.52236547 56.7575531 38.96009827 C54.42242214 37.94672878 54.42242214 37.94672878 51.48802185 38.12025452 C51.38489685 37.02712952 51.28177185 35.93400452 51.17552185 34.80775452 C50.28649389 25.82212218 50.28649389 25.82212218 46.48802185 18.12025452 C43.82176155 18.03170291 41.18155071 18.00500778 38.5153656 18.02259827 C37.3189016 18.02472069 37.3189016 18.02472069 36.0982666 18.02688599 C33.5406475 18.03250135 30.98311467 18.0450564 28.42552185 18.05775452 C26.6957054 18.06276754 24.96588759 18.06733079 23.23606873 18.07142639 C18.98668632 18.08247577 14.73736873 18.09975065 10.48802185 18.12025452 Z " fill="#000000" transform="translate(367.51197814941406,279.87974548339844)"/>
<path d="M0 0 C54.78 0 109.56 0 166 0 C166 70.95 166 141.9 166 215 C111.22 215 56.44 215 0 215 C0 144.05 0 73.1 0 0 Z M17 17 C17 76.73 17 136.46 17 198 C60.23 198 103.46 198 148 198 C148 138.27 148 78.54 148 17 C104.77 17 61.54 17 17 17 Z " fill="#000000" transform="translate(0,297)"/>
<path d="M0 0 C13.26452332 11.47047268 22.06064051 26.28451262 24.3125 43.8125 C25.6976012 63.16489985 20.90401044 80.33450641 9.0625 95.75 C-3.2693135 109.81333525 -19.85746461 117.69325205 -38.4140625 119.09375 C-56.6294336 119.5463058 -73.58250217 113.95176703 -87.44921875 101.99609375 C-100.40966384 89.35230875 -108.62483566 73.42652996 -108.9296875 55.19067383 C-108.99026901 36.26463026 -104.11464086 19.53779015 -90.74926758 5.69824219 C-66.04965219 -18.79288377 -27.64864702 -21.4746773 0 0 Z M-77.62109375 17.5546875 C-87.23232791 28.05618721 -91.84300685 40.66137663 -91.6875 54.8125 C-90.3954056 69.66164645 -83.79886029 80.82644715 -72.7265625 90.53125 C-60.69857573 100.49126711 -47.80447986 102.00202221 -32.6875 100.8125 C-28.67243018 99.99166213 -25.31409554 98.69927012 -21.6875 96.8125 C-20.84058594 96.38839844 -19.99367188 95.96429688 -19.12109375 95.52734375 C-6.56763724 88.64689965 1.83700277 77.57426048 5.89331055 63.84692383 C8.35842787 51.8831366 6.89056658 38.51493429 0.6640625 28.0390625 C-2.3729671 23.51667345 -5.62867754 19.46544021 -9.6875 15.8125 C-10.17476563 15.33296875 -10.66203125 14.8534375 -11.1640625 14.359375 C-30.12448774 -3.43287239 -59.67731665 0.67020314 -77.62109375 17.5546875 Z " fill="#000000" transform="translate(438.6875,344.1875)"/>
<path d="M0 0 C5.22948744 4.37029366 10.10289955 8.96911804 14.90234375 13.8046875 C15.98619102 14.8906572 15.98619102 14.8906572 17.0919342 15.99856567 C19.37616922 18.28835265 21.65688312 20.58160993 23.9375 22.875 C25.49521039 24.43773161 27.05315087 26.0002339 28.61132812 27.5625 C32.41021602 31.3723531 36.20622713 35.18505379 40 39 C38.59490901 42.18259851 36.93078658 44.31348466 34.46826172 46.75878906 C33.74766571 47.47923401 33.0270697 48.19967896 32.28463745 48.94195557 C31.50750397 49.70876648 30.73037048 50.47557739 29.9296875 51.265625 C29.13345978 52.05902283 28.33723206 52.85242065 27.51687622 53.66986084 C24.97424052 56.20130703 22.42473652 58.72570803 19.875 61.25 C18.14928247 62.96568617 16.42401645 64.68182662 14.69921875 66.3984375 C10.47136968 70.60424248 6.23786131 74.80428507 2 79 C-1.54023647 77.32867581 -3.99347254 75.36660667 -6.8125 72.625 C-8.02873047 71.46871094 -8.02873047 71.46871094 -9.26953125 70.2890625 C-11 68 -11 68 -10.81933594 66.08642578 C-9.82327943 63.54998391 -8.56986628 62.22776881 -6.62109375 60.328125 C-5.94755859 59.66425781 -5.27402344 59.00039062 -4.58007812 58.31640625 C-3.87302734 57.63449219 -3.16597656 56.95257813 -2.4375 56.25 C-1.72658203 55.55261719 -1.01566406 54.85523438 -0.28320312 54.13671875 C1.47130714 52.4175342 3.23243352 50.70574128 5 49 C-0.03536777 48.92567582 -5.07041408 48.87131599 -10.10620117 48.83520508 C-11.81817184 48.8201466 -13.53010411 48.79969545 -15.24194336 48.77368164 C-17.70696505 48.7371681 -20.17147535 48.72024438 -22.63671875 48.70703125 C-23.39836838 48.69154739 -24.16001801 48.67606354 -24.94474792 48.66011047 C-29.46624822 48.65868823 -32.45799015 49.10152946 -36 52 C-37.08318833 55.24956498 -37.13821814 57.63530179 -37.15821838 61.05534363 C-37.17290161 62.95471428 -37.17290161 62.95471428 -37.18788147 64.89245605 C-37.19378566 66.29833947 -37.19959611 67.70422327 -37.20532227 69.11010742 C-37.21490094 70.58836643 -37.22491101 72.06662271 -37.23532104 73.5448761 C-37.26237736 77.56108177 -37.283383 81.57729921 -37.30332303 85.59354568 C-37.32517809 89.7896246 -37.35256913 93.98566725 -37.37937927 98.18171692 C-37.42931265 106.12894023 -37.47424909 114.07618367 -37.51740164 122.02344638 C-37.56676849 131.07052615 -37.62168867 140.11756951 -37.67708123 149.16461408 C-37.79091118 167.7763758 -37.89755104 186.38817239 -38 205 C-43.61 205 -49.22 205 -55 205 C-55.11589062 184.96327387 -55.20504744 164.92664283 -55.25906086 144.88965034 C-55.28481015 135.58549697 -55.31989783 126.28155605 -55.37719727 116.97753906 C-55.42713277 108.86535555 -55.45931481 100.75332595 -55.47044247 92.640993 C-55.47694412 88.3480243 -55.49215584 84.05549581 -55.52865028 79.76266861 C-55.56277058 75.71604982 -55.57302099 71.67004954 -55.56553841 67.62330055 C-55.56690584 66.14391396 -55.57674294 64.66450513 -55.59602737 63.18524361 C-55.71551088 53.54103692 -55.02361215 45.44505388 -48.24440479 38.0971241 C-41.73790626 31.93126026 -35.01375594 30.55261955 -26.34765625 30.48828125 C-25.44752304 30.47033005 -24.54738983 30.45237885 -23.61997986 30.43388367 C-20.76753309 30.38004755 -17.91525107 30.34597112 -15.0625 30.3125 C-13.11911783 30.27930332 -11.17575733 30.2448115 -9.23242188 30.20898438 C-4.48840064 30.12433659 0.255574 30.05739864 5 30 C4.51007568 29.53625977 4.02015137 29.07251953 3.51538086 28.59472656 C1.30983345 26.49290474 -0.87631158 24.37194275 -3.0625 22.25 C-3.83400391 21.52039063 -4.60550781 20.79078125 -5.40039062 20.0390625 C-6.12548828 19.33007812 -6.85058594 18.62109375 -7.59765625 17.890625 C-8.27320557 17.24125977 -8.94875488 16.59189453 -9.64477539 15.92285156 C-11 14 -11 14 -10.85546875 11.91796875 C-9.51228154 8.90653077 -7.29726457 7.02015326 -4.9375 4.75 C-4.01839844 3.85796875 -3.09929687 2.9659375 -2.15234375 2.046875 C-1.44207031 1.37140625 -0.73179687 0.6959375 0 0 Z " fill="#000000" transform="translate(129,76)"/>
<path d="M0 0 C6.67109905 -0.09932347 13.34176191 -0.17168403 20.01342773 -0.21972656 C22.28010563 -0.23976707 24.54673232 -0.26700711 26.81323242 -0.30175781 C30.08264856 -0.35060868 33.35137757 -0.37304512 36.62109375 -0.390625 C37.62458359 -0.41127014 38.62807343 -0.43191528 39.66197205 -0.45318604 C47.25387798 -0.45557452 53.12797526 1.18457862 59.3046875 5.67578125 C60.08199219 6.48595703 60.08199219 6.48595703 60.875 7.3125 C61.40867187 7.84488281 61.94234375 8.37726563 62.4921875 8.92578125 C67.13633505 15.314492 67.44343478 21.13824884 67.43237305 28.80053711 C67.44766052 30.39677917 67.44766052 30.39677917 67.46325684 32.02526855 C67.49333628 35.5260142 67.50264532 39.02648596 67.51171875 42.52734375 C67.52856912 44.96115525 67.54671985 47.39495807 67.56611633 49.82875061 C67.61358319 56.22210985 67.64341423 62.61543387 67.66955566 69.00891113 C67.69937772 75.53791253 67.74590247 82.06679265 67.79101562 88.59570312 C67.87701128 101.39708587 67.9428291 114.19845603 68 127 C73.61 121.39 79.22 115.78 85 110 C88.84281736 111.92140868 90.80431927 113.5926816 93.75 116.625 C94.54921875 117.44226563 95.3484375 118.25953125 96.171875 119.1015625 C96.77515625 119.72804688 97.3784375 120.35453125 98 121 C96.59490901 124.18259851 94.93078658 126.31348466 92.46826172 128.75878906 C91.74766571 129.47923401 91.0270697 130.19967896 90.28463745 130.94195557 C89.50750397 131.70876648 88.73037048 132.47557739 87.9296875 133.265625 C87.13345978 134.05902283 86.33723206 134.85242065 85.51687622 135.66986084 C82.97424052 138.20130703 80.42473652 140.72570803 77.875 143.25 C76.14928247 144.96568617 74.42401645 146.68182662 72.69921875 148.3984375 C68.47136968 152.60424248 64.23786131 156.80428507 60 161 C56.77254476 159.58098338 54.62741893 157.87144235 52.14941406 155.37646484 C51.40894836 154.63584808 50.66848267 153.89523132 49.90557861 153.13217163 C49.11689392 152.33316437 48.32820923 151.5341571 47.515625 150.7109375 C46.70003113 149.89251373 45.88443726 149.07408997 45.04412842 148.23086548 C42.44135438 145.61690027 39.84562238 142.99606495 37.25 140.375 C35.4861366 138.60110546 33.7218191 136.82766234 31.95703125 135.0546875 C27.63273864 130.70834858 23.3142067 126.35634919 19 122 C19.94511484 120.89566414 20.89047569 119.79153882 21.8359375 118.6875 C22.62556885 117.76517578 22.62556885 117.76517578 23.43115234 116.82421875 C25.53036954 114.38329891 27.53225601 112.0781002 30 110 C33.54586455 110.30270676 35.24855363 111.89291278 37.671875 114.37890625 C38.33574219 115.05244141 38.99960937 115.72597656 39.68359375 116.41992188 C40.36550781 117.12697266 41.04742187 117.83402344 41.75 118.5625 C42.44738281 119.27341797 43.14476562 119.98433594 43.86328125 120.71679688 C45.5824658 122.47130714 47.29425872 124.23243352 49 126 C49.06945316 112.63958413 49.12278754 99.27921108 49.15543652 85.91865158 C49.1711049 79.71507143 49.1923648 73.51161462 49.22631836 67.30810547 C49.25886964 61.32347651 49.27684418 55.33896632 49.28463173 49.35425568 C49.29018282 47.06885152 49.30102248 44.78345399 49.31719017 42.49810028 C49.33890786 39.30164952 49.34196925 36.10569213 49.34057617 32.90917969 C49.351362 31.96043472 49.36214783 31.01168976 49.3732605 30.03419495 C49.37357563 25.0461589 49.37357563 25.0461589 47.66621399 20.44317627 C44.89367865 18.04176971 42.2283997 17.86685864 38.7121582 17.79467773 C37.85149246 17.77473251 36.99082672 17.75478729 36.1040802 17.73423767 C34.71644722 17.70916893 34.71644722 17.70916893 33.30078125 17.68359375 C32.35059616 17.66281265 31.40041107 17.64203156 30.4214325 17.62062073 C27.38519544 17.55521948 24.34887169 17.49628396 21.3125 17.4375 C19.25454831 17.39430583 17.19660541 17.35069124 15.13867188 17.30664062 C10.09253684 17.19954769 5.04631457 17.09825354 0 17 C0 11.39 0 5.78 0 0 Z " fill="#000000" transform="translate(346,107)"/>
<path d="M0 0 C3.63303084 1.69586126 5.94549046 3.73800488 8.75 6.625 C9.54921875 7.44226563 10.3484375 8.25953125 11.171875 9.1015625 C11.77515625 9.72804688 12.3784375 10.35453125 13 11 C9.19941525 18.6011695 2.00925213 23.99074787 -4 30 C26.195 30.495 26.195 30.495 57 31 C57 36.61 57 42.22 57 48 C36.87 48.33 16.74 48.66 -4 49 C1.61 54.61 7.22 60.22 13 66 C11.07859132 69.84281736 9.4073184 71.80431927 6.375 74.75 C5.55773437 75.54921875 4.74046875 76.3484375 3.8984375 77.171875 C3.27195313 77.77515625 2.64546875 78.3784375 2 79 C-1.15398193 77.59966705 -3.31944046 75.94573104 -5.7746582 73.53173828 C-6.49833084 72.82405304 -7.22200348 72.1163678 -7.96760559 71.38723755 C-8.73755356 70.62265228 -9.50750153 69.85806702 -10.30078125 69.0703125 C-11.09655075 68.28357147 -11.89232025 67.49683044 -12.71220398 66.68624878 C-14.3900429 65.02290516 -16.0650944 63.35674579 -17.73754883 61.68798828 C-20.30809058 59.12938893 -22.89668781 56.59002989 -25.48632812 54.05078125 C-27.11312482 52.4334432 -28.73881474 50.81499098 -30.36328125 49.1953125 C-31.14335037 48.4347757 -31.92341949 47.67423889 -32.72712708 46.89065552 C-33.43503891 46.17666595 -34.14295074 45.46267639 -34.87231445 44.72705078 C-35.50200638 44.1024295 -36.1316983 43.47780823 -36.7804718 42.83425903 C-38 41 -38 41 -37.91485596 39.00772095 C-36.78844265 36.53572132 -35.42215959 35.06193424 -33.48999023 33.14941406 C-32.74929794 32.40894836 -32.00860565 31.66848267 -31.24546814 30.90557861 C-30.44129959 30.11689392 -29.63713104 29.32820923 -28.80859375 28.515625 C-27.98875504 27.70003113 -27.16891632 26.88443726 -26.32423401 26.04412842 C-23.70227238 23.43896894 -21.07007552 20.84442921 -18.4375 18.25 C-16.65882155 16.48636631 -14.88081808 14.7220516 -13.10351562 12.95703125 C-8.7434806 8.63008597 -4.37499473 4.31181602 0 0 Z " fill="#000000" transform="translate(208,357)"/>
<path d="M0 0 C7.81136492 5.48695304 13.32142056 12.08948463 15.6015625 21.4765625 C17.27481321 32.07381698 15.39346358 41.40278734 9.3125 50.3125 C3.32254071 57.6569727 -5.25734502 62.28712018 -14.66015625 63.28125 C-26.20324981 63.67089029 -34.32131504 60.16850763 -42.6875 52.44140625 C-48.80671208 46.06212765 -51.18946768 38.215607 -51.5 29.5 C-51.09265359 19.06946325 -47.73983571 11.68282093 -40.51171875 4.16796875 C-29.24070468 -5.56051151 -13.07349306 -7.18557915 0 0 Z M-29.875 18.625 C-32.80354542 23.2762192 -34.53241744 27.62398939 -33.65625 33.1796875 C-32.01695327 38.35127838 -29.38629867 40.92025838 -25 44 C-20.8357867 46.08210665 -15.30217694 45.71970127 -10.92578125 44.3515625 C-7.14662138 42.43329046 -4.54749008 39.85777225 -2.66015625 36.05859375 C-0.92013445 30.63260862 -1.16801891 25.72796073 -3.625 20.625 C-7.16959847 16.7072859 -10.25849301 14.48375194 -15.375 13.0625 C-21.46789114 12.95745015 -25.37887367 14.51984118 -29.875 18.625 Z " fill="#000000" transform="translate(414,367)"/>
<path d="M0 0 C33 0 66 0 100 0 C100 5.61 100 11.22 100 17 C67 17 34 17 0 17 C0 11.39 0 5.78 0 0 Z " fill="#000000" transform="translate(33,429)"/>
<path d="M0 0 C33 0 66 0 100 0 C100 5.61 100 11.22 100 17 C67 17 34 17 0 17 C0 11.39 0 5.78 0 0 Z " fill="#000000" transform="translate(33,396)"/>
<path d="M0 0 C33 0 66 0 100 0 C100 5.61 100 11.22 100 17 C67 17 34 17 0 17 C0 11.39 0 5.78 0 0 Z " fill="#000000" transform="translate(33,330)"/>
<path d="M0 0 C22.11 0 44.22 0 67 0 C67 5.61 67 11.22 67 17 C44.89 17 22.78 17 0 17 C0 11.39 0 5.78 0 0 Z " fill="#000000" transform="translate(33,462)"/>
<path d="M0 0 C22.11 0 44.22 0 67 0 C67 5.61 67 11.22 67 17 C44.89 17 22.78 17 0 17 C0 11.39 0 5.78 0 0 Z " fill="#000000" transform="translate(66,363)"/>
<path d="M0 0 C5.94 0 11.88 0 18 0 C18 5.61 18 11.22 18 17 C12.06 17 6.12 17 0 17 C0 11.39 0 5.78 0 0 Z " fill="#000000" transform="translate(115,462)"/>
<path d="M0 0 C5.61 0 11.22 0 17 0 C17 5.61 17 11.22 17 17 C11.39 17 5.78 17 0 17 C0 11.39 0 5.78 0 0 Z " fill="#000000" transform="translate(33,363)"/>
</svg>
